<?xml version="1.0"?>
<svg version="1.1" id="topsvg"
xmlns="http://www.w3.org/2000/svg" xmlns:xlink="http://www.w3.org/1999/xlink"
xmlns:cml="http://www.xml-cml.org/schema" x="0" y="0" width="222.71057451320087px" height="222.71057451320087px" viewBox="0 0 100 100">
<title> - Open Babel Depiction</title>
<rect x="0" y="0" width="100" height="100" fill="white"/>
<g transform="translate(0,0)">
<svg width="100" height="100" x="0" y="0" viewBox="0 0 263.923 174.641"
font-family="sans-serif" stroke="rgb(0,0,0)" stroke-width="2"  stroke-linecap="round">
<line x1="212.7" y1="46.5" x2="189.3" y2="60.0" opacity="1.0" stroke="rgb(0,0,0)"  stroke-width="2.0"/>
<line x1="127.3" y1="103.3" x2="126.5" y2="104.7" opacity="1.0" stroke="rgb(0,0,0)"  stroke-width="1.0"/>
<line x1="133.2" y1="106.0" x2="131.8" y2="108.4" opacity="1.0" stroke="rgb(0,0,0)"  stroke-width="1.0"/>
<line x1="139.1" y1="108.6" x2="137.0" y2="112.2" opacity="1.0" stroke="rgb(0,0,0)"  stroke-width="1.0"/>
<line x1="144.9" y1="111.2" x2="142.2" y2="116.0" opacity="1.0" stroke="rgb(0,0,0)"  stroke-width="1.0"/>
<line x1="150.8" y1="113.9" x2="147.4" y2="119.7" opacity="1.0" stroke="rgb(0,0,0)"  stroke-width="1.0"/>
<line x1="156.6" y1="116.5" x2="152.6" y2="123.5" opacity="1.0" stroke="rgb(0,0,0)"  stroke-width="1.0"/>
<line x1="73.5" y1="88.7" x2="66.5" y2="76.6" opacity="1.0" stroke="rgb(0,0,0)"  stroke-width="2.0"/>
<line x1="67.0" y1="100.0" x2="53.0" y2="100.0" opacity="1.0" stroke="rgb(0,0,0)"  stroke-width="2.0"/>
<line x1="93.0" y1="100.0" x2="120.0" y2="100.0" opacity="1.0" stroke="rgb(0,0,0)"  stroke-width="2.0"/>
<line x1="120.0" y1="100.0" x2="106.5" y2="123.4" opacity="1.0" stroke="rgb(0,0,0)"  stroke-width="2.0"/>
<line x1="93.5" y1="123.4" x2="86.5" y2="111.3" opacity="1.0" stroke="rgb(0,0,0)"  stroke-width="2.0"/>
<line x1="154.6" y1="120.0" x2="120.0" y2="100.0" opacity="1.0" stroke="rgb(0,0,0)"  stroke-width="2.0"/>
<line x1="120.0" y1="100.0" x2="120.0" y2="60.0" opacity="1.0" stroke="rgb(0,0,0)"  stroke-width="2.0"/>
<line x1="120.0" y1="60.0" x2="154.6" y2="40.0" opacity="1.0" stroke="rgb(0,0,0)"  stroke-width="2.0"/>
<line x1="128.8" y1="63.2" x2="153.0" y2="49.2" opacity="1.0" stroke="rgb(0,0,0)"  stroke-width="2.0"/>
<line x1="154.6" y1="40.0" x2="189.3" y2="60.0" opacity="1.0" stroke="rgb(0,0,0)"  stroke-width="2.0"/>
<line x1="189.3" y1="60.0" x2="189.3" y2="100.0" opacity="1.0" stroke="rgb(0,0,0)"  stroke-width="2.0"/>
<line x1="182.1" y1="66.0" x2="182.1" y2="94.0" opacity="1.0" stroke="rgb(0,0,0)"  stroke-width="2.0"/>
<line x1="189.3" y1="100.0" x2="154.6" y2="120.0" opacity="1.0" stroke="rgb(0,0,0)"  stroke-width="2.0"/>
<text x="219.923048" y="48.000000" fill="rgb(102,102,102)" stroke-width="0" font-weight="bold" font-size="16" >CH</text>
<text x="243.923048" y="51.680000" fill="rgb(102,102,102)" stroke-width="0" font-weight="bold" font-size="13" >3</text>
<text x="158.541016" y="116.724000" fill="rgb(102,102,102)" stroke-width="0" font-weight="bold" font-size="13" ></text>
<text x="158.541016" y="116.724000" fill="rgb(102,102,102)" stroke-width="0" font-weight="bold" font-size="26" >.</text>
<text x="94.000000" y="142.641016" fill="rgb(255,12,12)" stroke-width="0" font-weight="bold" font-size="16" >O</text>
<text x="74.000000" y="108.000000" fill="rgb(178,178,0)" stroke-width="0" font-weight="bold" font-size="16" >S</text>
<text x="64.800000" y="61.326984" fill="rgb(255,12,12)" stroke-width="0" font-weight="bold" font-size="16" ></text>
<text x="64.800000" y="61.326984" fill="rgb(255,12,12)" stroke-width="0" font-weight="bold" font-size="32" >.</text>
<text x="54.000000" y="73.358984" fill="rgb(255,12,12)" stroke-width="0" font-weight="bold" font-size="16" >O</text>
<text x="44.800000" y="95.968000" fill="rgb(255,12,12)" stroke-width="0" font-weight="bold" font-size="16" ></text>
<text x="44.800000" y="95.968000" fill="rgb(255,12,12)" stroke-width="0" font-weight="bold" font-size="32" >.</text>
<text x="34.000000" y="108.000000" fill="rgb(255,12,12)" stroke-width="0" font-weight="bold" font-size="16" >O</text>
</svg>
</g>
<text font-size="18.000000" fill ="black" font-family="sans-serif"
x="10.000000" y="20.000000" ></text>
</svg>
