<?xml version="1.0"?>
<svg version="1.1" id="topsvg"
xmlns="http://www.w3.org/2000/svg" xmlns:xlink="http://www.w3.org/1999/xlink"
xmlns:cml="http://www.xml-cml.org/schema" x="0" y="0" width="252.98221281347034px" height="252.98221281347034px" viewBox="0 0 100 100">
<title> - Open Babel Depiction</title>
<rect x="0" y="0" width="100" height="100" fill="white"/>
<g transform="translate(0,0)">
<svg width="100" height="100" x="0" y="0" viewBox="0 0 413.205 280"
font-family="sans-serif" stroke="rgb(0,0,0)" stroke-width="2"  stroke-linecap="round">
<line x1="53.0" y1="80.0" x2="80.0" y2="80.0" opacity="1.0" stroke="rgb(0,0,0)"  stroke-width="2.0"/>
<line x1="160.0" y1="80.0" x2="187.0" y2="80.0" opacity="1.0" stroke="rgb(0,0,0)"  stroke-width="2.0"/>
<line x1="200.0" y1="93.0" x2="200.0" y2="107.0" opacity="1.0" stroke="rgb(0,0,0)"  stroke-width="2.0"/>
<line x1="211.3" y1="126.5" x2="234.6" y2="140.0" opacity="1.0" stroke="rgb(0,0,0)"  stroke-width="2.0"/>
<line x1="303.9" y1="180.0" x2="327.3" y2="193.5" opacity="1.0" stroke="rgb(0,0,0)"  stroke-width="2.0"/>
<line x1="341.6" y1="213.0" x2="341.6" y2="227.0" opacity="1.0" stroke="rgb(0,0,0)"  stroke-width="2.0"/>
<line x1="335.6" y1="213.0" x2="335.6" y2="227.0" opacity="1.0" stroke="rgb(0,0,0)"  stroke-width="2.0"/>
<line x1="348.3" y1="190.9" x2="360.4" y2="183.9" opacity="1.0" stroke="rgb(0,0,0)"  stroke-width="2.0"/>
<line x1="351.3" y1="196.1" x2="363.4" y2="189.1" opacity="1.0" stroke="rgb(0,0,0)"  stroke-width="2.0"/>
<line x1="213.0" y1="80.0" x2="227.0" y2="80.0" opacity="1.0" stroke="rgb(0,0,0)"  stroke-width="2.0"/>
<line x1="200.0" y1="67.0" x2="200.0" y2="53.0" opacity="1.0" stroke="rgb(0,0,0)"  stroke-width="2.0"/>
<line x1="140.0" y1="45.4" x2="160.0" y2="80.0" opacity="1.0" stroke="rgb(0,0,0)"  stroke-width="2.0"/>
<line x1="160.0" y1="80.0" x2="140.0" y2="114.6" opacity="1.0" stroke="rgb(0,0,0)"  stroke-width="2.0"/>
<line x1="150.8" y1="81.6" x2="136.8" y2="105.8" opacity="1.0" stroke="rgb(0,0,0)"  stroke-width="2.0"/>
<line x1="140.0" y1="114.6" x2="100.0" y2="114.6" opacity="1.0" stroke="rgb(0,0,0)"  stroke-width="2.0"/>
<line x1="100.0" y1="114.6" x2="80.0" y2="80.0" opacity="1.0" stroke="rgb(0,0,0)"  stroke-width="2.0"/>
<line x1="103.2" y1="105.8" x2="89.2" y2="81.6" opacity="1.0" stroke="rgb(0,0,0)"  stroke-width="2.0"/>
<line x1="80.0" y1="80.0" x2="100.0" y2="45.4" opacity="1.0" stroke="rgb(0,0,0)"  stroke-width="2.0"/>
<line x1="100.0" y1="45.4" x2="140.0" y2="45.4" opacity="1.0" stroke="rgb(0,0,0)"  stroke-width="2.0"/>
<line x1="106.0" y1="52.6" x2="134.0" y2="52.6" opacity="1.0" stroke="rgb(0,0,0)"  stroke-width="2.0"/>
<line x1="303.9" y1="140.0" x2="303.9" y2="180.0" opacity="1.0" stroke="rgb(0,0,0)"  stroke-width="2.0"/>
<line x1="303.9" y1="180.0" x2="269.3" y2="200.0" opacity="1.0" stroke="rgb(0,0,0)"  stroke-width="2.0"/>
<line x1="295.1" y1="176.8" x2="270.9" y2="190.8" opacity="1.0" stroke="rgb(0,0,0)"  stroke-width="2.0"/>
<line x1="269.3" y1="200.0" x2="234.6" y2="180.0" opacity="1.0" stroke="rgb(0,0,0)"  stroke-width="2.0"/>
<line x1="234.6" y1="180.0" x2="234.6" y2="140.0" opacity="1.0" stroke="rgb(0,0,0)"  stroke-width="2.0"/>
<line x1="241.8" y1="174.0" x2="241.8" y2="146.0" opacity="1.0" stroke="rgb(0,0,0)"  stroke-width="2.0"/>
<line x1="234.6" y1="140.0" x2="269.3" y2="120.0" opacity="1.0" stroke="rgb(0,0,0)"  stroke-width="2.0"/>
<line x1="269.3" y1="120.0" x2="303.9" y2="140.0" opacity="1.0" stroke="rgb(0,0,0)"  stroke-width="2.0"/>
<line x1="270.9" y1="129.2" x2="295.1" y2="143.2" opacity="1.0" stroke="rgb(0,0,0)"  stroke-width="2.0"/>
<text x="204.800000" y="35.968000" fill="rgb(255,12,12)" stroke-width="0" font-weight="bold" font-size="16" ></text>
<text x="204.800000" y="35.968000" fill="rgb(255,12,12)" stroke-width="0" font-weight="bold" font-size="32" >.</text>
<text x="194.000000" y="48.000000" fill="rgb(255,12,12)" stroke-width="0" font-weight="bold" font-size="16" >O</text>
<text x="244.800000" y="75.968000" fill="rgb(255,12,12)" stroke-width="0" font-weight="bold" font-size="16" ></text>
<text x="244.800000" y="75.968000" fill="rgb(255,12,12)" stroke-width="0" font-weight="bold" font-size="32" >.</text>
<text x="234.000000" y="88.000000" fill="rgb(255,12,12)" stroke-width="0" font-weight="bold" font-size="16" >O</text>
<text x="367.205081" y="188.000000" fill="rgb(255,12,12)" stroke-width="0" font-weight="bold" font-size="16" >O</text>
<text x="332.564065" y="248.000000" fill="rgb(255,12,12)" stroke-width="0" font-weight="bold" font-size="16" >O</text>
<text x="332.564065" y="208.000000" fill="rgb(12,12,255)" stroke-width="0" font-weight="bold" font-size="16" >N</text>
<text x="14.000000" y="88.000000" fill="rgb(102,102,102)" stroke-width="0" font-weight="bold" font-size="16" >H</text>
<text x="26.000000" y="91.680000" fill="rgb(102,102,102)" stroke-width="0" font-weight="bold" font-size="13" >3</text>
<text x="32.500000" y="88.000000" fill="rgb(102,102,102)" stroke-width="0" font-weight="bold" font-size="16" >C</text>
<text x="194.000000" y="128.000000" fill="rgb(255,12,12)" stroke-width="0" font-weight="bold" font-size="16" >O</text>
<text x="194.000000" y="88.000000" fill="rgb(178,178,0)" stroke-width="0" font-weight="bold" font-size="16" >S</text>
</svg>
</g>
<text font-size="18.000000" fill ="black" font-family="sans-serif"
x="10.000000" y="20.000000" ></text>
</svg>
