<?xml version="1.0"?>
<svg version="1.1" id="topsvg"
xmlns="http://www.w3.org/2000/svg" xmlns:xlink="http://www.w3.org/1999/xlink"
xmlns:cml="http://www.xml-cml.org/schema" x="0" y="0" width="360.0px" height="360.0px" viewBox="0 0 100 100">
<title> - Open Babel Depiction</title>
<rect x="0" y="0" width="100" height="100" fill="white"/>
<g transform="translate(0,0)">
<svg width="100" height="100" x="0" y="0" viewBox="0 0 466.41 340"
font-family="sans-serif" stroke="rgb(0,0,0)" stroke-width="2"  stroke-linecap="round">
<line x1="213.2" y1="153.0" x2="213.2" y2="180.0" opacity="1.0" stroke="rgb(0,0,0)"  stroke-width="2.0"/>
<line x1="213.2" y1="180.0" x2="178.6" y2="200.0" opacity="1.0" stroke="rgb(0,0,0)"  stroke-width="2.0"/>
<line x1="178.6" y1="200.0" x2="143.9" y2="180.0" opacity="1.0" stroke="rgb(0,0,0)"  stroke-width="2.0"/>
<line x1="143.9" y1="180.0" x2="109.3" y2="200.0" opacity="1.0" stroke="rgb(0,0,0)"  stroke-width="2.0"/>
<line x1="107.8" y1="202.6" x2="73.1" y2="182.6" opacity="1.0" stroke="rgb(0,0,0)"  stroke-width="2.0"/>
<line x1="110.8" y1="197.4" x2="76.1" y2="177.4" opacity="1.0" stroke="rgb(0,0,0)"  stroke-width="2.0"/>
<line x1="73.1" y1="182.6" x2="49.8" y2="169.1" opacity="1.0" stroke="rgb(0,0,0)"  stroke-width="2.0"/>
<line x1="76.1" y1="177.4" x2="52.8" y2="163.9" opacity="1.0" stroke="rgb(0,0,0)"  stroke-width="2.0"/>
<line x1="426.4" y1="53.0" x2="426.4" y2="80.0" opacity="1.0" stroke="rgb(0,0,0)"  stroke-width="2.0"/>
<line x1="427.9" y1="82.6" x2="393.3" y2="102.6" opacity="1.0" stroke="rgb(0,0,0)"  stroke-width="2.0"/>
<line x1="424.9" y1="77.4" x2="390.3" y2="97.4" opacity="1.0" stroke="rgb(0,0,0)"  stroke-width="2.0"/>
<line x1="391.8" y1="100.0" x2="357.1" y2="80.0" opacity="1.0" stroke="rgb(0,0,0)"  stroke-width="2.0"/>
<line x1="357.1" y1="80.0" x2="322.5" y2="100.0" opacity="1.0" stroke="rgb(0,0,0)"  stroke-width="2.0"/>
<line x1="321.0" y1="102.6" x2="286.3" y2="82.6" opacity="1.0" stroke="rgb(0,0,0)"  stroke-width="2.0"/>
<line x1="324.0" y1="97.4" x2="289.3" y2="77.4" opacity="1.0" stroke="rgb(0,0,0)"  stroke-width="2.0"/>
<line x1="286.3" y1="82.6" x2="263.0" y2="69.1" opacity="1.0" stroke="rgb(0,0,0)"  stroke-width="2.0"/>
<line x1="289.3" y1="77.4" x2="266.0" y2="63.9" opacity="1.0" stroke="rgb(0,0,0)"  stroke-width="2.0"/>
<line x1="210.2" y1="287.0" x2="210.2" y2="260.0" opacity="1.0" stroke="rgb(0,0,0)"  stroke-width="2.0"/>
<line x1="216.2" y1="287.0" x2="216.2" y2="260.0" opacity="1.0" stroke="rgb(0,0,0)"  stroke-width="2.0"/>
<line x1="213.2" y1="260.0" x2="178.6" y2="240.0" opacity="1.0" stroke="rgb(0,0,0)"  stroke-width="2.0"/>
<line x1="178.6" y1="240.0" x2="143.9" y2="260.0" opacity="1.0" stroke="rgb(0,0,0)"  stroke-width="2.0"/>
<line x1="143.9" y1="260.0" x2="109.3" y2="240.0" opacity="1.0" stroke="rgb(0,0,0)"  stroke-width="2.0"/>
<line x1="110.8" y1="242.6" x2="76.1" y2="262.6" opacity="1.0" stroke="rgb(0,0,0)"  stroke-width="2.0"/>
<line x1="107.8" y1="237.4" x2="73.1" y2="257.4" opacity="1.0" stroke="rgb(0,0,0)"  stroke-width="2.0"/>
<line x1="76.1" y1="262.6" x2="52.8" y2="276.1" opacity="1.0" stroke="rgb(0,0,0)"  stroke-width="2.0"/>
<line x1="73.1" y1="257.4" x2="49.8" y2="270.9" opacity="1.0" stroke="rgb(0,0,0)"  stroke-width="2.0"/>
<line x1="213.2" y1="87.0" x2="213.2" y2="60.0" opacity="1.0" stroke="rgb(0,0,0)"  stroke-width="2.0"/>
<line x1="213.2" y1="60.0" x2="178.6" y2="40.0" opacity="1.0" stroke="rgb(0,0,0)"  stroke-width="2.0"/>
<line x1="180.1" y1="42.6" x2="145.4" y2="62.6" opacity="1.0" stroke="rgb(0,0,0)"  stroke-width="2.0"/>
<line x1="177.1" y1="37.4" x2="142.4" y2="57.4" opacity="1.0" stroke="rgb(0,0,0)"  stroke-width="2.0"/>
<line x1="143.9" y1="60.0" x2="109.3" y2="40.0" opacity="1.0" stroke="rgb(0,0,0)"  stroke-width="2.0"/>
<line x1="110.8" y1="42.6" x2="76.1" y2="62.6" opacity="1.0" stroke="rgb(0,0,0)"  stroke-width="2.0"/>
<line x1="107.8" y1="37.4" x2="73.1" y2="57.4" opacity="1.0" stroke="rgb(0,0,0)"  stroke-width="2.0"/>
<line x1="76.1" y1="62.6" x2="52.8" y2="76.1" opacity="1.0" stroke="rgb(0,0,0)"  stroke-width="2.0"/>
<line x1="73.1" y1="57.4" x2="49.8" y2="70.9" opacity="1.0" stroke="rgb(0,0,0)"  stroke-width="2.0"/>
<text x="218.005081" y="295.968000" fill="rgb(102,102,102)" stroke-width="0" font-weight="bold" font-size="16" ></text>
<text x="218.005081" y="295.968000" fill="rgb(102,102,102)" stroke-width="0" font-weight="bold" font-size="32" >.</text>
<text x="207.205081" y="308.000000" fill="rgb(102,102,102)" stroke-width="0" font-weight="bold" font-size="16" >CH</text>
<text x="34.000000" y="88.000000" fill="rgb(255,12,12)" stroke-width="0" font-weight="bold" font-size="16" >O</text>
<text x="183.364065" y="35.968000" fill="rgb(102,102,102)" stroke-width="0" font-weight="bold" font-size="16" ></text>
<text x="183.364065" y="35.968000" fill="rgb(102,102,102)" stroke-width="0" font-weight="bold" font-size="32" >.</text>
<text x="218.005081" y="55.968000" fill="rgb(102,102,102)" stroke-width="0" font-weight="bold" font-size="16" ></text>
<text x="218.005081" y="55.968000" fill="rgb(102,102,102)" stroke-width="0" font-weight="bold" font-size="32" >.</text>
<text x="218.005081" y="95.968000" fill="rgb(102,102,102)" stroke-width="0" font-weight="bold" font-size="16" ></text>
<text x="218.005081" y="95.968000" fill="rgb(102,102,102)" stroke-width="0" font-weight="bold" font-size="32" >..</text>
<text x="207.205081" y="108.000000" fill="rgb(102,102,102)" stroke-width="0" font-weight="bold" font-size="16" >CH</text>
<text x="34.000000" y="288.000000" fill="rgb(255,12,12)" stroke-width="0" font-weight="bold" font-size="16" >O</text>
<text x="148.723048" y="255.968000" fill="rgb(102,102,102)" stroke-width="0" font-weight="bold" font-size="16" ></text>
<text x="148.723048" y="255.968000" fill="rgb(102,102,102)" stroke-width="0" font-weight="bold" font-size="32" >.</text>
<text x="183.364065" y="235.968000" fill="rgb(102,102,102)" stroke-width="0" font-weight="bold" font-size="16" ></text>
<text x="183.364065" y="235.968000" fill="rgb(102,102,102)" stroke-width="0" font-weight="bold" font-size="32" >..</text>
<text x="218.005081" y="135.968000" fill="rgb(102,102,102)" stroke-width="0" font-weight="bold" font-size="16" ></text>
<text x="218.005081" y="135.968000" fill="rgb(102,102,102)" stroke-width="0" font-weight="bold" font-size="32" >..</text>
<text x="207.205081" y="148.000000" fill="rgb(102,102,102)" stroke-width="0" font-weight="bold" font-size="16" >CH</text>
<text x="247.205081" y="68.000000" fill="rgb(255,12,12)" stroke-width="0" font-weight="bold" font-size="16" >O</text>
<text x="361.928129" y="75.968000" fill="rgb(102,102,102)" stroke-width="0" font-weight="bold" font-size="16" ></text>
<text x="361.928129" y="75.968000" fill="rgb(102,102,102)" stroke-width="0" font-weight="bold" font-size="32" >.</text>
<text x="396.569145" y="95.968000" fill="rgb(102,102,102)" stroke-width="0" font-weight="bold" font-size="16" ></text>
<text x="396.569145" y="95.968000" fill="rgb(102,102,102)" stroke-width="0" font-weight="bold" font-size="32" >.</text>
<text x="431.210162" y="35.968000" fill="rgb(102,102,102)" stroke-width="0" font-weight="bold" font-size="16" ></text>
<text x="431.210162" y="35.968000" fill="rgb(102,102,102)" stroke-width="0" font-weight="bold" font-size="32" >..</text>
<text x="420.410162" y="48.000000" fill="rgb(102,102,102)" stroke-width="0" font-weight="bold" font-size="16" >CH</text>
<text x="34.000000" y="168.000000" fill="rgb(255,12,12)" stroke-width="0" font-weight="bold" font-size="16" >O</text>
<text x="148.723048" y="175.968000" fill="rgb(102,102,102)" stroke-width="0" font-weight="bold" font-size="16" ></text>
<text x="148.723048" y="175.968000" fill="rgb(102,102,102)" stroke-width="0" font-weight="bold" font-size="32" >.</text>
<text x="183.364065" y="195.968000" fill="rgb(102,102,102)" stroke-width="0" font-weight="bold" font-size="16" ></text>
<text x="183.364065" y="195.968000" fill="rgb(102,102,102)" stroke-width="0" font-weight="bold" font-size="32" >..</text>
<text x="218.005081" y="175.968000" fill="rgb(102,102,102)" stroke-width="0" font-weight="bold" font-size="16" ></text>
<text x="218.005081" y="175.968000" fill="rgb(102,102,102)" stroke-width="0" font-weight="bold" font-size="32" >.</text>
</svg>
</g>
<text font-size="18.000000" fill ="black" font-family="sans-serif"
x="10.000000" y="20.000000" ></text>
</svg>
