<?xml version="1.0"?>
<svg version="1.1" id="topsvg"
xmlns="http://www.w3.org/2000/svg" xmlns:xlink="http://www.w3.org/1999/xlink"
xmlns:cml="http://www.xml-cml.org/schema" x="0" y="0" width="484.9742261192856px" height="484.9742261192856px" viewBox="0 0 100 100">
<title> - Open Babel Depiction</title>
<rect x="0" y="0" width="100" height="100" fill="white"/>
<g transform="translate(0,0)">
<svg width="100" height="100" x="0" y="0" viewBox="0 0 708.897 480"
font-family="sans-serif" stroke="rgb(0,0,0)" stroke-width="2"  stroke-linecap="round">
<line x1="71.6" y1="427.0" x2="71.6" y2="400.0" opacity="1.0" stroke="rgb(0,0,0)"  stroke-width="2.0"/>
<line x1="77.6" y1="427.0" x2="77.6" y2="400.0" opacity="1.0" stroke="rgb(0,0,0)"  stroke-width="2.0"/>
<line x1="74.6" y1="320.0" x2="74.6" y2="293.0" opacity="1.0" stroke="rgb(0,0,0)"  stroke-width="2.0"/>
<line x1="85.9" y1="273.5" x2="98.0" y2="266.5" opacity="1.0" stroke="rgb(0,0,0)"  stroke-width="2.0"/>
<line x1="120.5" y1="266.5" x2="143.9" y2="280.0" opacity="1.0" stroke="rgb(0,0,0)"  stroke-width="2.0"/>
<line x1="213.2" y1="320.0" x2="236.6" y2="333.5" opacity="1.0" stroke="rgb(0,0,0)"  stroke-width="2.0"/>
<line x1="250.8" y1="353.0" x2="250.8" y2="367.0" opacity="1.0" stroke="rgb(0,0,0)"  stroke-width="2.0"/>
<line x1="244.8" y1="353.0" x2="244.8" y2="367.0" opacity="1.0" stroke="rgb(0,0,0)"  stroke-width="2.0"/>
<line x1="257.6" y1="330.9" x2="269.7" y2="323.9" opacity="1.0" stroke="rgb(0,0,0)"  stroke-width="2.0"/>
<line x1="260.6" y1="336.1" x2="272.7" y2="329.1" opacity="1.0" stroke="rgb(0,0,0)"  stroke-width="2.0"/>
<line x1="63.4" y1="273.5" x2="51.3" y2="266.5" opacity="1.0" stroke="rgb(0,0,0)"  stroke-width="2.0"/>
<line x1="247.8" y1="53.0" x2="247.8" y2="80.0" opacity="1.0" stroke="rgb(0,0,0)"  stroke-width="2.0"/>
<line x1="247.8" y1="160.0" x2="247.8" y2="187.0" opacity="1.0" stroke="rgb(0,0,0)"  stroke-width="2.0"/>
<line x1="236.6" y1="206.5" x2="224.5" y2="213.5" opacity="1.0" stroke="rgb(0,0,0)"  stroke-width="2.0"/>
<line x1="201.9" y1="213.5" x2="178.6" y2="200.0" opacity="1.0" stroke="rgb(0,0,0)"  stroke-width="2.0"/>
<line x1="109.3" y1="160.0" x2="85.9" y2="146.5" opacity="1.0" stroke="rgb(0,0,0)"  stroke-width="2.0"/>
<line x1="71.6" y1="127.0" x2="71.6" y2="113.0" opacity="1.0" stroke="rgb(0,0,0)"  stroke-width="2.0"/>
<line x1="77.6" y1="127.0" x2="77.6" y2="113.0" opacity="1.0" stroke="rgb(0,0,0)"  stroke-width="2.0"/>
<line x1="64.9" y1="149.1" x2="52.8" y2="156.1" opacity="1.0" stroke="rgb(0,0,0)"  stroke-width="2.0"/>
<line x1="61.9" y1="143.9" x2="49.8" y2="150.9" opacity="1.0" stroke="rgb(0,0,0)"  stroke-width="2.0"/>
<line x1="259.1" y1="206.5" x2="271.2" y2="213.5" opacity="1.0" stroke="rgb(0,0,0)"  stroke-width="2.0"/>
<line x1="659.1" y1="49.1" x2="635.8" y2="62.6" opacity="1.0" stroke="rgb(0,0,0)"  stroke-width="2.0"/>
<line x1="656.1" y1="43.9" x2="632.8" y2="57.4" opacity="1.0" stroke="rgb(0,0,0)"  stroke-width="2.0"/>
<line x1="565.0" y1="100.0" x2="541.6" y2="113.5" opacity="1.0" stroke="rgb(0,0,0)"  stroke-width="2.0"/>
<line x1="519.1" y1="113.5" x2="507.0" y2="106.5" opacity="1.0" stroke="rgb(0,0,0)"  stroke-width="2.0"/>
<line x1="484.4" y1="106.5" x2="461.1" y2="120.0" opacity="1.0" stroke="rgb(0,0,0)"  stroke-width="2.0"/>
<line x1="391.8" y1="160.0" x2="368.4" y2="173.5" opacity="1.0" stroke="rgb(0,0,0)"  stroke-width="2.0"/>
<line x1="344.4" y1="176.1" x2="332.2" y2="169.1" opacity="1.0" stroke="rgb(0,0,0)"  stroke-width="2.0"/>
<line x1="347.4" y1="170.9" x2="335.2" y2="163.9" opacity="1.0" stroke="rgb(0,0,0)"  stroke-width="2.0"/>
<line x1="360.1" y1="193.0" x2="360.1" y2="207.0" opacity="1.0" stroke="rgb(0,0,0)"  stroke-width="2.0"/>
<line x1="354.1" y1="193.0" x2="354.1" y2="207.0" opacity="1.0" stroke="rgb(0,0,0)"  stroke-width="2.0"/>
<line x1="530.3" y1="133.0" x2="530.3" y2="147.0" opacity="1.0" stroke="rgb(0,0,0)"  stroke-width="2.0"/>
<line x1="213.2" y1="280.0" x2="213.2" y2="320.0" opacity="1.0" stroke="rgb(0,0,0)"  stroke-width="2.0"/>
<line x1="213.2" y1="320.0" x2="178.6" y2="340.0" opacity="1.0" stroke="rgb(0,0,0)"  stroke-width="2.0"/>
<line x1="204.4" y1="316.8" x2="180.2" y2="330.8" opacity="1.0" stroke="rgb(0,0,0)"  stroke-width="2.0"/>
<line x1="178.6" y1="340.0" x2="143.9" y2="320.0" opacity="1.0" stroke="rgb(0,0,0)"  stroke-width="2.0"/>
<line x1="143.9" y1="320.0" x2="143.9" y2="280.0" opacity="1.0" stroke="rgb(0,0,0)"  stroke-width="2.0"/>
<line x1="151.1" y1="314.0" x2="151.1" y2="286.0" opacity="1.0" stroke="rgb(0,0,0)"  stroke-width="2.0"/>
<line x1="143.9" y1="280.0" x2="178.6" y2="260.0" opacity="1.0" stroke="rgb(0,0,0)"  stroke-width="2.0"/>
<line x1="178.6" y1="260.0" x2="213.2" y2="280.0" opacity="1.0" stroke="rgb(0,0,0)"  stroke-width="2.0"/>
<line x1="180.2" y1="269.2" x2="204.4" y2="283.2" opacity="1.0" stroke="rgb(0,0,0)"  stroke-width="2.0"/>
<line x1="109.3" y1="200.0" x2="109.3" y2="160.0" opacity="1.0" stroke="rgb(0,0,0)"  stroke-width="2.0"/>
<line x1="109.3" y1="160.0" x2="143.9" y2="140.0" opacity="1.0" stroke="rgb(0,0,0)"  stroke-width="2.0"/>
<line x1="118.1" y1="163.2" x2="142.3" y2="149.2" opacity="1.0" stroke="rgb(0,0,0)"  stroke-width="2.0"/>
<line x1="143.9" y1="140.0" x2="178.6" y2="160.0" opacity="1.0" stroke="rgb(0,0,0)"  stroke-width="2.0"/>
<line x1="178.6" y1="160.0" x2="178.6" y2="200.0" opacity="1.0" stroke="rgb(0,0,0)"  stroke-width="2.0"/>
<line x1="171.4" y1="166.0" x2="171.4" y2="194.0" opacity="1.0" stroke="rgb(0,0,0)"  stroke-width="2.0"/>
<line x1="178.6" y1="200.0" x2="143.9" y2="220.0" opacity="1.0" stroke="rgb(0,0,0)"  stroke-width="2.0"/>
<line x1="143.9" y1="220.0" x2="109.3" y2="200.0" opacity="1.0" stroke="rgb(0,0,0)"  stroke-width="2.0"/>
<line x1="142.3" y1="210.8" x2="118.1" y2="196.8" opacity="1.0" stroke="rgb(0,0,0)"  stroke-width="2.0"/>
<line x1="426.4" y1="180.0" x2="391.8" y2="160.0" opacity="1.0" stroke="rgb(0,0,0)"  stroke-width="2.0"/>
<line x1="391.8" y1="160.0" x2="391.8" y2="120.0" opacity="1.0" stroke="rgb(0,0,0)"  stroke-width="2.0"/>
<line x1="399.0" y1="154.0" x2="399.0" y2="126.0" opacity="1.0" stroke="rgb(0,0,0)"  stroke-width="2.0"/>
<line x1="391.8" y1="120.0" x2="426.4" y2="100.0" opacity="1.0" stroke="rgb(0,0,0)"  stroke-width="2.0"/>
<line x1="426.4" y1="100.0" x2="461.1" y2="120.0" opacity="1.0" stroke="rgb(0,0,0)"  stroke-width="2.0"/>
<line x1="428.0" y1="109.2" x2="452.3" y2="123.2" opacity="1.0" stroke="rgb(0,0,0)"  stroke-width="2.0"/>
<line x1="461.1" y1="120.0" x2="461.1" y2="160.0" opacity="1.0" stroke="rgb(0,0,0)"  stroke-width="2.0"/>
<line x1="461.1" y1="160.0" x2="426.4" y2="180.0" opacity="1.0" stroke="rgb(0,0,0)"  stroke-width="2.0"/>
<line x1="452.3" y1="156.8" x2="428.0" y2="170.8" opacity="1.0" stroke="rgb(0,0,0)"  stroke-width="2.0"/>
<line x1="40.0" y1="340.0" x2="74.6" y2="320.0" opacity="1.0" stroke="rgb(0,0,0)"  stroke-width="2.0"/>
<line x1="74.6" y1="320.0" x2="109.3" y2="340.0" opacity="1.0" stroke="rgb(0,0,0)"  stroke-width="2.0"/>
<line x1="109.3" y1="340.0" x2="109.3" y2="380.0" opacity="1.0" stroke="rgb(0,0,0)"  stroke-width="2.0"/>
<line x1="109.3" y1="380.0" x2="74.6" y2="400.0" opacity="1.0" stroke="rgb(0,0,0)"  stroke-width="2.0"/>
<line x1="74.6" y1="400.0" x2="40.0" y2="380.0" opacity="1.0" stroke="rgb(0,0,0)"  stroke-width="2.0"/>
<line x1="40.0" y1="380.0" x2="40.0" y2="340.0" opacity="1.0" stroke="rgb(0,0,0)"  stroke-width="2.0"/>
<line x1="282.5" y1="140.0" x2="247.8" y2="160.0" opacity="1.0" stroke="rgb(0,0,0)"  stroke-width="2.0"/>
<line x1="247.8" y1="160.0" x2="213.2" y2="140.0" opacity="1.0" stroke="rgb(0,0,0)"  stroke-width="2.0"/>
<line x1="246.2" y1="150.8" x2="222.0" y2="136.8" opacity="1.0" stroke="rgb(0,0,0)"  stroke-width="2.0"/>
<line x1="213.2" y1="140.0" x2="213.2" y2="100.0" opacity="1.0" stroke="rgb(0,0,0)"  stroke-width="2.0"/>
<line x1="213.2" y1="100.0" x2="247.8" y2="80.0" opacity="1.0" stroke="rgb(0,0,0)"  stroke-width="2.0"/>
<line x1="247.8" y1="80.0" x2="282.5" y2="100.0" opacity="1.0" stroke="rgb(0,0,0)"  stroke-width="2.0"/>
<line x1="282.5" y1="100.0" x2="282.5" y2="140.0" opacity="1.0" stroke="rgb(0,0,0)"  stroke-width="2.0"/>
<line x1="599.6" y1="120.0" x2="565.0" y2="100.0" opacity="1.0" stroke="rgb(0,0,0)"  stroke-width="2.0"/>
<line x1="565.0" y1="100.0" x2="565.0" y2="60.0" opacity="1.0" stroke="rgb(0,0,0)"  stroke-width="2.0"/>
<line x1="572.2" y1="94.0" x2="572.2" y2="66.0" opacity="1.0" stroke="rgb(0,0,0)"  stroke-width="2.0"/>
<line x1="565.0" y1="60.0" x2="599.6" y2="40.0" opacity="1.0" stroke="rgb(0,0,0)"  stroke-width="2.0"/>
<line x1="599.6" y1="40.0" x2="634.3" y2="60.0" opacity="1.0" stroke="rgb(0,0,0)"  stroke-width="2.0"/>
<line x1="634.3" y1="60.0" x2="634.3" y2="100.0" opacity="1.0" stroke="rgb(0,0,0)"  stroke-width="2.0"/>
<line x1="634.3" y1="100.0" x2="599.6" y2="120.0" opacity="1.0" stroke="rgb(0,0,0)"  stroke-width="2.0"/>
<text x="68.641016" y="148.000000" fill="rgb(12,12,255)" stroke-width="0" font-weight="bold" font-size="16" >N</text>
<text x="68.641016" y="108.000000" fill="rgb(255,12,12)" stroke-width="0" font-weight="bold" font-size="16" >O</text>
<text x="34.000000" y="168.000000" fill="rgb(255,12,12)" stroke-width="0" font-weight="bold" font-size="16" >O</text>
<text x="287.287113" y="215.968000" fill="rgb(255,12,12)" stroke-width="0" font-weight="bold" font-size="16" ></text>
<text x="287.287113" y="215.968000" fill="rgb(255,12,12)" stroke-width="0" font-weight="bold" font-size="32" >.</text>
<text x="276.487113" y="228.000000" fill="rgb(255,12,12)" stroke-width="0" font-weight="bold" font-size="16" >O</text>
<text x="662.897275" y="48.000000" fill="rgb(255,12,12)" stroke-width="0" font-weight="bold" font-size="16" >O</text>
<text x="639.056258" y="95.968000" fill="rgb(102,102,102)" stroke-width="0" font-weight="bold" font-size="16" ></text>
<text x="639.056258" y="95.968000" fill="rgb(102,102,102)" stroke-width="0" font-weight="bold" font-size="32" >.</text>
<text x="604.415242" y="115.968000" fill="rgb(102,102,102)" stroke-width="0" font-weight="bold" font-size="16" ></text>
<text x="604.415242" y="115.968000" fill="rgb(102,102,102)" stroke-width="0" font-weight="bold" font-size="32" >.</text>
<text x="604.415242" y="35.968000" fill="rgb(102,102,102)" stroke-width="0" font-weight="bold" font-size="16" ></text>
<text x="604.415242" y="35.968000" fill="rgb(102,102,102)" stroke-width="0" font-weight="bold" font-size="32" >.</text>
<text x="524.333210" y="128.000000" fill="rgb(12,12,255)" stroke-width="0" font-weight="bold" font-size="16" >N</text>
<text x="489.692194" y="108.000000" fill="rgb(255,12,12)" stroke-width="0" font-weight="bold" font-size="16" >O</text>
<text x="351.128129" y="188.000000" fill="rgb(12,12,255)" stroke-width="0" font-weight="bold" font-size="16" >N</text>
<text x="316.487113" y="168.000000" fill="rgb(255,12,12)" stroke-width="0" font-weight="bold" font-size="16" >O</text>
<text x="351.128129" y="228.000000" fill="rgb(255,12,12)" stroke-width="0" font-weight="bold" font-size="16" >O</text>
<text x="535.133210" y="155.968000" fill="rgb(255,12,12)" stroke-width="0" font-weight="bold" font-size="16" ></text>
<text x="535.133210" y="155.968000" fill="rgb(255,12,12)" stroke-width="0" font-weight="bold" font-size="32" >.</text>
<text x="524.333210" y="168.000000" fill="rgb(255,12,12)" stroke-width="0" font-weight="bold" font-size="16" >O</text>
<text x="44.800000" y="375.968000" fill="rgb(102,102,102)" stroke-width="0" font-weight="bold" font-size="16" ></text>
<text x="44.800000" y="375.968000" fill="rgb(102,102,102)" stroke-width="0" font-weight="bold" font-size="32" >.</text>
<text x="44.800000" y="335.968000" fill="rgb(102,102,102)" stroke-width="0" font-weight="bold" font-size="16" ></text>
<text x="44.800000" y="335.968000" fill="rgb(102,102,102)" stroke-width="0" font-weight="bold" font-size="32" >.</text>
<text x="79.441016" y="315.968000" fill="rgb(102,102,102)" stroke-width="0" font-weight="bold" font-size="16" ></text>
<text x="79.441016" y="315.968000" fill="rgb(102,102,102)" stroke-width="0" font-weight="bold" font-size="32" >.</text>
<text x="114.082032" y="335.968000" fill="rgb(102,102,102)" stroke-width="0" font-weight="bold" font-size="16" ></text>
<text x="114.082032" y="335.968000" fill="rgb(102,102,102)" stroke-width="0" font-weight="bold" font-size="32" >.</text>
<text x="114.082032" y="375.968000" fill="rgb(102,102,102)" stroke-width="0" font-weight="bold" font-size="16" ></text>
<text x="114.082032" y="375.968000" fill="rgb(102,102,102)" stroke-width="0" font-weight="bold" font-size="32" >.</text>
<text x="68.641016" y="288.000000" fill="rgb(12,12,255)" stroke-width="0" font-weight="bold" font-size="16" >N</text>
<text x="103.282032" y="268.000000" fill="rgb(255,12,12)" stroke-width="0" font-weight="bold" font-size="16" >O</text>
<text x="68.641016" y="448.000000" fill="rgb(255,12,12)" stroke-width="0" font-weight="bold" font-size="16" >O</text>
<text x="241.846097" y="348.000000" fill="rgb(12,12,255)" stroke-width="0" font-weight="bold" font-size="16" >N</text>
<text x="241.846097" y="388.000000" fill="rgb(255,12,12)" stroke-width="0" font-weight="bold" font-size="16" >O</text>
<text x="276.487113" y="328.000000" fill="rgb(255,12,12)" stroke-width="0" font-weight="bold" font-size="16" >O</text>
<text x="44.800000" y="255.968000" fill="rgb(255,12,12)" stroke-width="0" font-weight="bold" font-size="16" ></text>
<text x="44.800000" y="255.968000" fill="rgb(255,12,12)" stroke-width="0" font-weight="bold" font-size="32" >.</text>
<text x="34.000000" y="268.000000" fill="rgb(255,12,12)" stroke-width="0" font-weight="bold" font-size="16" >O</text>
<text x="252.646097" y="35.968000" fill="rgb(255,12,12)" stroke-width="0" font-weight="bold" font-size="16" ></text>
<text x="252.646097" y="35.968000" fill="rgb(255,12,12)" stroke-width="0" font-weight="bold" font-size="32" >.</text>
<text x="241.846097" y="48.000000" fill="rgb(255,12,12)" stroke-width="0" font-weight="bold" font-size="16" >O</text>
<text x="252.646097" y="75.968000" fill="rgb(102,102,102)" stroke-width="0" font-weight="bold" font-size="16" ></text>
<text x="252.646097" y="75.968000" fill="rgb(102,102,102)" stroke-width="0" font-weight="bold" font-size="32" >.</text>
<text x="287.287113" y="95.968000" fill="rgb(102,102,102)" stroke-width="0" font-weight="bold" font-size="16" ></text>
<text x="287.287113" y="95.968000" fill="rgb(102,102,102)" stroke-width="0" font-weight="bold" font-size="32" >.</text>
<text x="287.287113" y="135.968000" fill="rgb(102,102,102)" stroke-width="0" font-weight="bold" font-size="16" ></text>
<text x="287.287113" y="135.968000" fill="rgb(102,102,102)" stroke-width="0" font-weight="bold" font-size="32" >.</text>
<text x="218.005081" y="95.968000" fill="rgb(102,102,102)" stroke-width="0" font-weight="bold" font-size="16" ></text>
<text x="218.005081" y="95.968000" fill="rgb(102,102,102)" stroke-width="0" font-weight="bold" font-size="32" >.</text>
<text x="241.846097" y="208.000000" fill="rgb(12,12,255)" stroke-width="0" font-weight="bold" font-size="16" >N</text>
<text x="207.205081" y="228.000000" fill="rgb(255,12,12)" stroke-width="0" font-weight="bold" font-size="16" >O</text>
</svg>
</g>
<text font-size="18.000000" fill ="black" font-family="sans-serif"
x="10.000000" y="20.000000" ></text>
</svg>
