<?xml version="1.0"?>
<svg version="1.1" id="topsvg"
xmlns="http://www.w3.org/2000/svg" xmlns:xlink="http://www.w3.org/1999/xlink"
xmlns:cml="http://www.xml-cml.org/schema" x="0" y="0" width="585.1495535331118px" height="585.1495535331118px" viewBox="0 0 100 100">
<title> - Open Babel Depiction</title>
<rect x="0" y="0" width="100" height="100" fill="white"/>
<g transform="translate(0,0)">
<svg width="100" height="100" x="0" y="0" viewBox="0 0 696.679 424.979"
font-family="sans-serif" stroke="rgb(0,0,0)" stroke-width="2"  stroke-linecap="round">
<line x1="217.5" y1="61.2" x2="231.2" y2="64.1" opacity="1.0" stroke="rgb(0,0,0)"  stroke-width="2.0"/>
<line x1="216.3" y1="67.0" x2="230.0" y2="70.0" opacity="1.0" stroke="rgb(0,0,0)"  stroke-width="2.0"/>
<line x1="249.8" y1="58.1" x2="259.1" y2="47.7" opacity="1.0" stroke="rgb(0,0,0)"  stroke-width="2.0"/>
<line x1="254.2" y1="62.1" x2="263.6" y2="51.7" opacity="1.0" stroke="rgb(0,0,0)"  stroke-width="2.0"/>
<line x1="247.3" y1="82.1" x2="255.7" y2="107.8" opacity="1.0" stroke="rgb(0,0,0)"  stroke-width="2.0"/>
<line x1="433.1" y1="373.3" x2="442.5" y2="362.9" opacity="1.0" stroke="rgb(0,0,0)"  stroke-width="2.0"/>
<line x1="437.5" y1="377.3" x2="446.9" y2="366.9" opacity="1.0" stroke="rgb(0,0,0)"  stroke-width="2.0"/>
<line x1="466.7" y1="355.0" x2="480.4" y2="357.9" opacity="1.0" stroke="rgb(0,0,0)"  stroke-width="2.0"/>
<line x1="465.5" y1="360.9" x2="479.2" y2="363.8" opacity="1.0" stroke="rgb(0,0,0)"  stroke-width="2.0"/>
<line x1="449.4" y1="342.9" x2="441.0" y2="317.2" opacity="1.0" stroke="rgb(0,0,0)"  stroke-width="2.0"/>
<line x1="104.7" y1="160.8" x2="114.1" y2="150.4" opacity="1.0" stroke="rgb(0,0,0)"  stroke-width="2.0"/>
<line x1="109.2" y1="164.8" x2="118.6" y2="154.4" opacity="1.0" stroke="rgb(0,0,0)"  stroke-width="2.0"/>
<line x1="138.4" y1="142.5" x2="152.1" y2="145.4" opacity="1.0" stroke="rgb(0,0,0)"  stroke-width="2.0"/>
<line x1="137.1" y1="148.4" x2="150.8" y2="151.3" opacity="1.0" stroke="rgb(0,0,0)"  stroke-width="2.0"/>
<line x1="121.0" y1="130.4" x2="112.7" y2="104.7" opacity="1.0" stroke="rgb(0,0,0)"  stroke-width="2.0"/>
<line x1="433.1" y1="160.8" x2="442.5" y2="150.4" opacity="1.0" stroke="rgb(0,0,0)"  stroke-width="2.0"/>
<line x1="437.5" y1="164.8" x2="446.9" y2="154.4" opacity="1.0" stroke="rgb(0,0,0)"  stroke-width="2.0"/>
<line x1="466.7" y1="142.5" x2="480.4" y2="145.4" opacity="1.0" stroke="rgb(0,0,0)"  stroke-width="2.0"/>
<line x1="465.5" y1="148.4" x2="479.2" y2="151.3" opacity="1.0" stroke="rgb(0,0,0)"  stroke-width="2.0"/>
<line x1="449.4" y1="130.4" x2="441.0" y2="104.7" opacity="1.0" stroke="rgb(0,0,0)"  stroke-width="2.0"/>
<line x1="104.7" y1="333.3" x2="114.1" y2="322.9" opacity="1.0" stroke="rgb(0,0,0)"  stroke-width="2.0"/>
<line x1="109.2" y1="337.3" x2="118.6" y2="326.9" opacity="1.0" stroke="rgb(0,0,0)"  stroke-width="2.0"/>
<line x1="138.4" y1="315.0" x2="152.1" y2="317.9" opacity="1.0" stroke="rgb(0,0,0)"  stroke-width="2.0"/>
<line x1="137.1" y1="320.9" x2="150.8" y2="323.8" opacity="1.0" stroke="rgb(0,0,0)"  stroke-width="2.0"/>
<line x1="121.0" y1="302.9" x2="112.7" y2="277.2" opacity="1.0" stroke="rgb(0,0,0)"  stroke-width="2.0"/>
<line x1="597.3" y1="160.8" x2="606.6" y2="150.4" opacity="1.0" stroke="rgb(0,0,0)"  stroke-width="2.0"/>
<line x1="601.7" y1="164.8" x2="611.1" y2="154.4" opacity="1.0" stroke="rgb(0,0,0)"  stroke-width="2.0"/>
<line x1="630.9" y1="142.5" x2="644.6" y2="145.4" opacity="1.0" stroke="rgb(0,0,0)"  stroke-width="2.0"/>
<line x1="629.6" y1="148.4" x2="643.3" y2="151.3" opacity="1.0" stroke="rgb(0,0,0)"  stroke-width="2.0"/>
<line x1="613.5" y1="130.4" x2="605.2" y2="104.7" opacity="1.0" stroke="rgb(0,0,0)"  stroke-width="2.0"/>
<line x1="559.8" y1="89.1" x2="560.6" y2="87.7" opacity="1.0" stroke="rgb(0,0,0)"  stroke-width="1.0"/>
<line x1="554.0" y1="86.4" x2="555.4" y2="83.9" opacity="1.0" stroke="rgb(0,0,0)"  stroke-width="1.0"/>
<line x1="548.1" y1="83.8" x2="550.2" y2="80.2" opacity="1.0" stroke="rgb(0,0,0)"  stroke-width="1.0"/>
<line x1="542.2" y1="81.1" x2="545.0" y2="76.4" opacity="1.0" stroke="rgb(0,0,0)"  stroke-width="1.0"/>
<line x1="536.4" y1="78.5" x2="539.7" y2="72.7" opacity="1.0" stroke="rgb(0,0,0)"  stroke-width="1.0"/>
<line x1="530.5" y1="75.8" x2="534.5" y2="68.9" opacity="1.0" stroke="rgb(0,0,0)"  stroke-width="1.0"/>
<line x1="597.3" y1="373.3" x2="606.6" y2="362.9" opacity="1.0" stroke="rgb(0,0,0)"  stroke-width="2.0"/>
<line x1="601.7" y1="377.3" x2="611.1" y2="366.9" opacity="1.0" stroke="rgb(0,0,0)"  stroke-width="2.0"/>
<line x1="630.9" y1="355.0" x2="644.6" y2="357.9" opacity="1.0" stroke="rgb(0,0,0)"  stroke-width="2.0"/>
<line x1="629.6" y1="360.9" x2="643.3" y2="363.8" opacity="1.0" stroke="rgb(0,0,0)"  stroke-width="2.0"/>
<line x1="613.5" y1="342.9" x2="605.2" y2="317.2" opacity="1.0" stroke="rgb(0,0,0)"  stroke-width="2.0"/>
<polygon points="567.150598 304.850093 530.509582 288.314195 534.509582 281.385991 " stroke-width="2.000000" fill="rgb(0,0,0)"  stroke="rgb(0,0,0)" />
<line x1="328.3" y1="140.1" x2="293.7" y2="120.1" opacity="1.0" stroke="rgb(0,0,0)"  stroke-width="2.0"/>
<line x1="293.7" y1="120.1" x2="293.7" y2="160.1" opacity="1.0" stroke="rgb(0,0,0)"  stroke-width="2.0"/>
<line x1="293.7" y1="160.1" x2="328.3" y2="140.1" opacity="1.0" stroke="rgb(0,0,0)"  stroke-width="2.0"/>
<line x1="295.3" y1="150.9" x2="319.5" y2="136.9" opacity="1.0" stroke="rgb(0,0,0)"  stroke-width="2.0"/>
<line x1="368.3" y1="284.9" x2="403.0" y2="304.9" opacity="1.0" stroke="rgb(0,0,0)"  stroke-width="2.0"/>
<line x1="403.0" y1="304.9" x2="403.0" y2="264.9" opacity="1.0" stroke="rgb(0,0,0)"  stroke-width="2.0"/>
<line x1="403.0" y1="264.9" x2="368.3" y2="284.9" opacity="1.0" stroke="rgb(0,0,0)"  stroke-width="2.0"/>
<line x1="40.0" y1="72.4" x2="74.6" y2="92.4" opacity="1.0" stroke="rgb(0,0,0)"  stroke-width="2.0"/>
<line x1="74.6" y1="92.4" x2="74.6" y2="52.4" opacity="1.0" stroke="rgb(0,0,0)"  stroke-width="2.0"/>
<line x1="74.6" y1="52.4" x2="40.0" y2="72.4" opacity="1.0" stroke="rgb(0,0,0)"  stroke-width="2.0"/>
<line x1="368.3" y1="72.4" x2="403.0" y2="92.4" opacity="1.0" stroke="rgb(0,0,0)"  stroke-width="2.0"/>
<line x1="403.0" y1="92.4" x2="403.0" y2="52.4" opacity="1.0" stroke="rgb(0,0,0)"  stroke-width="2.0"/>
<line x1="403.0" y1="52.4" x2="368.3" y2="72.4" opacity="1.0" stroke="rgb(0,0,0)"  stroke-width="2.0"/>
<line x1="40.0" y1="244.9" x2="74.6" y2="264.9" opacity="1.0" stroke="rgb(0,0,0)"  stroke-width="2.0"/>
<line x1="74.6" y1="264.9" x2="74.6" y2="224.9" opacity="1.0" stroke="rgb(0,0,0)"  stroke-width="2.0"/>
<line x1="74.6" y1="224.9" x2="40.0" y2="244.9" opacity="1.0" stroke="rgb(0,0,0)"  stroke-width="2.0"/>
<line x1="532.5" y1="72.4" x2="567.2" y2="92.4" opacity="1.0" stroke="rgb(0,0,0)"  stroke-width="2.0"/>
<line x1="567.2" y1="92.4" x2="567.2" y2="52.4" opacity="1.0" stroke="rgb(0,0,0)"  stroke-width="2.0"/>
<line x1="567.2" y1="52.4" x2="532.5" y2="72.4" opacity="1.0" stroke="rgb(0,0,0)"  stroke-width="2.0"/>
<line x1="532.5" y1="284.9" x2="567.2" y2="304.9" opacity="1.0" stroke="rgb(0,0,0)"  stroke-width="2.0"/>
<line x1="567.2" y1="304.9" x2="567.2" y2="264.9" opacity="1.0" stroke="rgb(0,0,0)"  stroke-width="2.0"/>
<line x1="567.2" y1="264.9" x2="532.5" y2="284.9" opacity="1.0" stroke="rgb(0,0,0)"  stroke-width="2.0"/>
<line x1="255.7" y1="172.5" x2="293.7" y2="160.1" opacity="1.0" stroke="rgb(0,0,0)"  stroke-width="2.0"/>
<line x1="293.7" y1="120.1" x2="255.7" y2="107.8" opacity="1.0" stroke="rgb(0,0,0)"  stroke-width="2.0"/>
<line x1="255.7" y1="107.8" x2="232.1" y2="140.1" opacity="1.0" stroke="rgb(0,0,0)"  stroke-width="2.0"/>
<line x1="258.0" y1="116.9" x2="241.5" y2="139.5" opacity="1.0" stroke="rgb(0,0,0)"  stroke-width="2.0"/>
<line x1="232.1" y1="140.1" x2="255.7" y2="172.5" opacity="1.0" stroke="rgb(0,0,0)"  stroke-width="2.0"/>
<line x1="441.0" y1="252.5" x2="403.0" y2="264.9" opacity="1.0" stroke="rgb(0,0,0)"  stroke-width="2.0"/>
<line x1="437.5" y1="261.2" x2="410.9" y2="269.8" opacity="1.0" stroke="rgb(0,0,0)"  stroke-width="2.0"/>
<line x1="403.0" y1="304.9" x2="441.0" y2="317.2" opacity="1.0" stroke="rgb(0,0,0)"  stroke-width="2.0"/>
<line x1="441.0" y1="317.2" x2="464.5" y2="284.9" opacity="1.0" stroke="rgb(0,0,0)"  stroke-width="2.0"/>
<line x1="464.5" y1="284.9" x2="441.0" y2="252.5" opacity="1.0" stroke="rgb(0,0,0)"  stroke-width="2.0"/>
<line x1="112.7" y1="40.0" x2="74.6" y2="52.4" opacity="1.0" stroke="rgb(0,0,0)"  stroke-width="2.0"/>
<line x1="74.6" y1="92.4" x2="112.7" y2="104.7" opacity="1.0" stroke="rgb(0,0,0)"  stroke-width="2.0"/>
<line x1="112.7" y1="104.7" x2="136.2" y2="72.4" opacity="1.0" stroke="rgb(0,0,0)"  stroke-width="2.0"/>
<line x1="110.4" y1="95.6" x2="126.8" y2="73.0" opacity="1.0" stroke="rgb(0,0,0)"  stroke-width="2.0"/>
<line x1="136.2" y1="72.4" x2="112.7" y2="40.0" opacity="1.0" stroke="rgb(0,0,0)"  stroke-width="2.0"/>
<line x1="441.0" y1="40.0" x2="403.0" y2="52.4" opacity="1.0" stroke="rgb(0,0,0)"  stroke-width="2.0"/>
<line x1="403.0" y1="92.4" x2="441.0" y2="104.7" opacity="1.0" stroke="rgb(0,0,0)"  stroke-width="2.0"/>
<line x1="441.0" y1="104.7" x2="464.5" y2="72.4" opacity="1.0" stroke="rgb(0,0,0)"  stroke-width="2.0"/>
<line x1="464.5" y1="72.4" x2="441.0" y2="40.0" opacity="1.0" stroke="rgb(0,0,0)"  stroke-width="2.0"/>
<line x1="112.7" y1="212.5" x2="74.6" y2="224.9" opacity="1.0" stroke="rgb(0,0,0)"  stroke-width="2.0"/>
<line x1="74.6" y1="264.9" x2="112.7" y2="277.2" opacity="1.0" stroke="rgb(0,0,0)"  stroke-width="2.0"/>
<line x1="112.7" y1="277.2" x2="136.2" y2="244.9" opacity="1.0" stroke="rgb(0,0,0)"  stroke-width="2.0"/>
<line x1="136.2" y1="244.9" x2="112.7" y2="212.5" opacity="1.0" stroke="rgb(0,0,0)"  stroke-width="2.0"/>
<line x1="126.8" y1="244.2" x2="110.4" y2="221.6" opacity="1.0" stroke="rgb(0,0,0)"  stroke-width="2.0"/>
<line x1="605.2" y1="40.0" x2="567.2" y2="52.4" opacity="1.0" stroke="rgb(0,0,0)"  stroke-width="2.0"/>
<line x1="567.2" y1="92.4" x2="605.2" y2="104.7" opacity="1.0" stroke="rgb(0,0,0)"  stroke-width="2.0"/>
<line x1="605.2" y1="104.7" x2="628.7" y2="72.4" opacity="1.0" stroke="rgb(0,0,0)"  stroke-width="2.0"/>
<line x1="628.7" y1="72.4" x2="605.2" y2="40.0" opacity="1.0" stroke="rgb(0,0,0)"  stroke-width="2.0"/>
<line x1="605.2" y1="252.5" x2="567.2" y2="264.9" opacity="1.0" stroke="rgb(0,0,0)"  stroke-width="2.0"/>
<line x1="567.2" y1="304.9" x2="605.2" y2="317.2" opacity="1.0" stroke="rgb(0,0,0)"  stroke-width="2.0"/>
<line x1="605.2" y1="317.2" x2="628.7" y2="284.9" opacity="1.0" stroke="rgb(0,0,0)"  stroke-width="2.0"/>
<line x1="628.7" y1="284.9" x2="605.2" y2="252.5" opacity="1.0" stroke="rgb(0,0,0)"  stroke-width="2.0"/>
<text x="650.679442" y="159.080088" fill="rgb(255,12,12)" stroke-width="0" font-weight="bold" font-size="16" >O</text>
<text x="445.822998" y="35.968000" fill="rgb(102,102,102)" stroke-width="0" font-weight="bold" font-size="16" ></text>
<text x="445.822998" y="35.968000" fill="rgb(102,102,102)" stroke-width="0" font-weight="bold" font-size="32" >.</text>
<text x="407.780737" y="48.328680" fill="rgb(102,102,102)" stroke-width="0" font-weight="bold" font-size="16" ></text>
<text x="407.780737" y="48.328680" fill="rgb(102,102,102)" stroke-width="0" font-weight="bold" font-size="32" >.</text>
<text x="407.780737" y="88.328680" fill="rgb(102,102,102)" stroke-width="0" font-weight="bold" font-size="16" ></text>
<text x="407.780737" y="88.328680" fill="rgb(102,102,102)" stroke-width="0" font-weight="bold" font-size="32" >.</text>
<text x="373.139721" y="68.328680" fill="rgb(102,102,102)" stroke-width="0" font-weight="bold" font-size="16" ></text>
<text x="373.139721" y="68.328680" fill="rgb(102,102,102)" stroke-width="0" font-weight="bold" font-size="32" >.</text>
<text x="92.278732" y="352.978826" fill="rgb(255,12,12)" stroke-width="0" font-weight="bold" font-size="16" >O</text>
<text x="119.043957" y="323.253033" fill="rgb(12,12,255)" stroke-width="0" font-weight="bold" font-size="16" >N</text>
<text x="158.169861" y="331.569501" fill="rgb(255,12,12)" stroke-width="0" font-weight="bold" font-size="16" >O</text>
<text x="117.483277" y="273.178773" fill="rgb(102,102,102)" stroke-width="0" font-weight="bold" font-size="16" ></text>
<text x="117.483277" y="273.178773" fill="rgb(102,102,102)" stroke-width="0" font-weight="bold" font-size="32" >.</text>
<text x="79.441016" y="220.818093" fill="rgb(102,102,102)" stroke-width="0" font-weight="bold" font-size="16" ></text>
<text x="79.441016" y="220.818093" fill="rgb(102,102,102)" stroke-width="0" font-weight="bold" font-size="32" >.</text>
<text x="79.441016" y="260.818093" fill="rgb(102,102,102)" stroke-width="0" font-weight="bold" font-size="16" ></text>
<text x="79.441016" y="260.818093" fill="rgb(102,102,102)" stroke-width="0" font-weight="bold" font-size="32" >.</text>
<text x="44.800000" y="240.818093" fill="rgb(102,102,102)" stroke-width="0" font-weight="bold" font-size="16" ></text>
<text x="44.800000" y="240.818093" fill="rgb(102,102,102)" stroke-width="0" font-weight="bold" font-size="32" >.</text>
<text x="584.788314" y="180.489413" fill="rgb(255,12,12)" stroke-width="0" font-weight="bold" font-size="16" >O</text>
<text x="611.553538" y="150.763620" fill="rgb(12,12,255)" stroke-width="0" font-weight="bold" font-size="16" >N</text>
<text x="469.334408" y="68.328680" fill="rgb(102,102,102)" stroke-width="0" font-weight="bold" font-size="16" ></text>
<text x="469.334408" y="68.328680" fill="rgb(102,102,102)" stroke-width="0" font-weight="bold" font-size="32" >.</text>
<text x="609.992859" y="100.689360" fill="rgb(102,102,102)" stroke-width="0" font-weight="bold" font-size="16" ></text>
<text x="609.992859" y="100.689360" fill="rgb(102,102,102)" stroke-width="0" font-weight="bold" font-size="32" >.</text>
<text x="633.504269" y="68.328680" fill="rgb(102,102,102)" stroke-width="0" font-weight="bold" font-size="16" ></text>
<text x="633.504269" y="68.328680" fill="rgb(102,102,102)" stroke-width="0" font-weight="bold" font-size="32" >.</text>
<text x="609.992859" y="35.968000" fill="rgb(102,102,102)" stroke-width="0" font-weight="bold" font-size="16" ></text>
<text x="609.992859" y="35.968000" fill="rgb(102,102,102)" stroke-width="0" font-weight="bold" font-size="32" >.</text>
<text x="571.950598" y="48.328680" fill="rgb(102,102,102)" stroke-width="0" font-weight="bold" font-size="16" ></text>
<text x="571.950598" y="48.328680" fill="rgb(102,102,102)" stroke-width="0" font-weight="bold" font-size="32" >.</text>
<text x="537.309582" y="68.328680" fill="rgb(102,102,102)" stroke-width="0" font-weight="bold" font-size="16" ></text>
<text x="537.309582" y="68.328680" fill="rgb(102,102,102)" stroke-width="0" font-weight="bold" font-size="32" >.</text>
<text x="584.788314" y="392.978826" fill="rgb(255,12,12)" stroke-width="0" font-weight="bold" font-size="16" >O</text>
<text x="611.553538" y="363.253033" fill="rgb(12,12,255)" stroke-width="0" font-weight="bold" font-size="16" >N</text>
<text x="650.679442" y="371.569501" fill="rgb(255,12,12)" stroke-width="0" font-weight="bold" font-size="16" >O</text>
<text x="609.992859" y="313.178773" fill="rgb(102,102,102)" stroke-width="0" font-weight="bold" font-size="16" ></text>
<text x="609.992859" y="313.178773" fill="rgb(102,102,102)" stroke-width="0" font-weight="bold" font-size="32" >.</text>
<text x="633.504269" y="280.818093" fill="rgb(102,102,102)" stroke-width="0" font-weight="bold" font-size="16" ></text>
<text x="633.504269" y="280.818093" fill="rgb(102,102,102)" stroke-width="0" font-weight="bold" font-size="32" >.</text>
<text x="609.992859" y="248.457413" fill="rgb(102,102,102)" stroke-width="0" font-weight="bold" font-size="16" ></text>
<text x="609.992859" y="248.457413" fill="rgb(102,102,102)" stroke-width="0" font-weight="bold" font-size="32" >.</text>
<text x="571.950598" y="260.818093" fill="rgb(102,102,102)" stroke-width="0" font-weight="bold" font-size="16" ></text>
<text x="571.950598" y="260.818093" fill="rgb(102,102,102)" stroke-width="0" font-weight="bold" font-size="32" >.</text>
<text x="537.309582" y="280.818093" fill="rgb(102,102,102)" stroke-width="0" font-weight="bold" font-size="16" ></text>
<text x="537.309582" y="280.818093" fill="rgb(102,102,102)" stroke-width="0" font-weight="bold" font-size="32" >.</text>
<text x="407.780737" y="300.818093" fill="rgb(102,102,102)" stroke-width="0" font-weight="bold" font-size="16" ></text>
<text x="407.780737" y="300.818093" fill="rgb(102,102,102)" stroke-width="0" font-weight="bold" font-size="32" >.</text>
<text x="237.295765" y="77.725793" fill="rgb(12,12,255)" stroke-width="0" font-weight="bold" font-size="16" >N</text>
<text x="264.060989" y="48.000000" fill="rgb(255,12,12)" stroke-width="0" font-weight="bold" font-size="16" >O</text>
<text x="260.456444" y="168.457413" fill="rgb(102,102,102)" stroke-width="0" font-weight="bold" font-size="16" ></text>
<text x="260.456444" y="168.457413" fill="rgb(102,102,102)" stroke-width="0" font-weight="bold" font-size="32" >.</text>
<text x="298.498705" y="116.096733" fill="rgb(102,102,102)" stroke-width="0" font-weight="bold" font-size="16" ></text>
<text x="298.498705" y="116.096733" fill="rgb(102,102,102)" stroke-width="0" font-weight="bold" font-size="32" >.</text>
<text x="420.618454" y="392.978826" fill="rgb(255,12,12)" stroke-width="0" font-weight="bold" font-size="16" >O</text>
<text x="447.383678" y="363.253033" fill="rgb(12,12,255)" stroke-width="0" font-weight="bold" font-size="16" >N</text>
<text x="486.509582" y="371.569501" fill="rgb(255,12,12)" stroke-width="0" font-weight="bold" font-size="16" >O</text>
<text x="445.822998" y="313.178773" fill="rgb(102,102,102)" stroke-width="0" font-weight="bold" font-size="16" ></text>
<text x="445.822998" y="313.178773" fill="rgb(102,102,102)" stroke-width="0" font-weight="bold" font-size="32" >.</text>
<text x="469.334408" y="280.818093" fill="rgb(102,102,102)" stroke-width="0" font-weight="bold" font-size="16" ></text>
<text x="469.334408" y="280.818093" fill="rgb(102,102,102)" stroke-width="0" font-weight="bold" font-size="32" >.</text>
<text x="198.169861" y="69.409325" fill="rgb(255,12,12)" stroke-width="0" font-weight="bold" font-size="16" >O</text>
<text x="373.139721" y="280.818093" fill="rgb(102,102,102)" stroke-width="0" font-weight="bold" font-size="16" ></text>
<text x="373.139721" y="280.818093" fill="rgb(102,102,102)" stroke-width="0" font-weight="bold" font-size="32" >.</text>
<text x="92.278732" y="180.489413" fill="rgb(255,12,12)" stroke-width="0" font-weight="bold" font-size="16" >O</text>
<text x="119.043957" y="150.763620" fill="rgb(12,12,255)" stroke-width="0" font-weight="bold" font-size="16" >N</text>
<text x="158.169861" y="159.080088" fill="rgb(255,12,12)" stroke-width="0" font-weight="bold" font-size="16" >O</text>
<text x="117.483277" y="35.968000" fill="rgb(102,102,102)" stroke-width="0" font-weight="bold" font-size="16" ></text>
<text x="117.483277" y="35.968000" fill="rgb(102,102,102)" stroke-width="0" font-weight="bold" font-size="32" >.</text>
<text x="79.441016" y="48.328680" fill="rgb(102,102,102)" stroke-width="0" font-weight="bold" font-size="16" ></text>
<text x="79.441016" y="48.328680" fill="rgb(102,102,102)" stroke-width="0" font-weight="bold" font-size="32" >.</text>
<text x="79.441016" y="88.328680" fill="rgb(102,102,102)" stroke-width="0" font-weight="bold" font-size="16" ></text>
<text x="79.441016" y="88.328680" fill="rgb(102,102,102)" stroke-width="0" font-weight="bold" font-size="32" >.</text>
<text x="44.800000" y="68.328680" fill="rgb(102,102,102)" stroke-width="0" font-weight="bold" font-size="16" ></text>
<text x="44.800000" y="68.328680" fill="rgb(102,102,102)" stroke-width="0" font-weight="bold" font-size="32" >.</text>
<text x="420.618454" y="180.489413" fill="rgb(255,12,12)" stroke-width="0" font-weight="bold" font-size="16" >O</text>
<text x="447.383678" y="150.763620" fill="rgb(12,12,255)" stroke-width="0" font-weight="bold" font-size="16" >N</text>
<text x="486.509582" y="159.080088" fill="rgb(255,12,12)" stroke-width="0" font-weight="bold" font-size="16" >O</text>
<text x="445.822998" y="100.689360" fill="rgb(102,102,102)" stroke-width="0" font-weight="bold" font-size="16" ></text>
<text x="445.822998" y="100.689360" fill="rgb(102,102,102)" stroke-width="0" font-weight="bold" font-size="32" >.</text>
</svg>
</g>
<text font-size="18.000000" fill ="black" font-family="sans-serif"
x="10.000000" y="20.000000" ></text>
</svg>
