<?xml version="1.0" encoding="utf-8" standalone="no"?>
<!DOCTYPE svg PUBLIC "-//W3C//DTD SVG 1.1//EN"
  "http://www.w3.org/Graphics/SVG/1.1/DTD/svg11.dtd">
<svg xmlns:xlink="http://www.w3.org/1999/xlink" width="420.82625pt" height="310.86825pt" viewBox="0 0 420.82625 310.86825" xmlns="http://www.w3.org/2000/svg" version="1.1">
 <metadata>
  <rdf:RDF xmlns:dc="http://purl.org/dc/elements/1.1/" xmlns:cc="http://creativecommons.org/ns#" xmlns:rdf="http://www.w3.org/1999/02/22-rdf-syntax-ns#">
   <cc:Work>
    <dc:type rdf:resource="http://purl.org/dc/dcmitype/StillImage"/>
    <dc:date>2023-10-13T21:53:15.862747</dc:date>
    <dc:format>image/svg+xml</dc:format>
    <dc:creator>
     <cc:Agent>
      <dc:title>Matplotlib v3.7.1, https://matplotlib.org/</dc:title>
     </cc:Agent>
    </dc:creator>
   </cc:Work>
  </rdf:RDF>
 </metadata>
 <defs>
  <style type="text/css">*{stroke-linejoin: round; stroke-linecap: butt}</style>
 </defs>
 <g id="figure_1">
  <g id="patch_1">
   <path d="M 0 310.86825 
L 420.82625 310.86825 
L 420.82625 0 
L 0 0 
z
" style="fill: #ffffff"/>
  </g>
  <g id="axes_1">
   <g id="patch_2">
    <path d="M 56.50625 273.312 
L 413.62625 273.312 
L 413.62625 7.2 
L 56.50625 7.2 
z
" style="fill: #ffffff"/>
   </g>
   <g id="PathCollection_1">
    <defs>
     <path id="m3ced813a64" d="M 0 3 
C 0.795609 3 1.55874 2.683901 2.12132 2.12132 
C 2.683901 1.55874 3 0.795609 3 0 
C 3 -0.795609 2.683901 -1.55874 2.12132 -2.12132 
C 1.55874 -2.683901 0.795609 -3 0 -3 
C -0.795609 -3 -1.55874 -2.683901 -2.12132 -2.12132 
C -2.683901 -1.55874 -3 -0.795609 -3 0 
C -3 0.795609 -2.683901 1.55874 -2.12132 2.12132 
C -1.55874 2.683901 -0.795609 3 0 3 
z
" style="stroke: #1f77b4"/>
    </defs>
    <g clip-path="url(#p7bd8d5abc1)">
     <use xlink:href="#m3ced813a64" x="56.50625" y="273.312" style="fill: #1f77b4; stroke: #1f77b4"/>
     <use xlink:href="#m3ced813a64" x="61.46625" y="31.392" style="fill: #1f77b4; stroke: #1f77b4"/>
     <use xlink:href="#m3ced813a64" x="66.42625" y="112.032" style="fill: #1f77b4; stroke: #1f77b4"/>
     <use xlink:href="#m3ced813a64" x="71.38625" y="152.352" style="fill: #1f77b4; stroke: #1f77b4"/>
     <use xlink:href="#m3ced813a64" x="76.34625" y="176.544" style="fill: #1f77b4; stroke: #1f77b4"/>
     <use xlink:href="#m3ced813a64" x="81.30625" y="192.672" style="fill: #1f77b4; stroke: #1f77b4"/>
     <use xlink:href="#m3ced813a64" x="86.26625" y="204.192" style="fill: #1f77b4; stroke: #1f77b4"/>
     <use xlink:href="#m3ced813a64" x="91.22625" y="212.832" style="fill: #1f77b4; stroke: #1f77b4"/>
     <use xlink:href="#m3ced813a64" x="96.18625" y="219.552" style="fill: #1f77b4; stroke: #1f77b4"/>
     <use xlink:href="#m3ced813a64" x="101.14625" y="224.928" style="fill: #1f77b4; stroke: #1f77b4"/>
     <use xlink:href="#m3ced813a64" x="106.10625" y="229.326545" style="fill: #1f77b4; stroke: #1f77b4"/>
     <use xlink:href="#m3ced813a64" x="111.06625" y="232.992" style="fill: #1f77b4; stroke: #1f77b4"/>
     <use xlink:href="#m3ced813a64" x="116.02625" y="236.093538" style="fill: #1f77b4; stroke: #1f77b4"/>
     <use xlink:href="#m3ced813a64" x="120.98625" y="238.752" style="fill: #1f77b4; stroke: #1f77b4"/>
     <use xlink:href="#m3ced813a64" x="125.94625" y="241.056" style="fill: #1f77b4; stroke: #1f77b4"/>
     <use xlink:href="#m3ced813a64" x="130.90625" y="243.072" style="fill: #1f77b4; stroke: #1f77b4"/>
     <use xlink:href="#m3ced813a64" x="135.86625" y="244.850824" style="fill: #1f77b4; stroke: #1f77b4"/>
     <use xlink:href="#m3ced813a64" x="140.82625" y="246.432" style="fill: #1f77b4; stroke: #1f77b4"/>
     <use xlink:href="#m3ced813a64" x="145.78625" y="247.846737" style="fill: #1f77b4; stroke: #1f77b4"/>
     <use xlink:href="#m3ced813a64" x="150.74625" y="249.12" style="fill: #1f77b4; stroke: #1f77b4"/>
     <use xlink:href="#m3ced813a64" x="155.70625" y="250.272" style="fill: #1f77b4; stroke: #1f77b4"/>
     <use xlink:href="#m3ced813a64" x="160.66625" y="251.319273" style="fill: #1f77b4; stroke: #1f77b4"/>
     <use xlink:href="#m3ced813a64" x="165.62625" y="252.275478" style="fill: #1f77b4; stroke: #1f77b4"/>
     <use xlink:href="#m3ced813a64" x="170.58625" y="253.152" style="fill: #1f77b4; stroke: #1f77b4"/>
     <use xlink:href="#m3ced813a64" x="175.54625" y="253.9584" style="fill: #1f77b4; stroke: #1f77b4"/>
     <use xlink:href="#m3ced813a64" x="180.50625" y="254.702769" style="fill: #1f77b4; stroke: #1f77b4"/>
     <use xlink:href="#m3ced813a64" x="185.46625" y="255.392" style="fill: #1f77b4; stroke: #1f77b4"/>
     <use xlink:href="#m3ced813a64" x="190.42625" y="256.032" style="fill: #1f77b4; stroke: #1f77b4"/>
     <use xlink:href="#m3ced813a64" x="195.38625" y="256.627862" style="fill: #1f77b4; stroke: #1f77b4"/>
     <use xlink:href="#m3ced813a64" x="200.34625" y="257.184" style="fill: #1f77b4; stroke: #1f77b4"/>
     <use xlink:href="#m3ced813a64" x="205.30625" y="257.704258" style="fill: #1f77b4; stroke: #1f77b4"/>
     <use xlink:href="#m3ced813a64" x="210.26625" y="258.192" style="fill: #1f77b4; stroke: #1f77b4"/>
     <use xlink:href="#m3ced813a64" x="215.22625" y="258.650182" style="fill: #1f77b4; stroke: #1f77b4"/>
     <use xlink:href="#m3ced813a64" x="220.18625" y="259.081412" style="fill: #1f77b4; stroke: #1f77b4"/>
     <use xlink:href="#m3ced813a64" x="225.14625" y="259.488" style="fill: #1f77b4; stroke: #1f77b4"/>
     <use xlink:href="#m3ced813a64" x="230.10625" y="259.872" style="fill: #1f77b4; stroke: #1f77b4"/>
     <use xlink:href="#m3ced813a64" x="235.06625" y="260.235243" style="fill: #1f77b4; stroke: #1f77b4"/>
     <use xlink:href="#m3ced813a64" x="240.02625" y="260.579368" style="fill: #1f77b4; stroke: #1f77b4"/>
     <use xlink:href="#m3ced813a64" x="244.98625" y="260.905846" style="fill: #1f77b4; stroke: #1f77b4"/>
     <use xlink:href="#m3ced813a64" x="249.94625" y="261.216" style="fill: #1f77b4; stroke: #1f77b4"/>
     <use xlink:href="#m3ced813a64" x="254.90625" y="261.511024" style="fill: #1f77b4; stroke: #1f77b4"/>
     <use xlink:href="#m3ced813a64" x="259.86625" y="261.792" style="fill: #1f77b4; stroke: #1f77b4"/>
     <use xlink:href="#m3ced813a64" x="264.82625" y="262.059907" style="fill: #1f77b4; stroke: #1f77b4"/>
     <use xlink:href="#m3ced813a64" x="269.78625" y="262.315636" style="fill: #1f77b4; stroke: #1f77b4"/>
     <use xlink:href="#m3ced813a64" x="274.74625" y="262.56" style="fill: #1f77b4; stroke: #1f77b4"/>
     <use xlink:href="#m3ced813a64" x="279.70625" y="262.793739" style="fill: #1f77b4; stroke: #1f77b4"/>
     <use xlink:href="#m3ced813a64" x="284.66625" y="263.017532" style="fill: #1f77b4; stroke: #1f77b4"/>
     <use xlink:href="#m3ced813a64" x="289.62625" y="263.232" style="fill: #1f77b4; stroke: #1f77b4"/>
     <use xlink:href="#m3ced813a64" x="294.58625" y="263.437714" style="fill: #1f77b4; stroke: #1f77b4"/>
     <use xlink:href="#m3ced813a64" x="299.54625" y="263.6352" style="fill: #1f77b4; stroke: #1f77b4"/>
     <use xlink:href="#m3ced813a64" x="304.50625" y="263.824941" style="fill: #1f77b4; stroke: #1f77b4"/>
     <use xlink:href="#m3ced813a64" x="309.46625" y="264.007385" style="fill: #1f77b4; stroke: #1f77b4"/>
     <use xlink:href="#m3ced813a64" x="314.42625" y="264.182943" style="fill: #1f77b4; stroke: #1f77b4"/>
     <use xlink:href="#m3ced813a64" x="319.38625" y="264.352" style="fill: #1f77b4; stroke: #1f77b4"/>
     <use xlink:href="#m3ced813a64" x="324.34625" y="264.514909" style="fill: #1f77b4; stroke: #1f77b4"/>
     <use xlink:href="#m3ced813a64" x="329.30625" y="264.672" style="fill: #1f77b4; stroke: #1f77b4"/>
     <use xlink:href="#m3ced813a64" x="334.26625" y="264.823579" style="fill: #1f77b4; stroke: #1f77b4"/>
     <use xlink:href="#m3ced813a64" x="339.22625" y="264.969931" style="fill: #1f77b4; stroke: #1f77b4"/>
     <use xlink:href="#m3ced813a64" x="344.18625" y="265.111322" style="fill: #1f77b4; stroke: #1f77b4"/>
     <use xlink:href="#m3ced813a64" x="349.14625" y="265.248" style="fill: #1f77b4; stroke: #1f77b4"/>
     <use xlink:href="#m3ced813a64" x="354.10625" y="265.380197" style="fill: #1f77b4; stroke: #1f77b4"/>
     <use xlink:href="#m3ced813a64" x="359.06625" y="265.508129" style="fill: #1f77b4; stroke: #1f77b4"/>
     <use xlink:href="#m3ced813a64" x="364.02625" y="265.632" style="fill: #1f77b4; stroke: #1f77b4"/>
     <use xlink:href="#m3ced813a64" x="368.98625" y="265.752" style="fill: #1f77b4; stroke: #1f77b4"/>
     <use xlink:href="#m3ced813a64" x="373.94625" y="265.868308" style="fill: #1f77b4; stroke: #1f77b4"/>
     <use xlink:href="#m3ced813a64" x="378.90625" y="265.981091" style="fill: #1f77b4; stroke: #1f77b4"/>
     <use xlink:href="#m3ced813a64" x="383.86625" y="266.090507" style="fill: #1f77b4; stroke: #1f77b4"/>
     <use xlink:href="#m3ced813a64" x="388.82625" y="266.196706" style="fill: #1f77b4; stroke: #1f77b4"/>
     <use xlink:href="#m3ced813a64" x="393.78625" y="266.299826" style="fill: #1f77b4; stroke: #1f77b4"/>
     <use xlink:href="#m3ced813a64" x="398.74625" y="266.4" style="fill: #1f77b4; stroke: #1f77b4"/>
     <use xlink:href="#m3ced813a64" x="403.70625" y="266.497352" style="fill: #1f77b4; stroke: #1f77b4"/>
     <use xlink:href="#m3ced813a64" x="408.66625" y="266.592" style="fill: #1f77b4; stroke: #1f77b4"/>
    </g>
   </g>
   <g id="matplotlib.axis_1">
    <g id="xtick_1">
     <g id="line2d_1">
      <defs>
       <path id="mdd5437181b" d="M 0 0 
L 0 3.5 
" style="stroke: #000000; stroke-width: 0.8"/>
      </defs>
      <g>
       <use xlink:href="#mdd5437181b" x="56.50625" y="273.312" style="stroke: #000000; stroke-width: 0.8"/>
      </g>
     </g>
     <g id="text_1">
      <!-- 0.0 -->
      <g transform="translate(48.554688 287.910437) scale(0.1 -0.1)">
       <defs>
        <path id="DejaVuSans-30" d="M 2034 4250 
Q 1547 4250 1301 3770 
Q 1056 3291 1056 2328 
Q 1056 1369 1301 889 
Q 1547 409 2034 409 
Q 2525 409 2770 889 
Q 3016 1369 3016 2328 
Q 3016 3291 2770 3770 
Q 2525 4250 2034 4250 
z
M 2034 4750 
Q 2819 4750 3233 4129 
Q 3647 3509 3647 2328 
Q 3647 1150 3233 529 
Q 2819 -91 2034 -91 
Q 1250 -91 836 529 
Q 422 1150 422 2328 
Q 422 3509 836 4129 
Q 1250 4750 2034 4750 
z
" transform="scale(0.015625)"/>
        <path id="DejaVuSans-2e" d="M 684 794 
L 1344 794 
L 1344 0 
L 684 0 
L 684 794 
z
" transform="scale(0.015625)"/>
       </defs>
       <use xlink:href="#DejaVuSans-30"/>
       <use xlink:href="#DejaVuSans-2e" x="63.623047"/>
       <use xlink:href="#DejaVuSans-30" x="95.410156"/>
      </g>
     </g>
    </g>
    <g id="xtick_2">
     <g id="line2d_2">
      <g>
       <use xlink:href="#mdd5437181b" x="106.10625" y="273.312" style="stroke: #000000; stroke-width: 0.8"/>
      </g>
     </g>
     <g id="text_2">
      <!-- 0.5 -->
      <g transform="translate(98.154688 287.910437) scale(0.1 -0.1)">
       <defs>
        <path id="DejaVuSans-35" d="M 691 4666 
L 3169 4666 
L 3169 4134 
L 1269 4134 
L 1269 2991 
Q 1406 3038 1543 3061 
Q 1681 3084 1819 3084 
Q 2600 3084 3056 2656 
Q 3513 2228 3513 1497 
Q 3513 744 3044 326 
Q 2575 -91 1722 -91 
Q 1428 -91 1123 -41 
Q 819 9 494 109 
L 494 744 
Q 775 591 1075 516 
Q 1375 441 1709 441 
Q 2250 441 2565 725 
Q 2881 1009 2881 1497 
Q 2881 1984 2565 2268 
Q 2250 2553 1709 2553 
Q 1456 2553 1204 2497 
Q 953 2441 691 2322 
L 691 4666 
z
" transform="scale(0.015625)"/>
       </defs>
       <use xlink:href="#DejaVuSans-30"/>
       <use xlink:href="#DejaVuSans-2e" x="63.623047"/>
       <use xlink:href="#DejaVuSans-35" x="95.410156"/>
      </g>
     </g>
    </g>
    <g id="xtick_3">
     <g id="line2d_3">
      <g>
       <use xlink:href="#mdd5437181b" x="155.70625" y="273.312" style="stroke: #000000; stroke-width: 0.8"/>
      </g>
     </g>
     <g id="text_3">
      <!-- 1.0 -->
      <g transform="translate(147.754688 287.910437) scale(0.1 -0.1)">
       <defs>
        <path id="DejaVuSans-31" d="M 794 531 
L 1825 531 
L 1825 4091 
L 703 3866 
L 703 4441 
L 1819 4666 
L 2450 4666 
L 2450 531 
L 3481 531 
L 3481 0 
L 794 0 
L 794 531 
z
" transform="scale(0.015625)"/>
       </defs>
       <use xlink:href="#DejaVuSans-31"/>
       <use xlink:href="#DejaVuSans-2e" x="63.623047"/>
       <use xlink:href="#DejaVuSans-30" x="95.410156"/>
      </g>
     </g>
    </g>
    <g id="xtick_4">
     <g id="line2d_4">
      <g>
       <use xlink:href="#mdd5437181b" x="205.30625" y="273.312" style="stroke: #000000; stroke-width: 0.8"/>
      </g>
     </g>
     <g id="text_4">
      <!-- 1.5 -->
      <g transform="translate(197.354688 287.910437) scale(0.1 -0.1)">
       <use xlink:href="#DejaVuSans-31"/>
       <use xlink:href="#DejaVuSans-2e" x="63.623047"/>
       <use xlink:href="#DejaVuSans-35" x="95.410156"/>
      </g>
     </g>
    </g>
    <g id="xtick_5">
     <g id="line2d_5">
      <g>
       <use xlink:href="#mdd5437181b" x="254.90625" y="273.312" style="stroke: #000000; stroke-width: 0.8"/>
      </g>
     </g>
     <g id="text_5">
      <!-- 2.0 -->
      <g transform="translate(246.954688 287.910437) scale(0.1 -0.1)">
       <defs>
        <path id="DejaVuSans-32" d="M 1228 531 
L 3431 531 
L 3431 0 
L 469 0 
L 469 531 
Q 828 903 1448 1529 
Q 2069 2156 2228 2338 
Q 2531 2678 2651 2914 
Q 2772 3150 2772 3378 
Q 2772 3750 2511 3984 
Q 2250 4219 1831 4219 
Q 1534 4219 1204 4116 
Q 875 4013 500 3803 
L 500 4441 
Q 881 4594 1212 4672 
Q 1544 4750 1819 4750 
Q 2544 4750 2975 4387 
Q 3406 4025 3406 3419 
Q 3406 3131 3298 2873 
Q 3191 2616 2906 2266 
Q 2828 2175 2409 1742 
Q 1991 1309 1228 531 
z
" transform="scale(0.015625)"/>
       </defs>
       <use xlink:href="#DejaVuSans-32"/>
       <use xlink:href="#DejaVuSans-2e" x="63.623047"/>
       <use xlink:href="#DejaVuSans-30" x="95.410156"/>
      </g>
     </g>
    </g>
    <g id="xtick_6">
     <g id="line2d_6">
      <g>
       <use xlink:href="#mdd5437181b" x="304.50625" y="273.312" style="stroke: #000000; stroke-width: 0.8"/>
      </g>
     </g>
     <g id="text_6">
      <!-- 2.5 -->
      <g transform="translate(296.554688 287.910437) scale(0.1 -0.1)">
       <use xlink:href="#DejaVuSans-32"/>
       <use xlink:href="#DejaVuSans-2e" x="63.623047"/>
       <use xlink:href="#DejaVuSans-35" x="95.410156"/>
      </g>
     </g>
    </g>
    <g id="xtick_7">
     <g id="line2d_7">
      <g>
       <use xlink:href="#mdd5437181b" x="354.10625" y="273.312" style="stroke: #000000; stroke-width: 0.8"/>
      </g>
     </g>
     <g id="text_7">
      <!-- 3.0 -->
      <g transform="translate(346.154688 287.910437) scale(0.1 -0.1)">
       <defs>
        <path id="DejaVuSans-33" d="M 2597 2516 
Q 3050 2419 3304 2112 
Q 3559 1806 3559 1356 
Q 3559 666 3084 287 
Q 2609 -91 1734 -91 
Q 1441 -91 1130 -33 
Q 819 25 488 141 
L 488 750 
Q 750 597 1062 519 
Q 1375 441 1716 441 
Q 2309 441 2620 675 
Q 2931 909 2931 1356 
Q 2931 1769 2642 2001 
Q 2353 2234 1838 2234 
L 1294 2234 
L 1294 2753 
L 1863 2753 
Q 2328 2753 2575 2939 
Q 2822 3125 2822 3475 
Q 2822 3834 2567 4026 
Q 2313 4219 1838 4219 
Q 1578 4219 1281 4162 
Q 984 4106 628 3988 
L 628 4550 
Q 988 4650 1302 4700 
Q 1616 4750 1894 4750 
Q 2613 4750 3031 4423 
Q 3450 4097 3450 3541 
Q 3450 3153 3228 2886 
Q 3006 2619 2597 2516 
z
" transform="scale(0.015625)"/>
       </defs>
       <use xlink:href="#DejaVuSans-33"/>
       <use xlink:href="#DejaVuSans-2e" x="63.623047"/>
       <use xlink:href="#DejaVuSans-30" x="95.410156"/>
      </g>
     </g>
    </g>
    <g id="xtick_8">
     <g id="line2d_8">
      <g>
       <use xlink:href="#mdd5437181b" x="403.70625" y="273.312" style="stroke: #000000; stroke-width: 0.8"/>
      </g>
     </g>
     <g id="text_8">
      <!-- 3.5 -->
      <g transform="translate(395.754687 287.910437) scale(0.1 -0.1)">
       <use xlink:href="#DejaVuSans-33"/>
       <use xlink:href="#DejaVuSans-2e" x="63.623047"/>
       <use xlink:href="#DejaVuSans-35" x="95.410156"/>
      </g>
     </g>
    </g>
    <g id="text_9">
     <!-- t, ps -->
     <g transform="translate(224.149062 301.588562) scale(0.1 -0.1)">
      <defs>
       <path id="DejaVuSans-74" d="M 1172 4494 
L 1172 3500 
L 2356 3500 
L 2356 3053 
L 1172 3053 
L 1172 1153 
Q 1172 725 1289 603 
Q 1406 481 1766 481 
L 2356 481 
L 2356 0 
L 1766 0 
Q 1100 0 847 248 
Q 594 497 594 1153 
L 594 3053 
L 172 3053 
L 172 3500 
L 594 3500 
L 594 4494 
L 1172 4494 
z
" transform="scale(0.015625)"/>
       <path id="DejaVuSans-2c" d="M 750 794 
L 1409 794 
L 1409 256 
L 897 -744 
L 494 -744 
L 750 256 
L 750 794 
z
" transform="scale(0.015625)"/>
       <path id="DejaVuSans-20" transform="scale(0.015625)"/>
       <path id="DejaVuSans-70" d="M 1159 525 
L 1159 -1331 
L 581 -1331 
L 581 3500 
L 1159 3500 
L 1159 2969 
Q 1341 3281 1617 3432 
Q 1894 3584 2278 3584 
Q 2916 3584 3314 3078 
Q 3713 2572 3713 1747 
Q 3713 922 3314 415 
Q 2916 -91 2278 -91 
Q 1894 -91 1617 61 
Q 1341 213 1159 525 
z
M 3116 1747 
Q 3116 2381 2855 2742 
Q 2594 3103 2138 3103 
Q 1681 3103 1420 2742 
Q 1159 2381 1159 1747 
Q 1159 1113 1420 752 
Q 1681 391 2138 391 
Q 2594 391 2855 752 
Q 3116 1113 3116 1747 
z
" transform="scale(0.015625)"/>
       <path id="DejaVuSans-73" d="M 2834 3397 
L 2834 2853 
Q 2591 2978 2328 3040 
Q 2066 3103 1784 3103 
Q 1356 3103 1142 2972 
Q 928 2841 928 2578 
Q 928 2378 1081 2264 
Q 1234 2150 1697 2047 
L 1894 2003 
Q 2506 1872 2764 1633 
Q 3022 1394 3022 966 
Q 3022 478 2636 193 
Q 2250 -91 1575 -91 
Q 1294 -91 989 -36 
Q 684 19 347 128 
L 347 722 
Q 666 556 975 473 
Q 1284 391 1588 391 
Q 1994 391 2212 530 
Q 2431 669 2431 922 
Q 2431 1156 2273 1281 
Q 2116 1406 1581 1522 
L 1381 1569 
Q 847 1681 609 1914 
Q 372 2147 372 2553 
Q 372 3047 722 3315 
Q 1072 3584 1716 3584 
Q 2034 3584 2315 3537 
Q 2597 3491 2834 3397 
z
" transform="scale(0.015625)"/>
      </defs>
      <use xlink:href="#DejaVuSans-74"/>
      <use xlink:href="#DejaVuSans-2c" x="39.208984"/>
      <use xlink:href="#DejaVuSans-20" x="70.996094"/>
      <use xlink:href="#DejaVuSans-70" x="102.783203"/>
      <use xlink:href="#DejaVuSans-73" x="166.259766"/>
     </g>
    </g>
   </g>
   <g id="matplotlib.axis_2">
    <g id="ytick_1">
     <g id="line2d_9">
      <defs>
       <path id="m79a85b6557" d="M 0 0 
L -3.5 0 
" style="stroke: #000000; stroke-width: 0.8"/>
      </defs>
      <g>
       <use xlink:href="#m79a85b6557" x="56.50625" y="273.312" style="stroke: #000000; stroke-width: 0.8"/>
      </g>
     </g>
     <g id="text_10">
      <!-- 0.000 -->
      <g transform="translate(20.878125 277.111219) scale(0.1 -0.1)">
       <use xlink:href="#DejaVuSans-30"/>
       <use xlink:href="#DejaVuSans-2e" x="63.623047"/>
       <use xlink:href="#DejaVuSans-30" x="95.410156"/>
       <use xlink:href="#DejaVuSans-30" x="159.033203"/>
       <use xlink:href="#DejaVuSans-30" x="222.65625"/>
      </g>
     </g>
    </g>
    <g id="ytick_2">
     <g id="line2d_10">
      <g>
       <use xlink:href="#m79a85b6557" x="56.50625" y="238.752" style="stroke: #000000; stroke-width: 0.8"/>
      </g>
     </g>
     <g id="text_11">
      <!-- 0.005 -->
      <g transform="translate(20.878125 242.551219) scale(0.1 -0.1)">
       <use xlink:href="#DejaVuSans-30"/>
       <use xlink:href="#DejaVuSans-2e" x="63.623047"/>
       <use xlink:href="#DejaVuSans-30" x="95.410156"/>
       <use xlink:href="#DejaVuSans-30" x="159.033203"/>
       <use xlink:href="#DejaVuSans-35" x="222.65625"/>
      </g>
     </g>
    </g>
    <g id="ytick_3">
     <g id="line2d_11">
      <g>
       <use xlink:href="#m79a85b6557" x="56.50625" y="204.192" style="stroke: #000000; stroke-width: 0.8"/>
      </g>
     </g>
     <g id="text_12">
      <!-- 0.010 -->
      <g transform="translate(20.878125 207.991219) scale(0.1 -0.1)">
       <use xlink:href="#DejaVuSans-30"/>
       <use xlink:href="#DejaVuSans-2e" x="63.623047"/>
       <use xlink:href="#DejaVuSans-30" x="95.410156"/>
       <use xlink:href="#DejaVuSans-31" x="159.033203"/>
       <use xlink:href="#DejaVuSans-30" x="222.65625"/>
      </g>
     </g>
    </g>
    <g id="ytick_4">
     <g id="line2d_12">
      <g>
       <use xlink:href="#m79a85b6557" x="56.50625" y="169.632" style="stroke: #000000; stroke-width: 0.8"/>
      </g>
     </g>
     <g id="text_13">
      <!-- 0.015 -->
      <g transform="translate(20.878125 173.431219) scale(0.1 -0.1)">
       <use xlink:href="#DejaVuSans-30"/>
       <use xlink:href="#DejaVuSans-2e" x="63.623047"/>
       <use xlink:href="#DejaVuSans-30" x="95.410156"/>
       <use xlink:href="#DejaVuSans-31" x="159.033203"/>
       <use xlink:href="#DejaVuSans-35" x="222.65625"/>
      </g>
     </g>
    </g>
    <g id="ytick_5">
     <g id="line2d_13">
      <g>
       <use xlink:href="#m79a85b6557" x="56.50625" y="135.072" style="stroke: #000000; stroke-width: 0.8"/>
      </g>
     </g>
     <g id="text_14">
      <!-- 0.020 -->
      <g transform="translate(20.878125 138.871219) scale(0.1 -0.1)">
       <use xlink:href="#DejaVuSans-30"/>
       <use xlink:href="#DejaVuSans-2e" x="63.623047"/>
       <use xlink:href="#DejaVuSans-30" x="95.410156"/>
       <use xlink:href="#DejaVuSans-32" x="159.033203"/>
       <use xlink:href="#DejaVuSans-30" x="222.65625"/>
      </g>
     </g>
    </g>
    <g id="ytick_6">
     <g id="line2d_14">
      <g>
       <use xlink:href="#m79a85b6557" x="56.50625" y="100.512" style="stroke: #000000; stroke-width: 0.8"/>
      </g>
     </g>
     <g id="text_15">
      <!-- 0.025 -->
      <g transform="translate(20.878125 104.311219) scale(0.1 -0.1)">
       <use xlink:href="#DejaVuSans-30"/>
       <use xlink:href="#DejaVuSans-2e" x="63.623047"/>
       <use xlink:href="#DejaVuSans-30" x="95.410156"/>
       <use xlink:href="#DejaVuSans-32" x="159.033203"/>
       <use xlink:href="#DejaVuSans-35" x="222.65625"/>
      </g>
     </g>
    </g>
    <g id="ytick_7">
     <g id="line2d_15">
      <g>
       <use xlink:href="#m79a85b6557" x="56.50625" y="65.952" style="stroke: #000000; stroke-width: 0.8"/>
      </g>
     </g>
     <g id="text_16">
      <!-- 0.030 -->
      <g transform="translate(20.878125 69.751219) scale(0.1 -0.1)">
       <use xlink:href="#DejaVuSans-30"/>
       <use xlink:href="#DejaVuSans-2e" x="63.623047"/>
       <use xlink:href="#DejaVuSans-30" x="95.410156"/>
       <use xlink:href="#DejaVuSans-33" x="159.033203"/>
       <use xlink:href="#DejaVuSans-30" x="222.65625"/>
      </g>
     </g>
    </g>
    <g id="ytick_8">
     <g id="line2d_16">
      <g>
       <use xlink:href="#m79a85b6557" x="56.50625" y="31.392" style="stroke: #000000; stroke-width: 0.8"/>
      </g>
     </g>
     <g id="text_17">
      <!-- 0.035 -->
      <g transform="translate(20.878125 35.191219) scale(0.1 -0.1)">
       <use xlink:href="#DejaVuSans-30"/>
       <use xlink:href="#DejaVuSans-2e" x="63.623047"/>
       <use xlink:href="#DejaVuSans-30" x="95.410156"/>
       <use xlink:href="#DejaVuSans-33" x="159.033203"/>
       <use xlink:href="#DejaVuSans-35" x="222.65625"/>
      </g>
     </g>
    </g>
    <g id="text_18">
     <!-- n, mol -->
     <g transform="translate(14.798437 155.921625) rotate(-90) scale(0.1 -0.1)">
      <defs>
       <path id="DejaVuSans-6e" d="M 3513 2113 
L 3513 0 
L 2938 0 
L 2938 2094 
Q 2938 2591 2744 2837 
Q 2550 3084 2163 3084 
Q 1697 3084 1428 2787 
Q 1159 2491 1159 1978 
L 1159 0 
L 581 0 
L 581 3500 
L 1159 3500 
L 1159 2956 
Q 1366 3272 1645 3428 
Q 1925 3584 2291 3584 
Q 2894 3584 3203 3211 
Q 3513 2838 3513 2113 
z
" transform="scale(0.015625)"/>
       <path id="DejaVuSans-6d" d="M 3328 2828 
Q 3544 3216 3844 3400 
Q 4144 3584 4550 3584 
Q 5097 3584 5394 3201 
Q 5691 2819 5691 2113 
L 5691 0 
L 5113 0 
L 5113 2094 
Q 5113 2597 4934 2840 
Q 4756 3084 4391 3084 
Q 3944 3084 3684 2787 
Q 3425 2491 3425 1978 
L 3425 0 
L 2847 0 
L 2847 2094 
Q 2847 2600 2669 2842 
Q 2491 3084 2119 3084 
Q 1678 3084 1418 2786 
Q 1159 2488 1159 1978 
L 1159 0 
L 581 0 
L 581 3500 
L 1159 3500 
L 1159 2956 
Q 1356 3278 1631 3431 
Q 1906 3584 2284 3584 
Q 2666 3584 2933 3390 
Q 3200 3197 3328 2828 
z
" transform="scale(0.015625)"/>
       <path id="DejaVuSans-6f" d="M 1959 3097 
Q 1497 3097 1228 2736 
Q 959 2375 959 1747 
Q 959 1119 1226 758 
Q 1494 397 1959 397 
Q 2419 397 2687 759 
Q 2956 1122 2956 1747 
Q 2956 2369 2687 2733 
Q 2419 3097 1959 3097 
z
M 1959 3584 
Q 2709 3584 3137 3096 
Q 3566 2609 3566 1747 
Q 3566 888 3137 398 
Q 2709 -91 1959 -91 
Q 1206 -91 779 398 
Q 353 888 353 1747 
Q 353 2609 779 3096 
Q 1206 3584 1959 3584 
z
" transform="scale(0.015625)"/>
       <path id="DejaVuSans-6c" d="M 603 4863 
L 1178 4863 
L 1178 0 
L 603 0 
L 603 4863 
z
" transform="scale(0.015625)"/>
      </defs>
      <use xlink:href="#DejaVuSans-6e"/>
      <use xlink:href="#DejaVuSans-2c" x="63.378906"/>
      <use xlink:href="#DejaVuSans-20" x="95.166016"/>
      <use xlink:href="#DejaVuSans-6d" x="126.953125"/>
      <use xlink:href="#DejaVuSans-6f" x="224.365234"/>
      <use xlink:href="#DejaVuSans-6c" x="285.546875"/>
     </g>
    </g>
   </g>
   <g id="patch_3">
    <path d="M 56.50625 273.312 
L 56.50625 7.2 
" style="fill: none; stroke: #000000; stroke-width: 0.8; stroke-linejoin: miter; stroke-linecap: square"/>
   </g>
   <g id="patch_4">
    <path d="M 413.62625 273.312 
L 413.62625 7.2 
" style="fill: none; stroke: #000000; stroke-width: 0.8; stroke-linejoin: miter; stroke-linecap: square"/>
   </g>
   <g id="patch_5">
    <path d="M 56.50625 273.312 
L 413.62625 273.312 
" style="fill: none; stroke: #000000; stroke-width: 0.8; stroke-linejoin: miter; stroke-linecap: square"/>
   </g>
   <g id="patch_6">
    <path d="M 56.50625 7.2 
L 413.62625 7.2 
" style="fill: none; stroke: #000000; stroke-width: 0.8; stroke-linejoin: miter; stroke-linecap: square"/>
   </g>
  </g>
 </g>
 <defs>
  <clipPath id="p7bd8d5abc1">
   <rect x="56.50625" y="7.2" width="357.12" height="266.112"/>
  </clipPath>
 </defs>
</svg>
