<?xml version="1.0" encoding="utf-8" standalone="no"?>
<!DOCTYPE svg PUBLIC "-//W3C//DTD SVG 1.1//EN"
  "http://www.w3.org/Graphics/SVG/1.1/DTD/svg11.dtd">
<svg xmlns:xlink="http://www.w3.org/1999/xlink" width="427.18875pt" height="310.86825pt" viewBox="0 0 427.18875 310.86825" xmlns="http://www.w3.org/2000/svg" version="1.1">
 <metadata>
  <rdf:RDF xmlns:dc="http://purl.org/dc/elements/1.1/" xmlns:cc="http://creativecommons.org/ns#" xmlns:rdf="http://www.w3.org/1999/02/22-rdf-syntax-ns#">
   <cc:Work>
    <dc:type rdf:resource="http://purl.org/dc/dcmitype/StillImage"/>
    <dc:date>2023-10-13T21:53:25.000283</dc:date>
    <dc:format>image/svg+xml</dc:format>
    <dc:creator>
     <cc:Agent>
      <dc:title>Matplotlib v3.7.1, https://matplotlib.org/</dc:title>
     </cc:Agent>
    </dc:creator>
   </cc:Work>
  </rdf:RDF>
 </metadata>
 <defs>
  <style type="text/css">*{stroke-linejoin: round; stroke-linecap: butt}</style>
 </defs>
 <g id="figure_1">
  <g id="patch_1">
   <path d="M 0 310.86825 
L 427.18875 310.86825 
L 427.18875 0 
L 0 0 
z
" style="fill: #ffffff"/>
  </g>
  <g id="axes_1">
   <g id="patch_2">
    <path d="M 62.86875 273.312 
L 419.98875 273.312 
L 419.98875 7.2 
L 62.86875 7.2 
z
" style="fill: #ffffff"/>
   </g>
   <g id="PathCollection_1">
    <defs>
     <path id="m3d8e91fa95" d="M 0 3 
C 0.795609 3 1.55874 2.683901 2.12132 2.12132 
C 2.683901 1.55874 3 0.795609 3 0 
C 3 -0.795609 2.683901 -1.55874 2.12132 -2.12132 
C 1.55874 -2.683901 0.795609 -3 0 -3 
C -0.795609 -3 -1.55874 -2.683901 -2.12132 -2.12132 
C -2.683901 -1.55874 -3 -0.795609 -3 0 
C -3 0.795609 -2.683901 1.55874 -2.12132 2.12132 
C -1.55874 2.683901 -0.795609 3 0 3 
z
" style="stroke: #1f77b4"/>
    </defs>
    <g clip-path="url(#p4fc820c2e6)">
     <use xlink:href="#m3d8e91fa95" x="62.86875" y="273.312" style="fill: #1f77b4; stroke: #1f77b4"/>
     <use xlink:href="#m3d8e91fa95" x="67.82875" y="273.312" style="fill: #1f77b4; stroke: #1f77b4"/>
     <use xlink:href="#m3d8e91fa95" x="72.78875" y="273.312" style="fill: #1f77b4; stroke: #1f77b4"/>
     <use xlink:href="#m3d8e91fa95" x="77.74875" y="273.312" style="fill: #1f77b4; stroke: #1f77b4"/>
     <use xlink:href="#m3d8e91fa95" x="82.70875" y="273.312" style="fill: #1f77b4; stroke: #1f77b4"/>
     <use xlink:href="#m3d8e91fa95" x="87.66875" y="273.312" style="fill: #1f77b4; stroke: #1f77b4"/>
     <use xlink:href="#m3d8e91fa95" x="92.62875" y="273.312" style="fill: #1f77b4; stroke: #1f77b4"/>
     <use xlink:href="#m3d8e91fa95" x="97.58875" y="31.392" style="fill: #1f77b4; stroke: #1f77b4"/>
     <use xlink:href="#m3d8e91fa95" x="102.54875" y="58.272" style="fill: #1f77b4; stroke: #1f77b4"/>
     <use xlink:href="#m3d8e91fa95" x="107.50875" y="79.776" style="fill: #1f77b4; stroke: #1f77b4"/>
     <use xlink:href="#m3d8e91fa95" x="112.46875" y="97.370182" style="fill: #1f77b4; stroke: #1f77b4"/>
     <use xlink:href="#m3d8e91fa95" x="117.42875" y="112.032" style="fill: #1f77b4; stroke: #1f77b4"/>
     <use xlink:href="#m3d8e91fa95" x="122.38875" y="124.438154" style="fill: #1f77b4; stroke: #1f77b4"/>
     <use xlink:href="#m3d8e91fa95" x="127.34875" y="135.072" style="fill: #1f77b4; stroke: #1f77b4"/>
     <use xlink:href="#m3d8e91fa95" x="132.30875" y="144.288" style="fill: #1f77b4; stroke: #1f77b4"/>
     <use xlink:href="#m3d8e91fa95" x="137.26875" y="152.352" style="fill: #1f77b4; stroke: #1f77b4"/>
     <use xlink:href="#m3d8e91fa95" x="142.22875" y="159.467294" style="fill: #1f77b4; stroke: #1f77b4"/>
     <use xlink:href="#m3d8e91fa95" x="147.18875" y="165.792" style="fill: #1f77b4; stroke: #1f77b4"/>
     <use xlink:href="#m3d8e91fa95" x="152.14875" y="171.450947" style="fill: #1f77b4; stroke: #1f77b4"/>
     <use xlink:href="#m3d8e91fa95" x="157.10875" y="176.544" style="fill: #1f77b4; stroke: #1f77b4"/>
     <use xlink:href="#m3d8e91fa95" x="162.06875" y="181.152" style="fill: #1f77b4; stroke: #1f77b4"/>
     <use xlink:href="#m3d8e91fa95" x="167.02875" y="185.341091" style="fill: #1f77b4; stroke: #1f77b4"/>
     <use xlink:href="#m3d8e91fa95" x="171.98875" y="189.165913" style="fill: #1f77b4; stroke: #1f77b4"/>
     <use xlink:href="#m3d8e91fa95" x="176.94875" y="192.672" style="fill: #1f77b4; stroke: #1f77b4"/>
     <use xlink:href="#m3d8e91fa95" x="181.90875" y="195.8976" style="fill: #1f77b4; stroke: #1f77b4"/>
     <use xlink:href="#m3d8e91fa95" x="186.86875" y="198.875077" style="fill: #1f77b4; stroke: #1f77b4"/>
     <use xlink:href="#m3d8e91fa95" x="191.82875" y="201.632" style="fill: #1f77b4; stroke: #1f77b4"/>
     <use xlink:href="#m3d8e91fa95" x="196.78875" y="204.192" style="fill: #1f77b4; stroke: #1f77b4"/>
     <use xlink:href="#m3d8e91fa95" x="201.74875" y="206.575448" style="fill: #1f77b4; stroke: #1f77b4"/>
     <use xlink:href="#m3d8e91fa95" x="206.70875" y="208.8" style="fill: #1f77b4; stroke: #1f77b4"/>
     <use xlink:href="#m3d8e91fa95" x="211.66875" y="210.881032" style="fill: #1f77b4; stroke: #1f77b4"/>
     <use xlink:href="#m3d8e91fa95" x="216.62875" y="212.832" style="fill: #1f77b4; stroke: #1f77b4"/>
     <use xlink:href="#m3d8e91fa95" x="221.58875" y="214.664727" style="fill: #1f77b4; stroke: #1f77b4"/>
     <use xlink:href="#m3d8e91fa95" x="226.54875" y="216.389647" style="fill: #1f77b4; stroke: #1f77b4"/>
     <use xlink:href="#m3d8e91fa95" x="231.50875" y="218.016" style="fill: #1f77b4; stroke: #1f77b4"/>
     <use xlink:href="#m3d8e91fa95" x="236.46875" y="219.552" style="fill: #1f77b4; stroke: #1f77b4"/>
     <use xlink:href="#m3d8e91fa95" x="241.42875" y="221.004973" style="fill: #1f77b4; stroke: #1f77b4"/>
     <use xlink:href="#m3d8e91fa95" x="246.38875" y="222.381474" style="fill: #1f77b4; stroke: #1f77b4"/>
     <use xlink:href="#m3d8e91fa95" x="251.34875" y="223.687385" style="fill: #1f77b4; stroke: #1f77b4"/>
     <use xlink:href="#m3d8e91fa95" x="256.30875" y="224.928" style="fill: #1f77b4; stroke: #1f77b4"/>
     <use xlink:href="#m3d8e91fa95" x="261.26875" y="226.108098" style="fill: #1f77b4; stroke: #1f77b4"/>
     <use xlink:href="#m3d8e91fa95" x="266.22875" y="227.232" style="fill: #1f77b4; stroke: #1f77b4"/>
     <use xlink:href="#m3d8e91fa95" x="271.18875" y="228.303628" style="fill: #1f77b4; stroke: #1f77b4"/>
     <use xlink:href="#m3d8e91fa95" x="276.14875" y="229.326545" style="fill: #1f77b4; stroke: #1f77b4"/>
     <use xlink:href="#m3d8e91fa95" x="281.10875" y="230.304" style="fill: #1f77b4; stroke: #1f77b4"/>
     <use xlink:href="#m3d8e91fa95" x="286.06875" y="231.238957" style="fill: #1f77b4; stroke: #1f77b4"/>
     <use xlink:href="#m3d8e91fa95" x="291.02875" y="149.778383" style="fill: #1f77b4; stroke: #1f77b4"/>
     <use xlink:href="#m3d8e91fa95" x="295.98875" y="91.872" style="fill: #1f77b4; stroke: #1f77b4"/>
     <use xlink:href="#m3d8e91fa95" x="300.94875" y="95.574857" style="fill: #1f77b4; stroke: #1f77b4"/>
     <use xlink:href="#m3d8e91fa95" x="305.90875" y="99.1296" style="fill: #1f77b4; stroke: #1f77b4"/>
     <use xlink:href="#m3d8e91fa95" x="310.86875" y="102.544941" style="fill: #1f77b4; stroke: #1f77b4"/>
     <use xlink:href="#m3d8e91fa95" x="315.82875" y="105.828923" style="fill: #1f77b4; stroke: #1f77b4"/>
     <use xlink:href="#m3d8e91fa95" x="320.78875" y="108.988981" style="fill: #1f77b4; stroke: #1f77b4"/>
     <use xlink:href="#m3d8e91fa95" x="325.74875" y="112.032" style="fill: #1f77b4; stroke: #1f77b4"/>
     <use xlink:href="#m3d8e91fa95" x="330.70875" y="114.964364" style="fill: #1f77b4; stroke: #1f77b4"/>
     <use xlink:href="#m3d8e91fa95" x="335.66875" y="117.792" style="fill: #1f77b4; stroke: #1f77b4"/>
     <use xlink:href="#m3d8e91fa95" x="340.62875" y="120.520421" style="fill: #1f77b4; stroke: #1f77b4"/>
     <use xlink:href="#m3d8e91fa95" x="345.58875" y="123.154759" style="fill: #1f77b4; stroke: #1f77b4"/>
     <use xlink:href="#m3d8e91fa95" x="350.54875" y="125.699797" style="fill: #1f77b4; stroke: #1f77b4"/>
     <use xlink:href="#m3d8e91fa95" x="355.50875" y="128.16" style="fill: #1f77b4; stroke: #1f77b4"/>
     <use xlink:href="#m3d8e91fa95" x="360.46875" y="130.539541" style="fill: #1f77b4; stroke: #1f77b4"/>
     <use xlink:href="#m3d8e91fa95" x="365.42875" y="132.842323" style="fill: #1f77b4; stroke: #1f77b4"/>
     <use xlink:href="#m3d8e91fa95" x="370.38875" y="135.072" style="fill: #1f77b4; stroke: #1f77b4"/>
     <use xlink:href="#m3d8e91fa95" x="375.34875" y="137.232" style="fill: #1f77b4; stroke: #1f77b4"/>
     <use xlink:href="#m3d8e91fa95" x="380.30875" y="139.325538" style="fill: #1f77b4; stroke: #1f77b4"/>
     <use xlink:href="#m3d8e91fa95" x="385.26875" y="141.355636" style="fill: #1f77b4; stroke: #1f77b4"/>
     <use xlink:href="#m3d8e91fa95" x="390.22875" y="143.325134" style="fill: #1f77b4; stroke: #1f77b4"/>
     <use xlink:href="#m3d8e91fa95" x="395.18875" y="145.236706" style="fill: #1f77b4; stroke: #1f77b4"/>
     <use xlink:href="#m3d8e91fa95" x="400.14875" y="147.09287" style="fill: #1f77b4; stroke: #1f77b4"/>
     <use xlink:href="#m3d8e91fa95" x="405.10875" y="148.896" style="fill: #1f77b4; stroke: #1f77b4"/>
     <use xlink:href="#m3d8e91fa95" x="410.06875" y="150.648338" style="fill: #1f77b4; stroke: #1f77b4"/>
     <use xlink:href="#m3d8e91fa95" x="415.02875" y="152.352" style="fill: #1f77b4; stroke: #1f77b4"/>
    </g>
   </g>
   <g id="matplotlib.axis_1">
    <g id="xtick_1">
     <g id="line2d_1">
      <defs>
       <path id="m1123f4ce56" d="M 0 0 
L 0 3.5 
" style="stroke: #000000; stroke-width: 0.8"/>
      </defs>
      <g>
       <use xlink:href="#m1123f4ce56" x="62.86875" y="273.312" style="stroke: #000000; stroke-width: 0.8"/>
      </g>
     </g>
     <g id="text_1">
      <!-- 0.0 -->
      <g transform="translate(54.917188 287.910437) scale(0.1 -0.1)">
       <defs>
        <path id="DejaVuSans-30" d="M 2034 4250 
Q 1547 4250 1301 3770 
Q 1056 3291 1056 2328 
Q 1056 1369 1301 889 
Q 1547 409 2034 409 
Q 2525 409 2770 889 
Q 3016 1369 3016 2328 
Q 3016 3291 2770 3770 
Q 2525 4250 2034 4250 
z
M 2034 4750 
Q 2819 4750 3233 4129 
Q 3647 3509 3647 2328 
Q 3647 1150 3233 529 
Q 2819 -91 2034 -91 
Q 1250 -91 836 529 
Q 422 1150 422 2328 
Q 422 3509 836 4129 
Q 1250 4750 2034 4750 
z
" transform="scale(0.015625)"/>
        <path id="DejaVuSans-2e" d="M 684 794 
L 1344 794 
L 1344 0 
L 684 0 
L 684 794 
z
" transform="scale(0.015625)"/>
       </defs>
       <use xlink:href="#DejaVuSans-30"/>
       <use xlink:href="#DejaVuSans-2e" x="63.623047"/>
       <use xlink:href="#DejaVuSans-30" x="95.410156"/>
      </g>
     </g>
    </g>
    <g id="xtick_2">
     <g id="line2d_2">
      <g>
       <use xlink:href="#m1123f4ce56" x="112.46875" y="273.312" style="stroke: #000000; stroke-width: 0.8"/>
      </g>
     </g>
     <g id="text_2">
      <!-- 0.5 -->
      <g transform="translate(104.517188 287.910437) scale(0.1 -0.1)">
       <defs>
        <path id="DejaVuSans-35" d="M 691 4666 
L 3169 4666 
L 3169 4134 
L 1269 4134 
L 1269 2991 
Q 1406 3038 1543 3061 
Q 1681 3084 1819 3084 
Q 2600 3084 3056 2656 
Q 3513 2228 3513 1497 
Q 3513 744 3044 326 
Q 2575 -91 1722 -91 
Q 1428 -91 1123 -41 
Q 819 9 494 109 
L 494 744 
Q 775 591 1075 516 
Q 1375 441 1709 441 
Q 2250 441 2565 725 
Q 2881 1009 2881 1497 
Q 2881 1984 2565 2268 
Q 2250 2553 1709 2553 
Q 1456 2553 1204 2497 
Q 953 2441 691 2322 
L 691 4666 
z
" transform="scale(0.015625)"/>
       </defs>
       <use xlink:href="#DejaVuSans-30"/>
       <use xlink:href="#DejaVuSans-2e" x="63.623047"/>
       <use xlink:href="#DejaVuSans-35" x="95.410156"/>
      </g>
     </g>
    </g>
    <g id="xtick_3">
     <g id="line2d_3">
      <g>
       <use xlink:href="#m1123f4ce56" x="162.06875" y="273.312" style="stroke: #000000; stroke-width: 0.8"/>
      </g>
     </g>
     <g id="text_3">
      <!-- 1.0 -->
      <g transform="translate(154.117188 287.910437) scale(0.1 -0.1)">
       <defs>
        <path id="DejaVuSans-31" d="M 794 531 
L 1825 531 
L 1825 4091 
L 703 3866 
L 703 4441 
L 1819 4666 
L 2450 4666 
L 2450 531 
L 3481 531 
L 3481 0 
L 794 0 
L 794 531 
z
" transform="scale(0.015625)"/>
       </defs>
       <use xlink:href="#DejaVuSans-31"/>
       <use xlink:href="#DejaVuSans-2e" x="63.623047"/>
       <use xlink:href="#DejaVuSans-30" x="95.410156"/>
      </g>
     </g>
    </g>
    <g id="xtick_4">
     <g id="line2d_4">
      <g>
       <use xlink:href="#m1123f4ce56" x="211.66875" y="273.312" style="stroke: #000000; stroke-width: 0.8"/>
      </g>
     </g>
     <g id="text_4">
      <!-- 1.5 -->
      <g transform="translate(203.717188 287.910437) scale(0.1 -0.1)">
       <use xlink:href="#DejaVuSans-31"/>
       <use xlink:href="#DejaVuSans-2e" x="63.623047"/>
       <use xlink:href="#DejaVuSans-35" x="95.410156"/>
      </g>
     </g>
    </g>
    <g id="xtick_5">
     <g id="line2d_5">
      <g>
       <use xlink:href="#m1123f4ce56" x="261.26875" y="273.312" style="stroke: #000000; stroke-width: 0.8"/>
      </g>
     </g>
     <g id="text_5">
      <!-- 2.0 -->
      <g transform="translate(253.317188 287.910437) scale(0.1 -0.1)">
       <defs>
        <path id="DejaVuSans-32" d="M 1228 531 
L 3431 531 
L 3431 0 
L 469 0 
L 469 531 
Q 828 903 1448 1529 
Q 2069 2156 2228 2338 
Q 2531 2678 2651 2914 
Q 2772 3150 2772 3378 
Q 2772 3750 2511 3984 
Q 2250 4219 1831 4219 
Q 1534 4219 1204 4116 
Q 875 4013 500 3803 
L 500 4441 
Q 881 4594 1212 4672 
Q 1544 4750 1819 4750 
Q 2544 4750 2975 4387 
Q 3406 4025 3406 3419 
Q 3406 3131 3298 2873 
Q 3191 2616 2906 2266 
Q 2828 2175 2409 1742 
Q 1991 1309 1228 531 
z
" transform="scale(0.015625)"/>
       </defs>
       <use xlink:href="#DejaVuSans-32"/>
       <use xlink:href="#DejaVuSans-2e" x="63.623047"/>
       <use xlink:href="#DejaVuSans-30" x="95.410156"/>
      </g>
     </g>
    </g>
    <g id="xtick_6">
     <g id="line2d_6">
      <g>
       <use xlink:href="#m1123f4ce56" x="310.86875" y="273.312" style="stroke: #000000; stroke-width: 0.8"/>
      </g>
     </g>
     <g id="text_6">
      <!-- 2.5 -->
      <g transform="translate(302.917187 287.910437) scale(0.1 -0.1)">
       <use xlink:href="#DejaVuSans-32"/>
       <use xlink:href="#DejaVuSans-2e" x="63.623047"/>
       <use xlink:href="#DejaVuSans-35" x="95.410156"/>
      </g>
     </g>
    </g>
    <g id="xtick_7">
     <g id="line2d_7">
      <g>
       <use xlink:href="#m1123f4ce56" x="360.46875" y="273.312" style="stroke: #000000; stroke-width: 0.8"/>
      </g>
     </g>
     <g id="text_7">
      <!-- 3.0 -->
      <g transform="translate(352.517187 287.910437) scale(0.1 -0.1)">
       <defs>
        <path id="DejaVuSans-33" d="M 2597 2516 
Q 3050 2419 3304 2112 
Q 3559 1806 3559 1356 
Q 3559 666 3084 287 
Q 2609 -91 1734 -91 
Q 1441 -91 1130 -33 
Q 819 25 488 141 
L 488 750 
Q 750 597 1062 519 
Q 1375 441 1716 441 
Q 2309 441 2620 675 
Q 2931 909 2931 1356 
Q 2931 1769 2642 2001 
Q 2353 2234 1838 2234 
L 1294 2234 
L 1294 2753 
L 1863 2753 
Q 2328 2753 2575 2939 
Q 2822 3125 2822 3475 
Q 2822 3834 2567 4026 
Q 2313 4219 1838 4219 
Q 1578 4219 1281 4162 
Q 984 4106 628 3988 
L 628 4550 
Q 988 4650 1302 4700 
Q 1616 4750 1894 4750 
Q 2613 4750 3031 4423 
Q 3450 4097 3450 3541 
Q 3450 3153 3228 2886 
Q 3006 2619 2597 2516 
z
" transform="scale(0.015625)"/>
       </defs>
       <use xlink:href="#DejaVuSans-33"/>
       <use xlink:href="#DejaVuSans-2e" x="63.623047"/>
       <use xlink:href="#DejaVuSans-30" x="95.410156"/>
      </g>
     </g>
    </g>
    <g id="xtick_8">
     <g id="line2d_8">
      <g>
       <use xlink:href="#m1123f4ce56" x="410.06875" y="273.312" style="stroke: #000000; stroke-width: 0.8"/>
      </g>
     </g>
     <g id="text_8">
      <!-- 3.5 -->
      <g transform="translate(402.117188 287.910437) scale(0.1 -0.1)">
       <use xlink:href="#DejaVuSans-33"/>
       <use xlink:href="#DejaVuSans-2e" x="63.623047"/>
       <use xlink:href="#DejaVuSans-35" x="95.410156"/>
      </g>
     </g>
    </g>
    <g id="text_9">
     <!-- t, ps -->
     <g transform="translate(230.511562 301.588562) scale(0.1 -0.1)">
      <defs>
       <path id="DejaVuSans-74" d="M 1172 4494 
L 1172 3500 
L 2356 3500 
L 2356 3053 
L 1172 3053 
L 1172 1153 
Q 1172 725 1289 603 
Q 1406 481 1766 481 
L 2356 481 
L 2356 0 
L 1766 0 
Q 1100 0 847 248 
Q 594 497 594 1153 
L 594 3053 
L 172 3053 
L 172 3500 
L 594 3500 
L 594 4494 
L 1172 4494 
z
" transform="scale(0.015625)"/>
       <path id="DejaVuSans-2c" d="M 750 794 
L 1409 794 
L 1409 256 
L 897 -744 
L 494 -744 
L 750 256 
L 750 794 
z
" transform="scale(0.015625)"/>
       <path id="DejaVuSans-20" transform="scale(0.015625)"/>
       <path id="DejaVuSans-70" d="M 1159 525 
L 1159 -1331 
L 581 -1331 
L 581 3500 
L 1159 3500 
L 1159 2969 
Q 1341 3281 1617 3432 
Q 1894 3584 2278 3584 
Q 2916 3584 3314 3078 
Q 3713 2572 3713 1747 
Q 3713 922 3314 415 
Q 2916 -91 2278 -91 
Q 1894 -91 1617 61 
Q 1341 213 1159 525 
z
M 3116 1747 
Q 3116 2381 2855 2742 
Q 2594 3103 2138 3103 
Q 1681 3103 1420 2742 
Q 1159 2381 1159 1747 
Q 1159 1113 1420 752 
Q 1681 391 2138 391 
Q 2594 391 2855 752 
Q 3116 1113 3116 1747 
z
" transform="scale(0.015625)"/>
       <path id="DejaVuSans-73" d="M 2834 3397 
L 2834 2853 
Q 2591 2978 2328 3040 
Q 2066 3103 1784 3103 
Q 1356 3103 1142 2972 
Q 928 2841 928 2578 
Q 928 2378 1081 2264 
Q 1234 2150 1697 2047 
L 1894 2003 
Q 2506 1872 2764 1633 
Q 3022 1394 3022 966 
Q 3022 478 2636 193 
Q 2250 -91 1575 -91 
Q 1294 -91 989 -36 
Q 684 19 347 128 
L 347 722 
Q 666 556 975 473 
Q 1284 391 1588 391 
Q 1994 391 2212 530 
Q 2431 669 2431 922 
Q 2431 1156 2273 1281 
Q 2116 1406 1581 1522 
L 1381 1569 
Q 847 1681 609 1914 
Q 372 2147 372 2553 
Q 372 3047 722 3315 
Q 1072 3584 1716 3584 
Q 2034 3584 2315 3537 
Q 2597 3491 2834 3397 
z
" transform="scale(0.015625)"/>
      </defs>
      <use xlink:href="#DejaVuSans-74"/>
      <use xlink:href="#DejaVuSans-2c" x="39.208984"/>
      <use xlink:href="#DejaVuSans-20" x="70.996094"/>
      <use xlink:href="#DejaVuSans-70" x="102.783203"/>
      <use xlink:href="#DejaVuSans-73" x="166.259766"/>
     </g>
    </g>
   </g>
   <g id="matplotlib.axis_2">
    <g id="ytick_1">
     <g id="line2d_9">
      <defs>
       <path id="m9c402ae0da" d="M 0 0 
L -3.5 0 
" style="stroke: #000000; stroke-width: 0.8"/>
      </defs>
      <g>
       <use xlink:href="#m9c402ae0da" x="62.86875" y="273.312" style="stroke: #000000; stroke-width: 0.8"/>
      </g>
     </g>
     <g id="text_10">
      <!-- 0.0000 -->
      <g transform="translate(20.878125 277.111219) scale(0.1 -0.1)">
       <use xlink:href="#DejaVuSans-30"/>
       <use xlink:href="#DejaVuSans-2e" x="63.623047"/>
       <use xlink:href="#DejaVuSans-30" x="95.410156"/>
       <use xlink:href="#DejaVuSans-30" x="159.033203"/>
       <use xlink:href="#DejaVuSans-30" x="222.65625"/>
       <use xlink:href="#DejaVuSans-30" x="286.279297"/>
      </g>
     </g>
    </g>
    <g id="ytick_2">
     <g id="line2d_10">
      <g>
       <use xlink:href="#m9c402ae0da" x="62.86875" y="224.928" style="stroke: #000000; stroke-width: 0.8"/>
      </g>
     </g>
     <g id="text_11">
      <!-- 0.0005 -->
      <g transform="translate(20.878125 228.727219) scale(0.1 -0.1)">
       <use xlink:href="#DejaVuSans-30"/>
       <use xlink:href="#DejaVuSans-2e" x="63.623047"/>
       <use xlink:href="#DejaVuSans-30" x="95.410156"/>
       <use xlink:href="#DejaVuSans-30" x="159.033203"/>
       <use xlink:href="#DejaVuSans-30" x="222.65625"/>
       <use xlink:href="#DejaVuSans-35" x="286.279297"/>
      </g>
     </g>
    </g>
    <g id="ytick_3">
     <g id="line2d_11">
      <g>
       <use xlink:href="#m9c402ae0da" x="62.86875" y="176.544" style="stroke: #000000; stroke-width: 0.8"/>
      </g>
     </g>
     <g id="text_12">
      <!-- 0.0010 -->
      <g transform="translate(20.878125 180.343219) scale(0.1 -0.1)">
       <use xlink:href="#DejaVuSans-30"/>
       <use xlink:href="#DejaVuSans-2e" x="63.623047"/>
       <use xlink:href="#DejaVuSans-30" x="95.410156"/>
       <use xlink:href="#DejaVuSans-30" x="159.033203"/>
       <use xlink:href="#DejaVuSans-31" x="222.65625"/>
       <use xlink:href="#DejaVuSans-30" x="286.279297"/>
      </g>
     </g>
    </g>
    <g id="ytick_4">
     <g id="line2d_12">
      <g>
       <use xlink:href="#m9c402ae0da" x="62.86875" y="128.16" style="stroke: #000000; stroke-width: 0.8"/>
      </g>
     </g>
     <g id="text_13">
      <!-- 0.0015 -->
      <g transform="translate(20.878125 131.959219) scale(0.1 -0.1)">
       <use xlink:href="#DejaVuSans-30"/>
       <use xlink:href="#DejaVuSans-2e" x="63.623047"/>
       <use xlink:href="#DejaVuSans-30" x="95.410156"/>
       <use xlink:href="#DejaVuSans-30" x="159.033203"/>
       <use xlink:href="#DejaVuSans-31" x="222.65625"/>
       <use xlink:href="#DejaVuSans-35" x="286.279297"/>
      </g>
     </g>
    </g>
    <g id="ytick_5">
     <g id="line2d_13">
      <g>
       <use xlink:href="#m9c402ae0da" x="62.86875" y="79.776" style="stroke: #000000; stroke-width: 0.8"/>
      </g>
     </g>
     <g id="text_14">
      <!-- 0.0020 -->
      <g transform="translate(20.878125 83.575219) scale(0.1 -0.1)">
       <use xlink:href="#DejaVuSans-30"/>
       <use xlink:href="#DejaVuSans-2e" x="63.623047"/>
       <use xlink:href="#DejaVuSans-30" x="95.410156"/>
       <use xlink:href="#DejaVuSans-30" x="159.033203"/>
       <use xlink:href="#DejaVuSans-32" x="222.65625"/>
       <use xlink:href="#DejaVuSans-30" x="286.279297"/>
      </g>
     </g>
    </g>
    <g id="ytick_6">
     <g id="line2d_14">
      <g>
       <use xlink:href="#m9c402ae0da" x="62.86875" y="31.392" style="stroke: #000000; stroke-width: 0.8"/>
      </g>
     </g>
     <g id="text_15">
      <!-- 0.0025 -->
      <g transform="translate(20.878125 35.191219) scale(0.1 -0.1)">
       <use xlink:href="#DejaVuSans-30"/>
       <use xlink:href="#DejaVuSans-2e" x="63.623047"/>
       <use xlink:href="#DejaVuSans-30" x="95.410156"/>
       <use xlink:href="#DejaVuSans-30" x="159.033203"/>
       <use xlink:href="#DejaVuSans-32" x="222.65625"/>
       <use xlink:href="#DejaVuSans-35" x="286.279297"/>
      </g>
     </g>
    </g>
    <g id="text_16">
     <!-- n, mol -->
     <g transform="translate(14.798438 155.921625) rotate(-90) scale(0.1 -0.1)">
      <defs>
       <path id="DejaVuSans-6e" d="M 3513 2113 
L 3513 0 
L 2938 0 
L 2938 2094 
Q 2938 2591 2744 2837 
Q 2550 3084 2163 3084 
Q 1697 3084 1428 2787 
Q 1159 2491 1159 1978 
L 1159 0 
L 581 0 
L 581 3500 
L 1159 3500 
L 1159 2956 
Q 1366 3272 1645 3428 
Q 1925 3584 2291 3584 
Q 2894 3584 3203 3211 
Q 3513 2838 3513 2113 
z
" transform="scale(0.015625)"/>
       <path id="DejaVuSans-6d" d="M 3328 2828 
Q 3544 3216 3844 3400 
Q 4144 3584 4550 3584 
Q 5097 3584 5394 3201 
Q 5691 2819 5691 2113 
L 5691 0 
L 5113 0 
L 5113 2094 
Q 5113 2597 4934 2840 
Q 4756 3084 4391 3084 
Q 3944 3084 3684 2787 
Q 3425 2491 3425 1978 
L 3425 0 
L 2847 0 
L 2847 2094 
Q 2847 2600 2669 2842 
Q 2491 3084 2119 3084 
Q 1678 3084 1418 2786 
Q 1159 2488 1159 1978 
L 1159 0 
L 581 0 
L 581 3500 
L 1159 3500 
L 1159 2956 
Q 1356 3278 1631 3431 
Q 1906 3584 2284 3584 
Q 2666 3584 2933 3390 
Q 3200 3197 3328 2828 
z
" transform="scale(0.015625)"/>
       <path id="DejaVuSans-6f" d="M 1959 3097 
Q 1497 3097 1228 2736 
Q 959 2375 959 1747 
Q 959 1119 1226 758 
Q 1494 397 1959 397 
Q 2419 397 2687 759 
Q 2956 1122 2956 1747 
Q 2956 2369 2687 2733 
Q 2419 3097 1959 3097 
z
M 1959 3584 
Q 2709 3584 3137 3096 
Q 3566 2609 3566 1747 
Q 3566 888 3137 398 
Q 2709 -91 1959 -91 
Q 1206 -91 779 398 
Q 353 888 353 1747 
Q 353 2609 779 3096 
Q 1206 3584 1959 3584 
z
" transform="scale(0.015625)"/>
       <path id="DejaVuSans-6c" d="M 603 4863 
L 1178 4863 
L 1178 0 
L 603 0 
L 603 4863 
z
" transform="scale(0.015625)"/>
      </defs>
      <use xlink:href="#DejaVuSans-6e"/>
      <use xlink:href="#DejaVuSans-2c" x="63.378906"/>
      <use xlink:href="#DejaVuSans-20" x="95.166016"/>
      <use xlink:href="#DejaVuSans-6d" x="126.953125"/>
      <use xlink:href="#DejaVuSans-6f" x="224.365234"/>
      <use xlink:href="#DejaVuSans-6c" x="285.546875"/>
     </g>
    </g>
   </g>
   <g id="patch_3">
    <path d="M 62.86875 273.312 
L 62.86875 7.2 
" style="fill: none; stroke: #000000; stroke-width: 0.8; stroke-linejoin: miter; stroke-linecap: square"/>
   </g>
   <g id="patch_4">
    <path d="M 419.98875 273.312 
L 419.98875 7.2 
" style="fill: none; stroke: #000000; stroke-width: 0.8; stroke-linejoin: miter; stroke-linecap: square"/>
   </g>
   <g id="patch_5">
    <path d="M 62.86875 273.312 
L 419.98875 273.312 
" style="fill: none; stroke: #000000; stroke-width: 0.8; stroke-linejoin: miter; stroke-linecap: square"/>
   </g>
   <g id="patch_6">
    <path d="M 62.86875 7.2 
L 419.98875 7.2 
" style="fill: none; stroke: #000000; stroke-width: 0.8; stroke-linejoin: miter; stroke-linecap: square"/>
   </g>
  </g>
 </g>
 <defs>
  <clipPath id="p4fc820c2e6">
   <rect x="62.86875" y="7.2" width="357.12" height="266.112"/>
  </clipPath>
 </defs>
</svg>
