<?xml version="1.0" encoding="utf-8" standalone="no"?>
<!DOCTYPE svg PUBLIC "-//W3C//DTD SVG 1.1//EN"
  "http://www.w3.org/Graphics/SVG/1.1/DTD/svg11.dtd">
<svg xmlns:xlink="http://www.w3.org/1999/xlink" width="408.10125pt" height="310.86825pt" viewBox="0 0 408.10125 310.86825" xmlns="http://www.w3.org/2000/svg" version="1.1">
 <metadata>
  <rdf:RDF xmlns:dc="http://purl.org/dc/elements/1.1/" xmlns:cc="http://creativecommons.org/ns#" xmlns:rdf="http://www.w3.org/1999/02/22-rdf-syntax-ns#">
   <cc:Work>
    <dc:type rdf:resource="http://purl.org/dc/dcmitype/StillImage"/>
    <dc:date>2023-10-13T21:53:24.769057</dc:date>
    <dc:format>image/svg+xml</dc:format>
    <dc:creator>
     <cc:Agent>
      <dc:title>Matplotlib v3.7.1, https://matplotlib.org/</dc:title>
     </cc:Agent>
    </dc:creator>
   </cc:Work>
  </rdf:RDF>
 </metadata>
 <defs>
  <style type="text/css">*{stroke-linejoin: round; stroke-linecap: butt}</style>
 </defs>
 <g id="figure_1">
  <g id="patch_1">
   <path d="M 0 310.86825 
L 408.10125 310.86825 
L 408.10125 0 
L 0 0 
z
" style="fill: #ffffff"/>
  </g>
  <g id="axes_1">
   <g id="patch_2">
    <path d="M 43.78125 273.312 
L 400.90125 273.312 
L 400.90125 7.2 
L 43.78125 7.2 
z
" style="fill: #ffffff"/>
   </g>
   <g id="PathCollection_1">
    <defs>
     <path id="mdf1f0d27b4" d="M 0 3 
C 0.795609 3 1.55874 2.683901 2.12132 2.12132 
C 2.683901 1.55874 3 0.795609 3 0 
C 3 -0.795609 2.683901 -1.55874 2.12132 -2.12132 
C 1.55874 -2.683901 0.795609 -3 0 -3 
C -0.795609 -3 -1.55874 -2.683901 -2.12132 -2.12132 
C -2.683901 -1.55874 -3 -0.795609 -3 0 
C -3 0.795609 -2.683901 1.55874 -2.12132 2.12132 
C -1.55874 2.683901 -0.795609 3 0 3 
z
" style="stroke: #1f77b4"/>
    </defs>
    <g clip-path="url(#pbf5d1576d6)">
     <use xlink:href="#mdf1f0d27b4" x="43.78125" y="31.392" style="fill: #1f77b4; stroke: #1f77b4"/>
     <use xlink:href="#mdf1f0d27b4" x="48.74125" y="68.420571" style="fill: #1f77b4; stroke: #1f77b4"/>
     <use xlink:href="#mdf1f0d27b4" x="53.70125" y="136.717714" style="fill: #1f77b4; stroke: #1f77b4"/>
     <use xlink:href="#mdf1f0d27b4" x="58.66125" y="143.712" style="fill: #1f77b4; stroke: #1f77b4"/>
     <use xlink:href="#mdf1f0d27b4" x="63.62125" y="169.632" style="fill: #1f77b4; stroke: #1f77b4"/>
     <use xlink:href="#mdf1f0d27b4" x="68.58125" y="186.912" style="fill: #1f77b4; stroke: #1f77b4"/>
     <use xlink:href="#mdf1f0d27b4" x="73.54125" y="199.254857" style="fill: #1f77b4; stroke: #1f77b4"/>
     <use xlink:href="#mdf1f0d27b4" x="78.50125" y="197.403429" style="fill: #1f77b4; stroke: #1f77b4"/>
     <use xlink:href="#mdf1f0d27b4" x="83.46125" y="205.837714" style="fill: #1f77b4; stroke: #1f77b4"/>
     <use xlink:href="#mdf1f0d27b4" x="88.42125" y="212.585143" style="fill: #1f77b4; stroke: #1f77b4"/>
     <use xlink:href="#mdf1f0d27b4" x="93.38125" y="218.105766" style="fill: #1f77b4; stroke: #1f77b4"/>
     <use xlink:href="#mdf1f0d27b4" x="98.34125" y="222.706286" style="fill: #1f77b4; stroke: #1f77b4"/>
     <use xlink:href="#mdf1f0d27b4" x="103.30125" y="226.599033" style="fill: #1f77b4; stroke: #1f77b4"/>
     <use xlink:href="#mdf1f0d27b4" x="108.26125" y="229.935673" style="fill: #1f77b4; stroke: #1f77b4"/>
     <use xlink:href="#mdf1f0d27b4" x="113.22125" y="232.827429" style="fill: #1f77b4; stroke: #1f77b4"/>
     <use xlink:href="#mdf1f0d27b4" x="118.18125" y="235.357714" style="fill: #1f77b4; stroke: #1f77b4"/>
     <use xlink:href="#mdf1f0d27b4" x="123.14125" y="237.590319" style="fill: #1f77b4; stroke: #1f77b4"/>
     <use xlink:href="#mdf1f0d27b4" x="128.10125" y="239.574857" style="fill: #1f77b4; stroke: #1f77b4"/>
     <use xlink:href="#mdf1f0d27b4" x="133.06125" y="241.350496" style="fill: #1f77b4; stroke: #1f77b4"/>
     <use xlink:href="#mdf1f0d27b4" x="138.02125" y="242.948571" style="fill: #1f77b4; stroke: #1f77b4"/>
     <use xlink:href="#mdf1f0d27b4" x="142.98125" y="244.394449" style="fill: #1f77b4; stroke: #1f77b4"/>
     <use xlink:href="#mdf1f0d27b4" x="147.94125" y="245.708883" style="fill: #1f77b4; stroke: #1f77b4"/>
     <use xlink:href="#mdf1f0d27b4" x="152.90125" y="246.909019" style="fill: #1f77b4; stroke: #1f77b4"/>
     <use xlink:href="#mdf1f0d27b4" x="157.86125" y="248.009143" style="fill: #1f77b4; stroke: #1f77b4"/>
     <use xlink:href="#mdf1f0d27b4" x="162.82125" y="249.021257" style="fill: #1f77b4; stroke: #1f77b4"/>
     <use xlink:href="#mdf1f0d27b4" x="167.78125" y="249.955516" style="fill: #1f77b4; stroke: #1f77b4"/>
     <use xlink:href="#mdf1f0d27b4" x="172.74125" y="250.820571" style="fill: #1f77b4; stroke: #1f77b4"/>
     <use xlink:href="#mdf1f0d27b4" x="177.70125" y="251.623837" style="fill: #1f77b4; stroke: #1f77b4"/>
     <use xlink:href="#mdf1f0d27b4" x="182.66125" y="252.371704" style="fill: #1f77b4; stroke: #1f77b4"/>
     <use xlink:href="#mdf1f0d27b4" x="187.62125" y="253.069714" style="fill: #1f77b4; stroke: #1f77b4"/>
     <use xlink:href="#mdf1f0d27b4" x="192.58125" y="253.722691" style="fill: #1f77b4; stroke: #1f77b4"/>
     <use xlink:href="#mdf1f0d27b4" x="197.54125" y="254.334857" style="fill: #1f77b4; stroke: #1f77b4"/>
     <use xlink:href="#mdf1f0d27b4" x="202.50125" y="254.909922" style="fill: #1f77b4; stroke: #1f77b4"/>
     <use xlink:href="#mdf1f0d27b4" x="207.46125" y="255.45116" style="fill: #1f77b4; stroke: #1f77b4"/>
     <use xlink:href="#mdf1f0d27b4" x="212.42125" y="255.961469" style="fill: #1f77b4; stroke: #1f77b4"/>
     <use xlink:href="#mdf1f0d27b4" x="217.38125" y="256.443429" style="fill: #1f77b4; stroke: #1f77b4"/>
     <use xlink:href="#mdf1f0d27b4" x="222.34125" y="256.899336" style="fill: #1f77b4; stroke: #1f77b4"/>
     <use xlink:href="#mdf1f0d27b4" x="227.30125" y="257.331248" style="fill: #1f77b4; stroke: #1f77b4"/>
     <use xlink:href="#mdf1f0d27b4" x="232.26125" y="257.741011" style="fill: #1f77b4; stroke: #1f77b4"/>
     <use xlink:href="#mdf1f0d27b4" x="237.22125" y="258.130286" style="fill: #1f77b4; stroke: #1f77b4"/>
     <use xlink:href="#mdf1f0d27b4" x="242.18125" y="258.500571" style="fill: #1f77b4; stroke: #1f77b4"/>
     <use xlink:href="#mdf1f0d27b4" x="247.14125" y="258.853224" style="fill: #1f77b4; stroke: #1f77b4"/>
     <use xlink:href="#mdf1f0d27b4" x="252.10125" y="259.189475" style="fill: #1f77b4; stroke: #1f77b4"/>
     <use xlink:href="#mdf1f0d27b4" x="257.06125" y="259.510442" style="fill: #1f77b4; stroke: #1f77b4"/>
     <use xlink:href="#mdf1f0d27b4" x="262.02125" y="259.817143" style="fill: #1f77b4; stroke: #1f77b4"/>
     <use xlink:href="#mdf1f0d27b4" x="266.98125" y="260.110509" style="fill: #1f77b4; stroke: #1f77b4"/>
     <use xlink:href="#mdf1f0d27b4" x="271.94125" y="260.391392" style="fill: #1f77b4; stroke: #1f77b4"/>
     <use xlink:href="#mdf1f0d27b4" x="276.90125" y="260.660571" style="fill: #1f77b4; stroke: #1f77b4"/>
     <use xlink:href="#mdf1f0d27b4" x="281.86125" y="260.918764" style="fill: #1f77b4; stroke: #1f77b4"/>
     <use xlink:href="#mdf1f0d27b4" x="286.82125" y="261.166629" style="fill: #1f77b4; stroke: #1f77b4"/>
     <use xlink:href="#mdf1f0d27b4" x="291.78125" y="261.404773" style="fill: #1f77b4; stroke: #1f77b4"/>
     <use xlink:href="#mdf1f0d27b4" x="296.74125" y="261.633758" style="fill: #1f77b4; stroke: #1f77b4"/>
     <use xlink:href="#mdf1f0d27b4" x="301.70125" y="261.854102" style="fill: #1f77b4; stroke: #1f77b4"/>
     <use xlink:href="#mdf1f0d27b4" x="306.66125" y="262.066286" style="fill: #1f77b4; stroke: #1f77b4"/>
     <use xlink:href="#mdf1f0d27b4" x="311.62125" y="262.270753" style="fill: #1f77b4; stroke: #1f77b4"/>
     <use xlink:href="#mdf1f0d27b4" x="316.58125" y="262.467918" style="fill: #1f77b4; stroke: #1f77b4"/>
     <use xlink:href="#mdf1f0d27b4" x="321.54125" y="262.658165" style="fill: #1f77b4; stroke: #1f77b4"/>
     <use xlink:href="#mdf1f0d27b4" x="326.50125" y="262.841852" style="fill: #1f77b4; stroke: #1f77b4"/>
     <use xlink:href="#mdf1f0d27b4" x="331.46125" y="263.019312" style="fill: #1f77b4; stroke: #1f77b4"/>
     <use xlink:href="#mdf1f0d27b4" x="336.42125" y="263.190857" style="fill: #1f77b4; stroke: #1f77b4"/>
     <use xlink:href="#mdf1f0d27b4" x="341.38125" y="263.356778" style="fill: #1f77b4; stroke: #1f77b4"/>
     <use xlink:href="#mdf1f0d27b4" x="346.34125" y="263.517346" style="fill: #1f77b4; stroke: #1f77b4"/>
     <use xlink:href="#mdf1f0d27b4" x="351.30125" y="263.672816" style="fill: #1f77b4; stroke: #1f77b4"/>
     <use xlink:href="#mdf1f0d27b4" x="356.26125" y="263.823429" style="fill: #1f77b4; stroke: #1f77b4"/>
     <use xlink:href="#mdf1f0d27b4" x="361.22125" y="263.969407" style="fill: #1f77b4; stroke: #1f77b4"/>
     <use xlink:href="#mdf1f0d27b4" x="366.18125" y="264.110961" style="fill: #1f77b4; stroke: #1f77b4"/>
     <use xlink:href="#mdf1f0d27b4" x="371.14125" y="264.24829" style="fill: #1f77b4; stroke: #1f77b4"/>
     <use xlink:href="#mdf1f0d27b4" x="376.10125" y="264.38158" style="fill: #1f77b4; stroke: #1f77b4"/>
     <use xlink:href="#mdf1f0d27b4" x="381.06125" y="264.511006" style="fill: #1f77b4; stroke: #1f77b4"/>
     <use xlink:href="#mdf1f0d27b4" x="386.02125" y="264.636735" style="fill: #1f77b4; stroke: #1f77b4"/>
     <use xlink:href="#mdf1f0d27b4" x="390.98125" y="264.758922" style="fill: #1f77b4; stroke: #1f77b4"/>
     <use xlink:href="#mdf1f0d27b4" x="395.94125" y="264.877714" style="fill: #1f77b4; stroke: #1f77b4"/>
    </g>
   </g>
   <g id="matplotlib.axis_1">
    <g id="xtick_1">
     <g id="line2d_1">
      <defs>
       <path id="m8dd130a968" d="M 0 0 
L 0 3.5 
" style="stroke: #000000; stroke-width: 0.8"/>
      </defs>
      <g>
       <use xlink:href="#m8dd130a968" x="43.78125" y="273.312" style="stroke: #000000; stroke-width: 0.8"/>
      </g>
     </g>
     <g id="text_1">
      <!-- 0.0 -->
      <g transform="translate(35.829688 287.910437) scale(0.1 -0.1)">
       <defs>
        <path id="DejaVuSans-30" d="M 2034 4250 
Q 1547 4250 1301 3770 
Q 1056 3291 1056 2328 
Q 1056 1369 1301 889 
Q 1547 409 2034 409 
Q 2525 409 2770 889 
Q 3016 1369 3016 2328 
Q 3016 3291 2770 3770 
Q 2525 4250 2034 4250 
z
M 2034 4750 
Q 2819 4750 3233 4129 
Q 3647 3509 3647 2328 
Q 3647 1150 3233 529 
Q 2819 -91 2034 -91 
Q 1250 -91 836 529 
Q 422 1150 422 2328 
Q 422 3509 836 4129 
Q 1250 4750 2034 4750 
z
" transform="scale(0.015625)"/>
        <path id="DejaVuSans-2e" d="M 684 794 
L 1344 794 
L 1344 0 
L 684 0 
L 684 794 
z
" transform="scale(0.015625)"/>
       </defs>
       <use xlink:href="#DejaVuSans-30"/>
       <use xlink:href="#DejaVuSans-2e" x="63.623047"/>
       <use xlink:href="#DejaVuSans-30" x="95.410156"/>
      </g>
     </g>
    </g>
    <g id="xtick_2">
     <g id="line2d_2">
      <g>
       <use xlink:href="#m8dd130a968" x="93.38125" y="273.312" style="stroke: #000000; stroke-width: 0.8"/>
      </g>
     </g>
     <g id="text_2">
      <!-- 0.5 -->
      <g transform="translate(85.429688 287.910437) scale(0.1 -0.1)">
       <defs>
        <path id="DejaVuSans-35" d="M 691 4666 
L 3169 4666 
L 3169 4134 
L 1269 4134 
L 1269 2991 
Q 1406 3038 1543 3061 
Q 1681 3084 1819 3084 
Q 2600 3084 3056 2656 
Q 3513 2228 3513 1497 
Q 3513 744 3044 326 
Q 2575 -91 1722 -91 
Q 1428 -91 1123 -41 
Q 819 9 494 109 
L 494 744 
Q 775 591 1075 516 
Q 1375 441 1709 441 
Q 2250 441 2565 725 
Q 2881 1009 2881 1497 
Q 2881 1984 2565 2268 
Q 2250 2553 1709 2553 
Q 1456 2553 1204 2497 
Q 953 2441 691 2322 
L 691 4666 
z
" transform="scale(0.015625)"/>
       </defs>
       <use xlink:href="#DejaVuSans-30"/>
       <use xlink:href="#DejaVuSans-2e" x="63.623047"/>
       <use xlink:href="#DejaVuSans-35" x="95.410156"/>
      </g>
     </g>
    </g>
    <g id="xtick_3">
     <g id="line2d_3">
      <g>
       <use xlink:href="#m8dd130a968" x="142.98125" y="273.312" style="stroke: #000000; stroke-width: 0.8"/>
      </g>
     </g>
     <g id="text_3">
      <!-- 1.0 -->
      <g transform="translate(135.029688 287.910437) scale(0.1 -0.1)">
       <defs>
        <path id="DejaVuSans-31" d="M 794 531 
L 1825 531 
L 1825 4091 
L 703 3866 
L 703 4441 
L 1819 4666 
L 2450 4666 
L 2450 531 
L 3481 531 
L 3481 0 
L 794 0 
L 794 531 
z
" transform="scale(0.015625)"/>
       </defs>
       <use xlink:href="#DejaVuSans-31"/>
       <use xlink:href="#DejaVuSans-2e" x="63.623047"/>
       <use xlink:href="#DejaVuSans-30" x="95.410156"/>
      </g>
     </g>
    </g>
    <g id="xtick_4">
     <g id="line2d_4">
      <g>
       <use xlink:href="#m8dd130a968" x="192.58125" y="273.312" style="stroke: #000000; stroke-width: 0.8"/>
      </g>
     </g>
     <g id="text_4">
      <!-- 1.5 -->
      <g transform="translate(184.629688 287.910437) scale(0.1 -0.1)">
       <use xlink:href="#DejaVuSans-31"/>
       <use xlink:href="#DejaVuSans-2e" x="63.623047"/>
       <use xlink:href="#DejaVuSans-35" x="95.410156"/>
      </g>
     </g>
    </g>
    <g id="xtick_5">
     <g id="line2d_5">
      <g>
       <use xlink:href="#m8dd130a968" x="242.18125" y="273.312" style="stroke: #000000; stroke-width: 0.8"/>
      </g>
     </g>
     <g id="text_5">
      <!-- 2.0 -->
      <g transform="translate(234.229688 287.910437) scale(0.1 -0.1)">
       <defs>
        <path id="DejaVuSans-32" d="M 1228 531 
L 3431 531 
L 3431 0 
L 469 0 
L 469 531 
Q 828 903 1448 1529 
Q 2069 2156 2228 2338 
Q 2531 2678 2651 2914 
Q 2772 3150 2772 3378 
Q 2772 3750 2511 3984 
Q 2250 4219 1831 4219 
Q 1534 4219 1204 4116 
Q 875 4013 500 3803 
L 500 4441 
Q 881 4594 1212 4672 
Q 1544 4750 1819 4750 
Q 2544 4750 2975 4387 
Q 3406 4025 3406 3419 
Q 3406 3131 3298 2873 
Q 3191 2616 2906 2266 
Q 2828 2175 2409 1742 
Q 1991 1309 1228 531 
z
" transform="scale(0.015625)"/>
       </defs>
       <use xlink:href="#DejaVuSans-32"/>
       <use xlink:href="#DejaVuSans-2e" x="63.623047"/>
       <use xlink:href="#DejaVuSans-30" x="95.410156"/>
      </g>
     </g>
    </g>
    <g id="xtick_6">
     <g id="line2d_6">
      <g>
       <use xlink:href="#m8dd130a968" x="291.78125" y="273.312" style="stroke: #000000; stroke-width: 0.8"/>
      </g>
     </g>
     <g id="text_6">
      <!-- 2.5 -->
      <g transform="translate(283.829687 287.910437) scale(0.1 -0.1)">
       <use xlink:href="#DejaVuSans-32"/>
       <use xlink:href="#DejaVuSans-2e" x="63.623047"/>
       <use xlink:href="#DejaVuSans-35" x="95.410156"/>
      </g>
     </g>
    </g>
    <g id="xtick_7">
     <g id="line2d_7">
      <g>
       <use xlink:href="#m8dd130a968" x="341.38125" y="273.312" style="stroke: #000000; stroke-width: 0.8"/>
      </g>
     </g>
     <g id="text_7">
      <!-- 3.0 -->
      <g transform="translate(333.429688 287.910437) scale(0.1 -0.1)">
       <defs>
        <path id="DejaVuSans-33" d="M 2597 2516 
Q 3050 2419 3304 2112 
Q 3559 1806 3559 1356 
Q 3559 666 3084 287 
Q 2609 -91 1734 -91 
Q 1441 -91 1130 -33 
Q 819 25 488 141 
L 488 750 
Q 750 597 1062 519 
Q 1375 441 1716 441 
Q 2309 441 2620 675 
Q 2931 909 2931 1356 
Q 2931 1769 2642 2001 
Q 2353 2234 1838 2234 
L 1294 2234 
L 1294 2753 
L 1863 2753 
Q 2328 2753 2575 2939 
Q 2822 3125 2822 3475 
Q 2822 3834 2567 4026 
Q 2313 4219 1838 4219 
Q 1578 4219 1281 4162 
Q 984 4106 628 3988 
L 628 4550 
Q 988 4650 1302 4700 
Q 1616 4750 1894 4750 
Q 2613 4750 3031 4423 
Q 3450 4097 3450 3541 
Q 3450 3153 3228 2886 
Q 3006 2619 2597 2516 
z
" transform="scale(0.015625)"/>
       </defs>
       <use xlink:href="#DejaVuSans-33"/>
       <use xlink:href="#DejaVuSans-2e" x="63.623047"/>
       <use xlink:href="#DejaVuSans-30" x="95.410156"/>
      </g>
     </g>
    </g>
    <g id="xtick_8">
     <g id="line2d_8">
      <g>
       <use xlink:href="#m8dd130a968" x="390.98125" y="273.312" style="stroke: #000000; stroke-width: 0.8"/>
      </g>
     </g>
     <g id="text_8">
      <!-- 3.5 -->
      <g transform="translate(383.029687 287.910437) scale(0.1 -0.1)">
       <use xlink:href="#DejaVuSans-33"/>
       <use xlink:href="#DejaVuSans-2e" x="63.623047"/>
       <use xlink:href="#DejaVuSans-35" x="95.410156"/>
      </g>
     </g>
    </g>
    <g id="text_9">
     <!-- t, ps -->
     <g transform="translate(211.424062 301.588562) scale(0.1 -0.1)">
      <defs>
       <path id="DejaVuSans-74" d="M 1172 4494 
L 1172 3500 
L 2356 3500 
L 2356 3053 
L 1172 3053 
L 1172 1153 
Q 1172 725 1289 603 
Q 1406 481 1766 481 
L 2356 481 
L 2356 0 
L 1766 0 
Q 1100 0 847 248 
Q 594 497 594 1153 
L 594 3053 
L 172 3053 
L 172 3500 
L 594 3500 
L 594 4494 
L 1172 4494 
z
" transform="scale(0.015625)"/>
       <path id="DejaVuSans-2c" d="M 750 794 
L 1409 794 
L 1409 256 
L 897 -744 
L 494 -744 
L 750 256 
L 750 794 
z
" transform="scale(0.015625)"/>
       <path id="DejaVuSans-20" transform="scale(0.015625)"/>
       <path id="DejaVuSans-70" d="M 1159 525 
L 1159 -1331 
L 581 -1331 
L 581 3500 
L 1159 3500 
L 1159 2969 
Q 1341 3281 1617 3432 
Q 1894 3584 2278 3584 
Q 2916 3584 3314 3078 
Q 3713 2572 3713 1747 
Q 3713 922 3314 415 
Q 2916 -91 2278 -91 
Q 1894 -91 1617 61 
Q 1341 213 1159 525 
z
M 3116 1747 
Q 3116 2381 2855 2742 
Q 2594 3103 2138 3103 
Q 1681 3103 1420 2742 
Q 1159 2381 1159 1747 
Q 1159 1113 1420 752 
Q 1681 391 2138 391 
Q 2594 391 2855 752 
Q 3116 1113 3116 1747 
z
" transform="scale(0.015625)"/>
       <path id="DejaVuSans-73" d="M 2834 3397 
L 2834 2853 
Q 2591 2978 2328 3040 
Q 2066 3103 1784 3103 
Q 1356 3103 1142 2972 
Q 928 2841 928 2578 
Q 928 2378 1081 2264 
Q 1234 2150 1697 2047 
L 1894 2003 
Q 2506 1872 2764 1633 
Q 3022 1394 3022 966 
Q 3022 478 2636 193 
Q 2250 -91 1575 -91 
Q 1294 -91 989 -36 
Q 684 19 347 128 
L 347 722 
Q 666 556 975 473 
Q 1284 391 1588 391 
Q 1994 391 2212 530 
Q 2431 669 2431 922 
Q 2431 1156 2273 1281 
Q 2116 1406 1581 1522 
L 1381 1569 
Q 847 1681 609 1914 
Q 372 2147 372 2553 
Q 372 3047 722 3315 
Q 1072 3584 1716 3584 
Q 2034 3584 2315 3537 
Q 2597 3491 2834 3397 
z
" transform="scale(0.015625)"/>
      </defs>
      <use xlink:href="#DejaVuSans-74"/>
      <use xlink:href="#DejaVuSans-2c" x="39.208984"/>
      <use xlink:href="#DejaVuSans-20" x="70.996094"/>
      <use xlink:href="#DejaVuSans-70" x="102.783203"/>
      <use xlink:href="#DejaVuSans-73" x="166.259766"/>
     </g>
    </g>
   </g>
   <g id="matplotlib.axis_2">
    <g id="ytick_1">
     <g id="line2d_9">
      <defs>
       <path id="mdbb2b75f3a" d="M 0 0 
L -3.5 0 
" style="stroke: #000000; stroke-width: 0.8"/>
      </defs>
      <g>
       <use xlink:href="#mdbb2b75f3a" x="43.78125" y="273.312" style="stroke: #000000; stroke-width: 0.8"/>
      </g>
     </g>
     <g id="text_10">
      <!-- 0.0 -->
      <g transform="translate(20.878125 277.111219) scale(0.1 -0.1)">
       <use xlink:href="#DejaVuSans-30"/>
       <use xlink:href="#DejaVuSans-2e" x="63.623047"/>
       <use xlink:href="#DejaVuSans-30" x="95.410156"/>
      </g>
     </g>
    </g>
    <g id="ytick_2">
     <g id="line2d_10">
      <g>
       <use xlink:href="#mdbb2b75f3a" x="43.78125" y="223.940571" style="stroke: #000000; stroke-width: 0.8"/>
      </g>
     </g>
     <g id="text_11">
      <!-- 0.1 -->
      <g transform="translate(20.878125 227.73979) scale(0.1 -0.1)">
       <use xlink:href="#DejaVuSans-30"/>
       <use xlink:href="#DejaVuSans-2e" x="63.623047"/>
       <use xlink:href="#DejaVuSans-31" x="95.410156"/>
      </g>
     </g>
    </g>
    <g id="ytick_3">
     <g id="line2d_11">
      <g>
       <use xlink:href="#mdbb2b75f3a" x="43.78125" y="174.569143" style="stroke: #000000; stroke-width: 0.8"/>
      </g>
     </g>
     <g id="text_12">
      <!-- 0.2 -->
      <g transform="translate(20.878125 178.368362) scale(0.1 -0.1)">
       <use xlink:href="#DejaVuSans-30"/>
       <use xlink:href="#DejaVuSans-2e" x="63.623047"/>
       <use xlink:href="#DejaVuSans-32" x="95.410156"/>
      </g>
     </g>
    </g>
    <g id="ytick_4">
     <g id="line2d_12">
      <g>
       <use xlink:href="#mdbb2b75f3a" x="43.78125" y="125.197714" style="stroke: #000000; stroke-width: 0.8"/>
      </g>
     </g>
     <g id="text_13">
      <!-- 0.3 -->
      <g transform="translate(20.878125 128.996933) scale(0.1 -0.1)">
       <use xlink:href="#DejaVuSans-30"/>
       <use xlink:href="#DejaVuSans-2e" x="63.623047"/>
       <use xlink:href="#DejaVuSans-33" x="95.410156"/>
      </g>
     </g>
    </g>
    <g id="ytick_5">
     <g id="line2d_13">
      <g>
       <use xlink:href="#mdbb2b75f3a" x="43.78125" y="75.826286" style="stroke: #000000; stroke-width: 0.8"/>
      </g>
     </g>
     <g id="text_14">
      <!-- 0.4 -->
      <g transform="translate(20.878125 79.625504) scale(0.1 -0.1)">
       <defs>
        <path id="DejaVuSans-34" d="M 2419 4116 
L 825 1625 
L 2419 1625 
L 2419 4116 
z
M 2253 4666 
L 3047 4666 
L 3047 1625 
L 3713 1625 
L 3713 1100 
L 3047 1100 
L 3047 0 
L 2419 0 
L 2419 1100 
L 313 1100 
L 313 1709 
L 2253 4666 
z
" transform="scale(0.015625)"/>
       </defs>
       <use xlink:href="#DejaVuSans-30"/>
       <use xlink:href="#DejaVuSans-2e" x="63.623047"/>
       <use xlink:href="#DejaVuSans-34" x="95.410156"/>
      </g>
     </g>
    </g>
    <g id="ytick_6">
     <g id="line2d_14">
      <g>
       <use xlink:href="#mdbb2b75f3a" x="43.78125" y="26.454857" style="stroke: #000000; stroke-width: 0.8"/>
      </g>
     </g>
     <g id="text_15">
      <!-- 0.5 -->
      <g transform="translate(20.878125 30.254076) scale(0.1 -0.1)">
       <use xlink:href="#DejaVuSans-30"/>
       <use xlink:href="#DejaVuSans-2e" x="63.623047"/>
       <use xlink:href="#DejaVuSans-35" x="95.410156"/>
      </g>
     </g>
    </g>
    <g id="text_16">
     <!-- n, mol -->
     <g transform="translate(14.798438 155.921625) rotate(-90) scale(0.1 -0.1)">
      <defs>
       <path id="DejaVuSans-6e" d="M 3513 2113 
L 3513 0 
L 2938 0 
L 2938 2094 
Q 2938 2591 2744 2837 
Q 2550 3084 2163 3084 
Q 1697 3084 1428 2787 
Q 1159 2491 1159 1978 
L 1159 0 
L 581 0 
L 581 3500 
L 1159 3500 
L 1159 2956 
Q 1366 3272 1645 3428 
Q 1925 3584 2291 3584 
Q 2894 3584 3203 3211 
Q 3513 2838 3513 2113 
z
" transform="scale(0.015625)"/>
       <path id="DejaVuSans-6d" d="M 3328 2828 
Q 3544 3216 3844 3400 
Q 4144 3584 4550 3584 
Q 5097 3584 5394 3201 
Q 5691 2819 5691 2113 
L 5691 0 
L 5113 0 
L 5113 2094 
Q 5113 2597 4934 2840 
Q 4756 3084 4391 3084 
Q 3944 3084 3684 2787 
Q 3425 2491 3425 1978 
L 3425 0 
L 2847 0 
L 2847 2094 
Q 2847 2600 2669 2842 
Q 2491 3084 2119 3084 
Q 1678 3084 1418 2786 
Q 1159 2488 1159 1978 
L 1159 0 
L 581 0 
L 581 3500 
L 1159 3500 
L 1159 2956 
Q 1356 3278 1631 3431 
Q 1906 3584 2284 3584 
Q 2666 3584 2933 3390 
Q 3200 3197 3328 2828 
z
" transform="scale(0.015625)"/>
       <path id="DejaVuSans-6f" d="M 1959 3097 
Q 1497 3097 1228 2736 
Q 959 2375 959 1747 
Q 959 1119 1226 758 
Q 1494 397 1959 397 
Q 2419 397 2687 759 
Q 2956 1122 2956 1747 
Q 2956 2369 2687 2733 
Q 2419 3097 1959 3097 
z
M 1959 3584 
Q 2709 3584 3137 3096 
Q 3566 2609 3566 1747 
Q 3566 888 3137 398 
Q 2709 -91 1959 -91 
Q 1206 -91 779 398 
Q 353 888 353 1747 
Q 353 2609 779 3096 
Q 1206 3584 1959 3584 
z
" transform="scale(0.015625)"/>
       <path id="DejaVuSans-6c" d="M 603 4863 
L 1178 4863 
L 1178 0 
L 603 0 
L 603 4863 
z
" transform="scale(0.015625)"/>
      </defs>
      <use xlink:href="#DejaVuSans-6e"/>
      <use xlink:href="#DejaVuSans-2c" x="63.378906"/>
      <use xlink:href="#DejaVuSans-20" x="95.166016"/>
      <use xlink:href="#DejaVuSans-6d" x="126.953125"/>
      <use xlink:href="#DejaVuSans-6f" x="224.365234"/>
      <use xlink:href="#DejaVuSans-6c" x="285.546875"/>
     </g>
    </g>
   </g>
   <g id="patch_3">
    <path d="M 43.78125 273.312 
L 43.78125 7.2 
" style="fill: none; stroke: #000000; stroke-width: 0.8; stroke-linejoin: miter; stroke-linecap: square"/>
   </g>
   <g id="patch_4">
    <path d="M 400.90125 273.312 
L 400.90125 7.2 
" style="fill: none; stroke: #000000; stroke-width: 0.8; stroke-linejoin: miter; stroke-linecap: square"/>
   </g>
   <g id="patch_5">
    <path d="M 43.78125 273.312 
L 400.90125 273.312 
" style="fill: none; stroke: #000000; stroke-width: 0.8; stroke-linejoin: miter; stroke-linecap: square"/>
   </g>
   <g id="patch_6">
    <path d="M 43.78125 7.2 
L 400.90125 7.2 
" style="fill: none; stroke: #000000; stroke-width: 0.8; stroke-linejoin: miter; stroke-linecap: square"/>
   </g>
  </g>
 </g>
 <defs>
  <clipPath id="pbf5d1576d6">
   <rect x="43.78125" y="7.2" width="357.12" height="266.112"/>
  </clipPath>
 </defs>
</svg>
