<?xml version="1.0" encoding="utf-8" standalone="no"?>
<!DOCTYPE svg PUBLIC "-//W3C//DTD SVG 1.1//EN"
  "http://www.w3.org/Graphics/SVG/1.1/DTD/svg11.dtd">
<svg xmlns:xlink="http://www.w3.org/1999/xlink" width="414.46375pt" height="310.86825pt" viewBox="0 0 414.46375 310.86825" xmlns="http://www.w3.org/2000/svg" version="1.1">
 <metadata>
  <rdf:RDF xmlns:dc="http://purl.org/dc/elements/1.1/" xmlns:cc="http://creativecommons.org/ns#" xmlns:rdf="http://www.w3.org/1999/02/22-rdf-syntax-ns#">
   <cc:Work>
    <dc:type rdf:resource="http://purl.org/dc/dcmitype/StillImage"/>
    <dc:date>2023-10-13T21:53:24.392006</dc:date>
    <dc:format>image/svg+xml</dc:format>
    <dc:creator>
     <cc:Agent>
      <dc:title>Matplotlib v3.7.1, https://matplotlib.org/</dc:title>
     </cc:Agent>
    </dc:creator>
   </cc:Work>
  </rdf:RDF>
 </metadata>
 <defs>
  <style type="text/css">*{stroke-linejoin: round; stroke-linecap: butt}</style>
 </defs>
 <g id="figure_1">
  <g id="patch_1">
   <path d="M 0 310.86825 
L 414.46375 310.86825 
L 414.46375 0 
L 0 0 
z
" style="fill: #ffffff"/>
  </g>
  <g id="axes_1">
   <g id="patch_2">
    <path d="M 50.14375 273.312 
L 407.26375 273.312 
L 407.26375 7.2 
L 50.14375 7.2 
z
" style="fill: #ffffff"/>
   </g>
   <g id="PathCollection_1">
    <defs>
     <path id="m9cacc8dafc" d="M 0 3 
C 0.795609 3 1.55874 2.683901 2.12132 2.12132 
C 2.683901 1.55874 3 0.795609 3 0 
C 3 -0.795609 2.683901 -1.55874 2.12132 -2.12132 
C 1.55874 -2.683901 0.795609 -3 0 -3 
C -0.795609 -3 -1.55874 -2.683901 -2.12132 -2.12132 
C -2.683901 -1.55874 -3 -0.795609 -3 0 
C -3 0.795609 -2.683901 1.55874 -2.12132 2.12132 
C -1.55874 2.683901 -0.795609 3 0 3 
z
" style="stroke: #1f77b4"/>
    </defs>
    <g clip-path="url(#pa7a214c201)">
     <use xlink:href="#m9cacc8dafc" x="50.14375" y="84.201111" style="fill: #1f77b4; stroke: #1f77b4"/>
     <use xlink:href="#m9cacc8dafc" x="55.10375" y="74.808186" style="fill: #1f77b4; stroke: #1f77b4"/>
     <use xlink:href="#m9cacc8dafc" x="60.06375" y="57.483458" style="fill: #1f77b4; stroke: #1f77b4"/>
     <use xlink:href="#m9cacc8dafc" x="65.02375" y="55.709239" style="fill: #1f77b4; stroke: #1f77b4"/>
     <use xlink:href="#m9cacc8dafc" x="69.98375" y="49.134192" style="fill: #1f77b4; stroke: #1f77b4"/>
     <use xlink:href="#m9cacc8dafc" x="74.94375" y="44.750827" style="fill: #1f77b4; stroke: #1f77b4"/>
     <use xlink:href="#m9cacc8dafc" x="79.90375" y="41.619852" style="fill: #1f77b4; stroke: #1f77b4"/>
     <use xlink:href="#m9cacc8dafc" x="84.86375" y="42.089498" style="fill: #1f77b4; stroke: #1f77b4"/>
     <use xlink:href="#m9cacc8dafc" x="89.82375" y="39.949998" style="fill: #1f77b4; stroke: #1f77b4"/>
     <use xlink:href="#m9cacc8dafc" x="94.78375" y="38.238399" style="fill: #1f77b4; stroke: #1f77b4"/>
     <use xlink:href="#m9cacc8dafc" x="99.74375" y="36.837999" style="fill: #1f77b4; stroke: #1f77b4"/>
     <use xlink:href="#m9cacc8dafc" x="104.70375" y="35.670999" style="fill: #1f77b4; stroke: #1f77b4"/>
     <use xlink:href="#m9cacc8dafc" x="109.66375" y="34.683538" style="fill: #1f77b4; stroke: #1f77b4"/>
     <use xlink:href="#m9cacc8dafc" x="114.62375" y="33.837142" style="fill: #1f77b4; stroke: #1f77b4"/>
     <use xlink:href="#m9cacc8dafc" x="119.58375" y="33.1036" style="fill: #1f77b4; stroke: #1f77b4"/>
     <use xlink:href="#m9cacc8dafc" x="124.54375" y="32.46175" style="fill: #1f77b4; stroke: #1f77b4"/>
     <use xlink:href="#m9cacc8dafc" x="129.50375" y="31.895412" style="fill: #1f77b4; stroke: #1f77b4"/>
     <use xlink:href="#m9cacc8dafc" x="134.46375" y="31.392" style="fill: #1f77b4; stroke: #1f77b4"/>
     <use xlink:href="#m9cacc8dafc" x="139.42375" y="33.248613" style="fill: #1f77b4; stroke: #1f77b4"/>
     <use xlink:href="#m9cacc8dafc" x="144.38375" y="38.989833" style="fill: #1f77b4; stroke: #1f77b4"/>
     <use xlink:href="#m9cacc8dafc" x="149.34375" y="44.184269" style="fill: #1f77b4; stroke: #1f77b4"/>
     <use xlink:href="#m9cacc8dafc" x="154.30375" y="48.906484" style="fill: #1f77b4; stroke: #1f77b4"/>
     <use xlink:href="#m9cacc8dafc" x="159.26375" y="53.218072" style="fill: #1f77b4; stroke: #1f77b4"/>
     <use xlink:href="#m9cacc8dafc" x="164.22375" y="57.170361" style="fill: #1f77b4; stroke: #1f77b4"/>
     <use xlink:href="#m9cacc8dafc" x="169.18375" y="60.806466" style="fill: #1f77b4; stroke: #1f77b4"/>
     <use xlink:href="#m9cacc8dafc" x="174.14375" y="64.162871" style="fill: #1f77b4; stroke: #1f77b4"/>
     <use xlink:href="#m9cacc8dafc" x="179.10375" y="67.270654" style="fill: #1f77b4; stroke: #1f77b4"/>
     <use xlink:href="#m9cacc8dafc" x="184.06375" y="71.45357" style="fill: #1f77b4; stroke: #1f77b4"/>
     <use xlink:href="#m9cacc8dafc" x="189.02375" y="78.414206" style="fill: #1f77b4; stroke: #1f77b4"/>
     <use xlink:href="#m9cacc8dafc" x="193.98375" y="84.910799" style="fill: #1f77b4; stroke: #1f77b4"/>
     <use xlink:href="#m9cacc8dafc" x="198.94375" y="90.988257" style="fill: #1f77b4; stroke: #1f77b4"/>
     <use xlink:href="#m9cacc8dafc" x="203.90375" y="96.685874" style="fill: #1f77b4; stroke: #1f77b4"/>
     <use xlink:href="#m9cacc8dafc" x="208.86375" y="102.038181" style="fill: #1f77b4; stroke: #1f77b4"/>
     <use xlink:href="#m9cacc8dafc" x="213.82375" y="107.075646" style="fill: #1f77b4; stroke: #1f77b4"/>
     <use xlink:href="#m9cacc8dafc" x="218.78375" y="111.825256" style="fill: #1f77b4; stroke: #1f77b4"/>
     <use xlink:href="#m9cacc8dafc" x="223.74375" y="116.310999" style="fill: #1f77b4; stroke: #1f77b4"/>
     <use xlink:href="#m9cacc8dafc" x="228.70375" y="120.554269" style="fill: #1f77b4; stroke: #1f77b4"/>
     <use xlink:href="#m9cacc8dafc" x="233.66375" y="124.57421" style="fill: #1f77b4; stroke: #1f77b4"/>
     <use xlink:href="#m9cacc8dafc" x="238.62375" y="128.387999" style="fill: #1f77b4; stroke: #1f77b4"/>
     <use xlink:href="#m9cacc8dafc" x="243.58375" y="132.011099" style="fill: #1f77b4; stroke: #1f77b4"/>
     <use xlink:href="#m9cacc8dafc" x="248.54375" y="135.457463" style="fill: #1f77b4; stroke: #1f77b4"/>
     <use xlink:href="#m9cacc8dafc" x="253.50375" y="138.739714" style="fill: #1f77b4; stroke: #1f77b4"/>
     <use xlink:href="#m9cacc8dafc" x="258.46375" y="141.869302" style="fill: #1f77b4; stroke: #1f77b4"/>
     <use xlink:href="#m9cacc8dafc" x="263.42375" y="144.856636" style="fill: #1f77b4; stroke: #1f77b4"/>
     <use xlink:href="#m9cacc8dafc" x="268.38375" y="147.711199" style="fill: #1f77b4; stroke: #1f77b4"/>
     <use xlink:href="#m9cacc8dafc" x="273.34375" y="150.441651" style="fill: #1f77b4; stroke: #1f77b4"/>
     <use xlink:href="#m9cacc8dafc" x="278.30375" y="153.055914" style="fill: #1f77b4; stroke: #1f77b4"/>
     <use xlink:href="#m9cacc8dafc" x="283.26375" y="155.561249" style="fill: #1f77b4; stroke: #1f77b4"/>
     <use xlink:href="#m9cacc8dafc" x="288.22375" y="157.964326" style="fill: #1f77b4; stroke: #1f77b4"/>
     <use xlink:href="#m9cacc8dafc" x="293.18375" y="160.271279" style="fill: #1f77b4; stroke: #1f77b4"/>
     <use xlink:href="#m9cacc8dafc" x="298.14375" y="162.487764" style="fill: #1f77b4; stroke: #1f77b4"/>
     <use xlink:href="#m9cacc8dafc" x="303.10375" y="164.618999" style="fill: #1f77b4; stroke: #1f77b4"/>
     <use xlink:href="#m9cacc8dafc" x="308.06375" y="166.669811" style="fill: #1f77b4; stroke: #1f77b4"/>
     <use xlink:href="#m9cacc8dafc" x="313.02375" y="168.644666" style="fill: #1f77b4; stroke: #1f77b4"/>
     <use xlink:href="#m9cacc8dafc" x="317.98375" y="170.547709" style="fill: #1f77b4; stroke: #1f77b4"/>
     <use xlink:href="#m9cacc8dafc" x="322.94375" y="172.382785" style="fill: #1f77b4; stroke: #1f77b4"/>
     <use xlink:href="#m9cacc8dafc" x="327.90375" y="174.153473" style="fill: #1f77b4; stroke: #1f77b4"/>
     <use xlink:href="#m9cacc8dafc" x="332.86375" y="175.863103" style="fill: #1f77b4; stroke: #1f77b4"/>
     <use xlink:href="#m9cacc8dafc" x="337.82375" y="177.514779" style="fill: #1f77b4; stroke: #1f77b4"/>
     <use xlink:href="#m9cacc8dafc" x="342.78375" y="179.111399" style="fill: #1f77b4; stroke: #1f77b4"/>
     <use xlink:href="#m9cacc8dafc" x="347.74375" y="180.655672" style="fill: #1f77b4; stroke: #1f77b4"/>
     <use xlink:href="#m9cacc8dafc" x="352.70375" y="182.150129" style="fill: #1f77b4; stroke: #1f77b4"/>
     <use xlink:href="#m9cacc8dafc" x="357.66375" y="183.597142" style="fill: #1f77b4; stroke: #1f77b4"/>
     <use xlink:href="#m9cacc8dafc" x="362.62375" y="184.998937" style="fill: #1f77b4; stroke: #1f77b4"/>
     <use xlink:href="#m9cacc8dafc" x="367.58375" y="186.3576" style="fill: #1f77b4; stroke: #1f77b4"/>
     <use xlink:href="#m9cacc8dafc" x="372.54375" y="187.67509" style="fill: #1f77b4; stroke: #1f77b4"/>
     <use xlink:href="#m9cacc8dafc" x="377.50375" y="188.953253" style="fill: #1f77b4; stroke: #1f77b4"/>
     <use xlink:href="#m9cacc8dafc" x="382.46375" y="190.193823" style="fill: #1f77b4; stroke: #1f77b4"/>
     <use xlink:href="#m9cacc8dafc" x="387.42375" y="191.398434" style="fill: #1f77b4; stroke: #1f77b4"/>
     <use xlink:href="#m9cacc8dafc" x="392.38375" y="192.568628" style="fill: #1f77b4; stroke: #1f77b4"/>
     <use xlink:href="#m9cacc8dafc" x="397.34375" y="193.705859" style="fill: #1f77b4; stroke: #1f77b4"/>
     <use xlink:href="#m9cacc8dafc" x="402.30375" y="194.8115" style="fill: #1f77b4; stroke: #1f77b4"/>
    </g>
   </g>
   <g id="matplotlib.axis_1">
    <g id="xtick_1">
     <g id="line2d_1">
      <defs>
       <path id="mbae3101e36" d="M 0 0 
L 0 3.5 
" style="stroke: #000000; stroke-width: 0.8"/>
      </defs>
      <g>
       <use xlink:href="#mbae3101e36" x="50.14375" y="273.312" style="stroke: #000000; stroke-width: 0.8"/>
      </g>
     </g>
     <g id="text_1">
      <!-- 0.0 -->
      <g transform="translate(42.192188 287.910437) scale(0.1 -0.1)">
       <defs>
        <path id="DejaVuSans-30" d="M 2034 4250 
Q 1547 4250 1301 3770 
Q 1056 3291 1056 2328 
Q 1056 1369 1301 889 
Q 1547 409 2034 409 
Q 2525 409 2770 889 
Q 3016 1369 3016 2328 
Q 3016 3291 2770 3770 
Q 2525 4250 2034 4250 
z
M 2034 4750 
Q 2819 4750 3233 4129 
Q 3647 3509 3647 2328 
Q 3647 1150 3233 529 
Q 2819 -91 2034 -91 
Q 1250 -91 836 529 
Q 422 1150 422 2328 
Q 422 3509 836 4129 
Q 1250 4750 2034 4750 
z
" transform="scale(0.015625)"/>
        <path id="DejaVuSans-2e" d="M 684 794 
L 1344 794 
L 1344 0 
L 684 0 
L 684 794 
z
" transform="scale(0.015625)"/>
       </defs>
       <use xlink:href="#DejaVuSans-30"/>
       <use xlink:href="#DejaVuSans-2e" x="63.623047"/>
       <use xlink:href="#DejaVuSans-30" x="95.410156"/>
      </g>
     </g>
    </g>
    <g id="xtick_2">
     <g id="line2d_2">
      <g>
       <use xlink:href="#mbae3101e36" x="99.74375" y="273.312" style="stroke: #000000; stroke-width: 0.8"/>
      </g>
     </g>
     <g id="text_2">
      <!-- 0.5 -->
      <g transform="translate(91.792188 287.910437) scale(0.1 -0.1)">
       <defs>
        <path id="DejaVuSans-35" d="M 691 4666 
L 3169 4666 
L 3169 4134 
L 1269 4134 
L 1269 2991 
Q 1406 3038 1543 3061 
Q 1681 3084 1819 3084 
Q 2600 3084 3056 2656 
Q 3513 2228 3513 1497 
Q 3513 744 3044 326 
Q 2575 -91 1722 -91 
Q 1428 -91 1123 -41 
Q 819 9 494 109 
L 494 744 
Q 775 591 1075 516 
Q 1375 441 1709 441 
Q 2250 441 2565 725 
Q 2881 1009 2881 1497 
Q 2881 1984 2565 2268 
Q 2250 2553 1709 2553 
Q 1456 2553 1204 2497 
Q 953 2441 691 2322 
L 691 4666 
z
" transform="scale(0.015625)"/>
       </defs>
       <use xlink:href="#DejaVuSans-30"/>
       <use xlink:href="#DejaVuSans-2e" x="63.623047"/>
       <use xlink:href="#DejaVuSans-35" x="95.410156"/>
      </g>
     </g>
    </g>
    <g id="xtick_3">
     <g id="line2d_3">
      <g>
       <use xlink:href="#mbae3101e36" x="149.34375" y="273.312" style="stroke: #000000; stroke-width: 0.8"/>
      </g>
     </g>
     <g id="text_3">
      <!-- 1.0 -->
      <g transform="translate(141.392188 287.910437) scale(0.1 -0.1)">
       <defs>
        <path id="DejaVuSans-31" d="M 794 531 
L 1825 531 
L 1825 4091 
L 703 3866 
L 703 4441 
L 1819 4666 
L 2450 4666 
L 2450 531 
L 3481 531 
L 3481 0 
L 794 0 
L 794 531 
z
" transform="scale(0.015625)"/>
       </defs>
       <use xlink:href="#DejaVuSans-31"/>
       <use xlink:href="#DejaVuSans-2e" x="63.623047"/>
       <use xlink:href="#DejaVuSans-30" x="95.410156"/>
      </g>
     </g>
    </g>
    <g id="xtick_4">
     <g id="line2d_4">
      <g>
       <use xlink:href="#mbae3101e36" x="198.94375" y="273.312" style="stroke: #000000; stroke-width: 0.8"/>
      </g>
     </g>
     <g id="text_4">
      <!-- 1.5 -->
      <g transform="translate(190.992188 287.910437) scale(0.1 -0.1)">
       <use xlink:href="#DejaVuSans-31"/>
       <use xlink:href="#DejaVuSans-2e" x="63.623047"/>
       <use xlink:href="#DejaVuSans-35" x="95.410156"/>
      </g>
     </g>
    </g>
    <g id="xtick_5">
     <g id="line2d_5">
      <g>
       <use xlink:href="#mbae3101e36" x="248.54375" y="273.312" style="stroke: #000000; stroke-width: 0.8"/>
      </g>
     </g>
     <g id="text_5">
      <!-- 2.0 -->
      <g transform="translate(240.592188 287.910437) scale(0.1 -0.1)">
       <defs>
        <path id="DejaVuSans-32" d="M 1228 531 
L 3431 531 
L 3431 0 
L 469 0 
L 469 531 
Q 828 903 1448 1529 
Q 2069 2156 2228 2338 
Q 2531 2678 2651 2914 
Q 2772 3150 2772 3378 
Q 2772 3750 2511 3984 
Q 2250 4219 1831 4219 
Q 1534 4219 1204 4116 
Q 875 4013 500 3803 
L 500 4441 
Q 881 4594 1212 4672 
Q 1544 4750 1819 4750 
Q 2544 4750 2975 4387 
Q 3406 4025 3406 3419 
Q 3406 3131 3298 2873 
Q 3191 2616 2906 2266 
Q 2828 2175 2409 1742 
Q 1991 1309 1228 531 
z
" transform="scale(0.015625)"/>
       </defs>
       <use xlink:href="#DejaVuSans-32"/>
       <use xlink:href="#DejaVuSans-2e" x="63.623047"/>
       <use xlink:href="#DejaVuSans-30" x="95.410156"/>
      </g>
     </g>
    </g>
    <g id="xtick_6">
     <g id="line2d_6">
      <g>
       <use xlink:href="#mbae3101e36" x="298.14375" y="273.312" style="stroke: #000000; stroke-width: 0.8"/>
      </g>
     </g>
     <g id="text_6">
      <!-- 2.5 -->
      <g transform="translate(290.192187 287.910437) scale(0.1 -0.1)">
       <use xlink:href="#DejaVuSans-32"/>
       <use xlink:href="#DejaVuSans-2e" x="63.623047"/>
       <use xlink:href="#DejaVuSans-35" x="95.410156"/>
      </g>
     </g>
    </g>
    <g id="xtick_7">
     <g id="line2d_7">
      <g>
       <use xlink:href="#mbae3101e36" x="347.74375" y="273.312" style="stroke: #000000; stroke-width: 0.8"/>
      </g>
     </g>
     <g id="text_7">
      <!-- 3.0 -->
      <g transform="translate(339.792188 287.910437) scale(0.1 -0.1)">
       <defs>
        <path id="DejaVuSans-33" d="M 2597 2516 
Q 3050 2419 3304 2112 
Q 3559 1806 3559 1356 
Q 3559 666 3084 287 
Q 2609 -91 1734 -91 
Q 1441 -91 1130 -33 
Q 819 25 488 141 
L 488 750 
Q 750 597 1062 519 
Q 1375 441 1716 441 
Q 2309 441 2620 675 
Q 2931 909 2931 1356 
Q 2931 1769 2642 2001 
Q 2353 2234 1838 2234 
L 1294 2234 
L 1294 2753 
L 1863 2753 
Q 2328 2753 2575 2939 
Q 2822 3125 2822 3475 
Q 2822 3834 2567 4026 
Q 2313 4219 1838 4219 
Q 1578 4219 1281 4162 
Q 984 4106 628 3988 
L 628 4550 
Q 988 4650 1302 4700 
Q 1616 4750 1894 4750 
Q 2613 4750 3031 4423 
Q 3450 4097 3450 3541 
Q 3450 3153 3228 2886 
Q 3006 2619 2597 2516 
z
" transform="scale(0.015625)"/>
       </defs>
       <use xlink:href="#DejaVuSans-33"/>
       <use xlink:href="#DejaVuSans-2e" x="63.623047"/>
       <use xlink:href="#DejaVuSans-30" x="95.410156"/>
      </g>
     </g>
    </g>
    <g id="xtick_8">
     <g id="line2d_8">
      <g>
       <use xlink:href="#mbae3101e36" x="397.34375" y="273.312" style="stroke: #000000; stroke-width: 0.8"/>
      </g>
     </g>
     <g id="text_8">
      <!-- 3.5 -->
      <g transform="translate(389.392187 287.910437) scale(0.1 -0.1)">
       <use xlink:href="#DejaVuSans-33"/>
       <use xlink:href="#DejaVuSans-2e" x="63.623047"/>
       <use xlink:href="#DejaVuSans-35" x="95.410156"/>
      </g>
     </g>
    </g>
    <g id="text_9">
     <!-- t, ps -->
     <g transform="translate(217.786563 301.588562) scale(0.1 -0.1)">
      <defs>
       <path id="DejaVuSans-74" d="M 1172 4494 
L 1172 3500 
L 2356 3500 
L 2356 3053 
L 1172 3053 
L 1172 1153 
Q 1172 725 1289 603 
Q 1406 481 1766 481 
L 2356 481 
L 2356 0 
L 1766 0 
Q 1100 0 847 248 
Q 594 497 594 1153 
L 594 3053 
L 172 3053 
L 172 3500 
L 594 3500 
L 594 4494 
L 1172 4494 
z
" transform="scale(0.015625)"/>
       <path id="DejaVuSans-2c" d="M 750 794 
L 1409 794 
L 1409 256 
L 897 -744 
L 494 -744 
L 750 256 
L 750 794 
z
" transform="scale(0.015625)"/>
       <path id="DejaVuSans-20" transform="scale(0.015625)"/>
       <path id="DejaVuSans-70" d="M 1159 525 
L 1159 -1331 
L 581 -1331 
L 581 3500 
L 1159 3500 
L 1159 2969 
Q 1341 3281 1617 3432 
Q 1894 3584 2278 3584 
Q 2916 3584 3314 3078 
Q 3713 2572 3713 1747 
Q 3713 922 3314 415 
Q 2916 -91 2278 -91 
Q 1894 -91 1617 61 
Q 1341 213 1159 525 
z
M 3116 1747 
Q 3116 2381 2855 2742 
Q 2594 3103 2138 3103 
Q 1681 3103 1420 2742 
Q 1159 2381 1159 1747 
Q 1159 1113 1420 752 
Q 1681 391 2138 391 
Q 2594 391 2855 752 
Q 3116 1113 3116 1747 
z
" transform="scale(0.015625)"/>
       <path id="DejaVuSans-73" d="M 2834 3397 
L 2834 2853 
Q 2591 2978 2328 3040 
Q 2066 3103 1784 3103 
Q 1356 3103 1142 2972 
Q 928 2841 928 2578 
Q 928 2378 1081 2264 
Q 1234 2150 1697 2047 
L 1894 2003 
Q 2506 1872 2764 1633 
Q 3022 1394 3022 966 
Q 3022 478 2636 193 
Q 2250 -91 1575 -91 
Q 1294 -91 989 -36 
Q 684 19 347 128 
L 347 722 
Q 666 556 975 473 
Q 1284 391 1588 391 
Q 1994 391 2212 530 
Q 2431 669 2431 922 
Q 2431 1156 2273 1281 
Q 2116 1406 1581 1522 
L 1381 1569 
Q 847 1681 609 1914 
Q 372 2147 372 2553 
Q 372 3047 722 3315 
Q 1072 3584 1716 3584 
Q 2034 3584 2315 3537 
Q 2597 3491 2834 3397 
z
" transform="scale(0.015625)"/>
      </defs>
      <use xlink:href="#DejaVuSans-74"/>
      <use xlink:href="#DejaVuSans-2c" x="39.208984"/>
      <use xlink:href="#DejaVuSans-20" x="70.996094"/>
      <use xlink:href="#DejaVuSans-70" x="102.783203"/>
      <use xlink:href="#DejaVuSans-73" x="166.259766"/>
     </g>
    </g>
   </g>
   <g id="matplotlib.axis_2">
    <g id="ytick_1">
     <g id="line2d_9">
      <defs>
       <path id="m4419bccddb" d="M 0 0 
L -3.5 0 
" style="stroke: #000000; stroke-width: 0.8"/>
      </defs>
      <g>
       <use xlink:href="#m4419bccddb" x="50.14375" y="273.312" style="stroke: #000000; stroke-width: 0.8"/>
      </g>
     </g>
     <g id="text_10">
      <!-- 0.00 -->
      <g transform="translate(20.878125 277.111219) scale(0.1 -0.1)">
       <use xlink:href="#DejaVuSans-30"/>
       <use xlink:href="#DejaVuSans-2e" x="63.623047"/>
       <use xlink:href="#DejaVuSans-30" x="95.410156"/>
       <use xlink:href="#DejaVuSans-30" x="159.033203"/>
      </g>
     </g>
    </g>
    <g id="ytick_2">
     <g id="line2d_10">
      <g>
       <use xlink:href="#m4419bccddb" x="50.14375" y="242.00225" style="stroke: #000000; stroke-width: 0.8"/>
      </g>
     </g>
     <g id="text_11">
      <!-- 0.25 -->
      <g transform="translate(20.878125 245.801469) scale(0.1 -0.1)">
       <use xlink:href="#DejaVuSans-30"/>
       <use xlink:href="#DejaVuSans-2e" x="63.623047"/>
       <use xlink:href="#DejaVuSans-32" x="95.410156"/>
       <use xlink:href="#DejaVuSans-35" x="159.033203"/>
      </g>
     </g>
    </g>
    <g id="ytick_3">
     <g id="line2d_11">
      <g>
       <use xlink:href="#m4419bccddb" x="50.14375" y="210.6925" style="stroke: #000000; stroke-width: 0.8"/>
      </g>
     </g>
     <g id="text_12">
      <!-- 0.50 -->
      <g transform="translate(20.878125 214.491719) scale(0.1 -0.1)">
       <use xlink:href="#DejaVuSans-30"/>
       <use xlink:href="#DejaVuSans-2e" x="63.623047"/>
       <use xlink:href="#DejaVuSans-35" x="95.410156"/>
       <use xlink:href="#DejaVuSans-30" x="159.033203"/>
      </g>
     </g>
    </g>
    <g id="ytick_4">
     <g id="line2d_12">
      <g>
       <use xlink:href="#m4419bccddb" x="50.14375" y="179.382751" style="stroke: #000000; stroke-width: 0.8"/>
      </g>
     </g>
     <g id="text_13">
      <!-- 0.75 -->
      <g transform="translate(20.878125 183.181969) scale(0.1 -0.1)">
       <defs>
        <path id="DejaVuSans-37" d="M 525 4666 
L 3525 4666 
L 3525 4397 
L 1831 0 
L 1172 0 
L 2766 4134 
L 525 4134 
L 525 4666 
z
" transform="scale(0.015625)"/>
       </defs>
       <use xlink:href="#DejaVuSans-30"/>
       <use xlink:href="#DejaVuSans-2e" x="63.623047"/>
       <use xlink:href="#DejaVuSans-37" x="95.410156"/>
       <use xlink:href="#DejaVuSans-35" x="159.033203"/>
      </g>
     </g>
    </g>
    <g id="ytick_5">
     <g id="line2d_13">
      <g>
       <use xlink:href="#m4419bccddb" x="50.14375" y="148.073001" style="stroke: #000000; stroke-width: 0.8"/>
      </g>
     </g>
     <g id="text_14">
      <!-- 1.00 -->
      <g transform="translate(20.878125 151.87222) scale(0.1 -0.1)">
       <use xlink:href="#DejaVuSans-31"/>
       <use xlink:href="#DejaVuSans-2e" x="63.623047"/>
       <use xlink:href="#DejaVuSans-30" x="95.410156"/>
       <use xlink:href="#DejaVuSans-30" x="159.033203"/>
      </g>
     </g>
    </g>
    <g id="ytick_6">
     <g id="line2d_14">
      <g>
       <use xlink:href="#m4419bccddb" x="50.14375" y="116.763251" style="stroke: #000000; stroke-width: 0.8"/>
      </g>
     </g>
     <g id="text_15">
      <!-- 1.25 -->
      <g transform="translate(20.878125 120.56247) scale(0.1 -0.1)">
       <use xlink:href="#DejaVuSans-31"/>
       <use xlink:href="#DejaVuSans-2e" x="63.623047"/>
       <use xlink:href="#DejaVuSans-32" x="95.410156"/>
       <use xlink:href="#DejaVuSans-35" x="159.033203"/>
      </g>
     </g>
    </g>
    <g id="ytick_7">
     <g id="line2d_15">
      <g>
       <use xlink:href="#m4419bccddb" x="50.14375" y="85.453501" style="stroke: #000000; stroke-width: 0.8"/>
      </g>
     </g>
     <g id="text_16">
      <!-- 1.50 -->
      <g transform="translate(20.878125 89.25272) scale(0.1 -0.1)">
       <use xlink:href="#DejaVuSans-31"/>
       <use xlink:href="#DejaVuSans-2e" x="63.623047"/>
       <use xlink:href="#DejaVuSans-35" x="95.410156"/>
       <use xlink:href="#DejaVuSans-30" x="159.033203"/>
      </g>
     </g>
    </g>
    <g id="ytick_8">
     <g id="line2d_16">
      <g>
       <use xlink:href="#m4419bccddb" x="50.14375" y="54.143752" style="stroke: #000000; stroke-width: 0.8"/>
      </g>
     </g>
     <g id="text_17">
      <!-- 1.75 -->
      <g transform="translate(20.878125 57.94297) scale(0.1 -0.1)">
       <use xlink:href="#DejaVuSans-31"/>
       <use xlink:href="#DejaVuSans-2e" x="63.623047"/>
       <use xlink:href="#DejaVuSans-37" x="95.410156"/>
       <use xlink:href="#DejaVuSans-35" x="159.033203"/>
      </g>
     </g>
    </g>
    <g id="ytick_9">
     <g id="line2d_17">
      <g>
       <use xlink:href="#m4419bccddb" x="50.14375" y="22.834002" style="stroke: #000000; stroke-width: 0.8"/>
      </g>
     </g>
     <g id="text_18">
      <!-- 2.00 -->
      <g transform="translate(20.878125 26.63322) scale(0.1 -0.1)">
       <use xlink:href="#DejaVuSans-32"/>
       <use xlink:href="#DejaVuSans-2e" x="63.623047"/>
       <use xlink:href="#DejaVuSans-30" x="95.410156"/>
       <use xlink:href="#DejaVuSans-30" x="159.033203"/>
      </g>
     </g>
    </g>
    <g id="text_19">
     <!-- n, mol -->
     <g transform="translate(14.798438 155.921625) rotate(-90) scale(0.1 -0.1)">
      <defs>
       <path id="DejaVuSans-6e" d="M 3513 2113 
L 3513 0 
L 2938 0 
L 2938 2094 
Q 2938 2591 2744 2837 
Q 2550 3084 2163 3084 
Q 1697 3084 1428 2787 
Q 1159 2491 1159 1978 
L 1159 0 
L 581 0 
L 581 3500 
L 1159 3500 
L 1159 2956 
Q 1366 3272 1645 3428 
Q 1925 3584 2291 3584 
Q 2894 3584 3203 3211 
Q 3513 2838 3513 2113 
z
" transform="scale(0.015625)"/>
       <path id="DejaVuSans-6d" d="M 3328 2828 
Q 3544 3216 3844 3400 
Q 4144 3584 4550 3584 
Q 5097 3584 5394 3201 
Q 5691 2819 5691 2113 
L 5691 0 
L 5113 0 
L 5113 2094 
Q 5113 2597 4934 2840 
Q 4756 3084 4391 3084 
Q 3944 3084 3684 2787 
Q 3425 2491 3425 1978 
L 3425 0 
L 2847 0 
L 2847 2094 
Q 2847 2600 2669 2842 
Q 2491 3084 2119 3084 
Q 1678 3084 1418 2786 
Q 1159 2488 1159 1978 
L 1159 0 
L 581 0 
L 581 3500 
L 1159 3500 
L 1159 2956 
Q 1356 3278 1631 3431 
Q 1906 3584 2284 3584 
Q 2666 3584 2933 3390 
Q 3200 3197 3328 2828 
z
" transform="scale(0.015625)"/>
       <path id="DejaVuSans-6f" d="M 1959 3097 
Q 1497 3097 1228 2736 
Q 959 2375 959 1747 
Q 959 1119 1226 758 
Q 1494 397 1959 397 
Q 2419 397 2687 759 
Q 2956 1122 2956 1747 
Q 2956 2369 2687 2733 
Q 2419 3097 1959 3097 
z
M 1959 3584 
Q 2709 3584 3137 3096 
Q 3566 2609 3566 1747 
Q 3566 888 3137 398 
Q 2709 -91 1959 -91 
Q 1206 -91 779 398 
Q 353 888 353 1747 
Q 353 2609 779 3096 
Q 1206 3584 1959 3584 
z
" transform="scale(0.015625)"/>
       <path id="DejaVuSans-6c" d="M 603 4863 
L 1178 4863 
L 1178 0 
L 603 0 
L 603 4863 
z
" transform="scale(0.015625)"/>
      </defs>
      <use xlink:href="#DejaVuSans-6e"/>
      <use xlink:href="#DejaVuSans-2c" x="63.378906"/>
      <use xlink:href="#DejaVuSans-20" x="95.166016"/>
      <use xlink:href="#DejaVuSans-6d" x="126.953125"/>
      <use xlink:href="#DejaVuSans-6f" x="224.365234"/>
      <use xlink:href="#DejaVuSans-6c" x="285.546875"/>
     </g>
    </g>
   </g>
   <g id="patch_3">
    <path d="M 50.14375 273.312 
L 50.14375 7.2 
" style="fill: none; stroke: #000000; stroke-width: 0.8; stroke-linejoin: miter; stroke-linecap: square"/>
   </g>
   <g id="patch_4">
    <path d="M 407.26375 273.312 
L 407.26375 7.2 
" style="fill: none; stroke: #000000; stroke-width: 0.8; stroke-linejoin: miter; stroke-linecap: square"/>
   </g>
   <g id="patch_5">
    <path d="M 50.14375 273.312 
L 407.26375 273.312 
" style="fill: none; stroke: #000000; stroke-width: 0.8; stroke-linejoin: miter; stroke-linecap: square"/>
   </g>
   <g id="patch_6">
    <path d="M 50.14375 7.2 
L 407.26375 7.2 
" style="fill: none; stroke: #000000; stroke-width: 0.8; stroke-linejoin: miter; stroke-linecap: square"/>
   </g>
  </g>
 </g>
 <defs>
  <clipPath id="pa7a214c201">
   <rect x="50.14375" y="7.2" width="357.12" height="266.112"/>
  </clipPath>
 </defs>
</svg>
