<?xml version="1.0" encoding="utf-8" standalone="no"?>
<!DOCTYPE svg PUBLIC "-//W3C//DTD SVG 1.1//EN"
  "http://www.w3.org/Graphics/SVG/1.1/DTD/svg11.dtd">
<svg xmlns:xlink="http://www.w3.org/1999/xlink" width="422.843437pt" height="310.86825pt" viewBox="0 0 422.843437 310.86825" xmlns="http://www.w3.org/2000/svg" version="1.1">
 <metadata>
  <rdf:RDF xmlns:dc="http://purl.org/dc/elements/1.1/" xmlns:cc="http://creativecommons.org/ns#" xmlns:rdf="http://www.w3.org/1999/02/22-rdf-syntax-ns#">
   <cc:Work>
    <dc:type rdf:resource="http://purl.org/dc/dcmitype/StillImage"/>
    <dc:date>2023-10-13T21:53:27.915334</dc:date>
    <dc:format>image/svg+xml</dc:format>
    <dc:creator>
     <cc:Agent>
      <dc:title>Matplotlib v3.7.1, https://matplotlib.org/</dc:title>
     </cc:Agent>
    </dc:creator>
   </cc:Work>
  </rdf:RDF>
 </metadata>
 <defs>
  <style type="text/css">*{stroke-linejoin: round; stroke-linecap: butt}</style>
 </defs>
 <g id="figure_1">
  <g id="patch_1">
   <path d="M 0 310.86825 
L 422.843437 310.86825 
L 422.843437 0 
L 0 0 
z
" style="fill: #ffffff"/>
  </g>
  <g id="axes_1">
   <g id="patch_2">
    <path d="M 58.523438 273.312 
L 415.643438 273.312 
L 415.643438 7.2 
L 58.523438 7.2 
z
" style="fill: #ffffff"/>
   </g>
   <g id="PathCollection_1">
    <defs>
     <path id="mcb7fd66743" d="M 0 3 
C 0.795609 3 1.55874 2.683901 2.12132 2.12132 
C 2.683901 1.55874 3 0.795609 3 0 
C 3 -0.795609 2.683901 -1.55874 2.12132 -2.12132 
C 1.55874 -2.683901 0.795609 -3 0 -3 
C -0.795609 -3 -1.55874 -2.683901 -2.12132 -2.12132 
C -2.683901 -1.55874 -3 -0.795609 -3 0 
C -3 0.795609 -2.683901 1.55874 -2.12132 2.12132 
C -1.55874 2.683901 -0.795609 3 0 3 
z
" style="stroke: #1f77b4"/>
    </defs>
    <g clip-path="url(#p6bd5e2fb4a)">
     <use xlink:href="#mcb7fd66743" x="58.523438" y="140.256" style="fill: #1f77b4; stroke: #1f77b4"/>
     <use xlink:href="#mcb7fd66743" x="63.483438" y="140.256" style="fill: #1f77b4; stroke: #1f77b4"/>
     <use xlink:href="#mcb7fd66743" x="68.443438" y="140.256" style="fill: #1f77b4; stroke: #1f77b4"/>
     <use xlink:href="#mcb7fd66743" x="73.403438" y="140.256" style="fill: #1f77b4; stroke: #1f77b4"/>
     <use xlink:href="#mcb7fd66743" x="78.363438" y="140.256" style="fill: #1f77b4; stroke: #1f77b4"/>
     <use xlink:href="#mcb7fd66743" x="83.323438" y="140.256" style="fill: #1f77b4; stroke: #1f77b4"/>
     <use xlink:href="#mcb7fd66743" x="88.283438" y="140.256" style="fill: #1f77b4; stroke: #1f77b4"/>
     <use xlink:href="#mcb7fd66743" x="93.243438" y="140.256" style="fill: #1f77b4; stroke: #1f77b4"/>
     <use xlink:href="#mcb7fd66743" x="98.203438" y="140.256" style="fill: #1f77b4; stroke: #1f77b4"/>
     <use xlink:href="#mcb7fd66743" x="103.163438" y="140.256" style="fill: #1f77b4; stroke: #1f77b4"/>
     <use xlink:href="#mcb7fd66743" x="108.123438" y="140.256" style="fill: #1f77b4; stroke: #1f77b4"/>
     <use xlink:href="#mcb7fd66743" x="113.083438" y="140.256" style="fill: #1f77b4; stroke: #1f77b4"/>
     <use xlink:href="#mcb7fd66743" x="118.043438" y="140.256" style="fill: #1f77b4; stroke: #1f77b4"/>
     <use xlink:href="#mcb7fd66743" x="123.003438" y="140.256" style="fill: #1f77b4; stroke: #1f77b4"/>
     <use xlink:href="#mcb7fd66743" x="127.963438" y="140.256" style="fill: #1f77b4; stroke: #1f77b4"/>
     <use xlink:href="#mcb7fd66743" x="132.923438" y="140.256" style="fill: #1f77b4; stroke: #1f77b4"/>
     <use xlink:href="#mcb7fd66743" x="137.883438" y="140.256" style="fill: #1f77b4; stroke: #1f77b4"/>
     <use xlink:href="#mcb7fd66743" x="142.843438" y="140.256" style="fill: #1f77b4; stroke: #1f77b4"/>
     <use xlink:href="#mcb7fd66743" x="147.803438" y="140.256" style="fill: #1f77b4; stroke: #1f77b4"/>
     <use xlink:href="#mcb7fd66743" x="152.763438" y="140.256" style="fill: #1f77b4; stroke: #1f77b4"/>
     <use xlink:href="#mcb7fd66743" x="157.723438" y="140.256" style="fill: #1f77b4; stroke: #1f77b4"/>
     <use xlink:href="#mcb7fd66743" x="162.683438" y="140.256" style="fill: #1f77b4; stroke: #1f77b4"/>
     <use xlink:href="#mcb7fd66743" x="167.643438" y="140.256" style="fill: #1f77b4; stroke: #1f77b4"/>
     <use xlink:href="#mcb7fd66743" x="172.603438" y="140.256" style="fill: #1f77b4; stroke: #1f77b4"/>
     <use xlink:href="#mcb7fd66743" x="177.563438" y="140.256" style="fill: #1f77b4; stroke: #1f77b4"/>
     <use xlink:href="#mcb7fd66743" x="182.523438" y="140.256" style="fill: #1f77b4; stroke: #1f77b4"/>
     <use xlink:href="#mcb7fd66743" x="187.483438" y="140.256" style="fill: #1f77b4; stroke: #1f77b4"/>
     <use xlink:href="#mcb7fd66743" x="192.443438" y="140.256" style="fill: #1f77b4; stroke: #1f77b4"/>
     <use xlink:href="#mcb7fd66743" x="197.403438" y="140.256" style="fill: #1f77b4; stroke: #1f77b4"/>
     <use xlink:href="#mcb7fd66743" x="202.363438" y="140.256" style="fill: #1f77b4; stroke: #1f77b4"/>
     <use xlink:href="#mcb7fd66743" x="207.323438" y="140.256" style="fill: #1f77b4; stroke: #1f77b4"/>
     <use xlink:href="#mcb7fd66743" x="212.283438" y="140.256" style="fill: #1f77b4; stroke: #1f77b4"/>
     <use xlink:href="#mcb7fd66743" x="217.243438" y="140.256" style="fill: #1f77b4; stroke: #1f77b4"/>
     <use xlink:href="#mcb7fd66743" x="222.203438" y="140.256" style="fill: #1f77b4; stroke: #1f77b4"/>
     <use xlink:href="#mcb7fd66743" x="227.163438" y="140.256" style="fill: #1f77b4; stroke: #1f77b4"/>
     <use xlink:href="#mcb7fd66743" x="232.123437" y="140.256" style="fill: #1f77b4; stroke: #1f77b4"/>
     <use xlink:href="#mcb7fd66743" x="237.083438" y="140.256" style="fill: #1f77b4; stroke: #1f77b4"/>
     <use xlink:href="#mcb7fd66743" x="242.043438" y="140.256" style="fill: #1f77b4; stroke: #1f77b4"/>
     <use xlink:href="#mcb7fd66743" x="247.003438" y="140.256" style="fill: #1f77b4; stroke: #1f77b4"/>
     <use xlink:href="#mcb7fd66743" x="251.963438" y="140.256" style="fill: #1f77b4; stroke: #1f77b4"/>
     <use xlink:href="#mcb7fd66743" x="256.923438" y="140.256" style="fill: #1f77b4; stroke: #1f77b4"/>
     <use xlink:href="#mcb7fd66743" x="261.883438" y="140.256" style="fill: #1f77b4; stroke: #1f77b4"/>
     <use xlink:href="#mcb7fd66743" x="266.843438" y="140.256" style="fill: #1f77b4; stroke: #1f77b4"/>
     <use xlink:href="#mcb7fd66743" x="271.803438" y="140.256" style="fill: #1f77b4; stroke: #1f77b4"/>
     <use xlink:href="#mcb7fd66743" x="276.763438" y="140.256" style="fill: #1f77b4; stroke: #1f77b4"/>
     <use xlink:href="#mcb7fd66743" x="281.723438" y="140.256" style="fill: #1f77b4; stroke: #1f77b4"/>
     <use xlink:href="#mcb7fd66743" x="286.683438" y="140.256" style="fill: #1f77b4; stroke: #1f77b4"/>
     <use xlink:href="#mcb7fd66743" x="291.643438" y="140.256" style="fill: #1f77b4; stroke: #1f77b4"/>
     <use xlink:href="#mcb7fd66743" x="296.603438" y="140.256" style="fill: #1f77b4; stroke: #1f77b4"/>
     <use xlink:href="#mcb7fd66743" x="301.563438" y="140.256" style="fill: #1f77b4; stroke: #1f77b4"/>
     <use xlink:href="#mcb7fd66743" x="306.523438" y="140.256" style="fill: #1f77b4; stroke: #1f77b4"/>
     <use xlink:href="#mcb7fd66743" x="311.483438" y="140.256" style="fill: #1f77b4; stroke: #1f77b4"/>
     <use xlink:href="#mcb7fd66743" x="316.443438" y="140.256" style="fill: #1f77b4; stroke: #1f77b4"/>
     <use xlink:href="#mcb7fd66743" x="321.403438" y="140.256" style="fill: #1f77b4; stroke: #1f77b4"/>
     <use xlink:href="#mcb7fd66743" x="326.363438" y="140.256" style="fill: #1f77b4; stroke: #1f77b4"/>
     <use xlink:href="#mcb7fd66743" x="331.323438" y="140.256" style="fill: #1f77b4; stroke: #1f77b4"/>
     <use xlink:href="#mcb7fd66743" x="336.283438" y="140.256" style="fill: #1f77b4; stroke: #1f77b4"/>
     <use xlink:href="#mcb7fd66743" x="341.243438" y="140.256" style="fill: #1f77b4; stroke: #1f77b4"/>
     <use xlink:href="#mcb7fd66743" x="346.203438" y="140.256" style="fill: #1f77b4; stroke: #1f77b4"/>
     <use xlink:href="#mcb7fd66743" x="351.163438" y="140.256" style="fill: #1f77b4; stroke: #1f77b4"/>
     <use xlink:href="#mcb7fd66743" x="356.123438" y="140.256" style="fill: #1f77b4; stroke: #1f77b4"/>
     <use xlink:href="#mcb7fd66743" x="361.083438" y="140.256" style="fill: #1f77b4; stroke: #1f77b4"/>
     <use xlink:href="#mcb7fd66743" x="366.043438" y="140.256" style="fill: #1f77b4; stroke: #1f77b4"/>
     <use xlink:href="#mcb7fd66743" x="371.003438" y="140.256" style="fill: #1f77b4; stroke: #1f77b4"/>
     <use xlink:href="#mcb7fd66743" x="375.963438" y="140.256" style="fill: #1f77b4; stroke: #1f77b4"/>
     <use xlink:href="#mcb7fd66743" x="380.923438" y="140.256" style="fill: #1f77b4; stroke: #1f77b4"/>
     <use xlink:href="#mcb7fd66743" x="385.883438" y="140.256" style="fill: #1f77b4; stroke: #1f77b4"/>
     <use xlink:href="#mcb7fd66743" x="390.843437" y="140.256" style="fill: #1f77b4; stroke: #1f77b4"/>
     <use xlink:href="#mcb7fd66743" x="395.803438" y="140.256" style="fill: #1f77b4; stroke: #1f77b4"/>
     <use xlink:href="#mcb7fd66743" x="400.763438" y="140.256" style="fill: #1f77b4; stroke: #1f77b4"/>
     <use xlink:href="#mcb7fd66743" x="405.723437" y="140.256" style="fill: #1f77b4; stroke: #1f77b4"/>
     <use xlink:href="#mcb7fd66743" x="410.683438" y="140.256" style="fill: #1f77b4; stroke: #1f77b4"/>
    </g>
   </g>
   <g id="matplotlib.axis_1">
    <g id="xtick_1">
     <g id="line2d_1">
      <defs>
       <path id="m7ca9073f3a" d="M 0 0 
L 0 3.5 
" style="stroke: #000000; stroke-width: 0.8"/>
      </defs>
      <g>
       <use xlink:href="#m7ca9073f3a" x="58.523438" y="273.312" style="stroke: #000000; stroke-width: 0.8"/>
      </g>
     </g>
     <g id="text_1">
      <!-- 0.0 -->
      <g transform="translate(50.571875 287.910437) scale(0.1 -0.1)">
       <defs>
        <path id="DejaVuSans-30" d="M 2034 4250 
Q 1547 4250 1301 3770 
Q 1056 3291 1056 2328 
Q 1056 1369 1301 889 
Q 1547 409 2034 409 
Q 2525 409 2770 889 
Q 3016 1369 3016 2328 
Q 3016 3291 2770 3770 
Q 2525 4250 2034 4250 
z
M 2034 4750 
Q 2819 4750 3233 4129 
Q 3647 3509 3647 2328 
Q 3647 1150 3233 529 
Q 2819 -91 2034 -91 
Q 1250 -91 836 529 
Q 422 1150 422 2328 
Q 422 3509 836 4129 
Q 1250 4750 2034 4750 
z
" transform="scale(0.015625)"/>
        <path id="DejaVuSans-2e" d="M 684 794 
L 1344 794 
L 1344 0 
L 684 0 
L 684 794 
z
" transform="scale(0.015625)"/>
       </defs>
       <use xlink:href="#DejaVuSans-30"/>
       <use xlink:href="#DejaVuSans-2e" x="63.623047"/>
       <use xlink:href="#DejaVuSans-30" x="95.410156"/>
      </g>
     </g>
    </g>
    <g id="xtick_2">
     <g id="line2d_2">
      <g>
       <use xlink:href="#m7ca9073f3a" x="108.123438" y="273.312" style="stroke: #000000; stroke-width: 0.8"/>
      </g>
     </g>
     <g id="text_2">
      <!-- 0.5 -->
      <g transform="translate(100.171875 287.910437) scale(0.1 -0.1)">
       <defs>
        <path id="DejaVuSans-35" d="M 691 4666 
L 3169 4666 
L 3169 4134 
L 1269 4134 
L 1269 2991 
Q 1406 3038 1543 3061 
Q 1681 3084 1819 3084 
Q 2600 3084 3056 2656 
Q 3513 2228 3513 1497 
Q 3513 744 3044 326 
Q 2575 -91 1722 -91 
Q 1428 -91 1123 -41 
Q 819 9 494 109 
L 494 744 
Q 775 591 1075 516 
Q 1375 441 1709 441 
Q 2250 441 2565 725 
Q 2881 1009 2881 1497 
Q 2881 1984 2565 2268 
Q 2250 2553 1709 2553 
Q 1456 2553 1204 2497 
Q 953 2441 691 2322 
L 691 4666 
z
" transform="scale(0.015625)"/>
       </defs>
       <use xlink:href="#DejaVuSans-30"/>
       <use xlink:href="#DejaVuSans-2e" x="63.623047"/>
       <use xlink:href="#DejaVuSans-35" x="95.410156"/>
      </g>
     </g>
    </g>
    <g id="xtick_3">
     <g id="line2d_3">
      <g>
       <use xlink:href="#m7ca9073f3a" x="157.723438" y="273.312" style="stroke: #000000; stroke-width: 0.8"/>
      </g>
     </g>
     <g id="text_3">
      <!-- 1.0 -->
      <g transform="translate(149.771875 287.910437) scale(0.1 -0.1)">
       <defs>
        <path id="DejaVuSans-31" d="M 794 531 
L 1825 531 
L 1825 4091 
L 703 3866 
L 703 4441 
L 1819 4666 
L 2450 4666 
L 2450 531 
L 3481 531 
L 3481 0 
L 794 0 
L 794 531 
z
" transform="scale(0.015625)"/>
       </defs>
       <use xlink:href="#DejaVuSans-31"/>
       <use xlink:href="#DejaVuSans-2e" x="63.623047"/>
       <use xlink:href="#DejaVuSans-30" x="95.410156"/>
      </g>
     </g>
    </g>
    <g id="xtick_4">
     <g id="line2d_4">
      <g>
       <use xlink:href="#m7ca9073f3a" x="207.323438" y="273.312" style="stroke: #000000; stroke-width: 0.8"/>
      </g>
     </g>
     <g id="text_4">
      <!-- 1.5 -->
      <g transform="translate(199.371875 287.910437) scale(0.1 -0.1)">
       <use xlink:href="#DejaVuSans-31"/>
       <use xlink:href="#DejaVuSans-2e" x="63.623047"/>
       <use xlink:href="#DejaVuSans-35" x="95.410156"/>
      </g>
     </g>
    </g>
    <g id="xtick_5">
     <g id="line2d_5">
      <g>
       <use xlink:href="#m7ca9073f3a" x="256.923438" y="273.312" style="stroke: #000000; stroke-width: 0.8"/>
      </g>
     </g>
     <g id="text_5">
      <!-- 2.0 -->
      <g transform="translate(248.971875 287.910437) scale(0.1 -0.1)">
       <defs>
        <path id="DejaVuSans-32" d="M 1228 531 
L 3431 531 
L 3431 0 
L 469 0 
L 469 531 
Q 828 903 1448 1529 
Q 2069 2156 2228 2338 
Q 2531 2678 2651 2914 
Q 2772 3150 2772 3378 
Q 2772 3750 2511 3984 
Q 2250 4219 1831 4219 
Q 1534 4219 1204 4116 
Q 875 4013 500 3803 
L 500 4441 
Q 881 4594 1212 4672 
Q 1544 4750 1819 4750 
Q 2544 4750 2975 4387 
Q 3406 4025 3406 3419 
Q 3406 3131 3298 2873 
Q 3191 2616 2906 2266 
Q 2828 2175 2409 1742 
Q 1991 1309 1228 531 
z
" transform="scale(0.015625)"/>
       </defs>
       <use xlink:href="#DejaVuSans-32"/>
       <use xlink:href="#DejaVuSans-2e" x="63.623047"/>
       <use xlink:href="#DejaVuSans-30" x="95.410156"/>
      </g>
     </g>
    </g>
    <g id="xtick_6">
     <g id="line2d_6">
      <g>
       <use xlink:href="#m7ca9073f3a" x="306.523438" y="273.312" style="stroke: #000000; stroke-width: 0.8"/>
      </g>
     </g>
     <g id="text_6">
      <!-- 2.5 -->
      <g transform="translate(298.571875 287.910437) scale(0.1 -0.1)">
       <use xlink:href="#DejaVuSans-32"/>
       <use xlink:href="#DejaVuSans-2e" x="63.623047"/>
       <use xlink:href="#DejaVuSans-35" x="95.410156"/>
      </g>
     </g>
    </g>
    <g id="xtick_7">
     <g id="line2d_7">
      <g>
       <use xlink:href="#m7ca9073f3a" x="356.123438" y="273.312" style="stroke: #000000; stroke-width: 0.8"/>
      </g>
     </g>
     <g id="text_7">
      <!-- 3.0 -->
      <g transform="translate(348.171875 287.910437) scale(0.1 -0.1)">
       <defs>
        <path id="DejaVuSans-33" d="M 2597 2516 
Q 3050 2419 3304 2112 
Q 3559 1806 3559 1356 
Q 3559 666 3084 287 
Q 2609 -91 1734 -91 
Q 1441 -91 1130 -33 
Q 819 25 488 141 
L 488 750 
Q 750 597 1062 519 
Q 1375 441 1716 441 
Q 2309 441 2620 675 
Q 2931 909 2931 1356 
Q 2931 1769 2642 2001 
Q 2353 2234 1838 2234 
L 1294 2234 
L 1294 2753 
L 1863 2753 
Q 2328 2753 2575 2939 
Q 2822 3125 2822 3475 
Q 2822 3834 2567 4026 
Q 2313 4219 1838 4219 
Q 1578 4219 1281 4162 
Q 984 4106 628 3988 
L 628 4550 
Q 988 4650 1302 4700 
Q 1616 4750 1894 4750 
Q 2613 4750 3031 4423 
Q 3450 4097 3450 3541 
Q 3450 3153 3228 2886 
Q 3006 2619 2597 2516 
z
" transform="scale(0.015625)"/>
       </defs>
       <use xlink:href="#DejaVuSans-33"/>
       <use xlink:href="#DejaVuSans-2e" x="63.623047"/>
       <use xlink:href="#DejaVuSans-30" x="95.410156"/>
      </g>
     </g>
    </g>
    <g id="xtick_8">
     <g id="line2d_8">
      <g>
       <use xlink:href="#m7ca9073f3a" x="405.723437" y="273.312" style="stroke: #000000; stroke-width: 0.8"/>
      </g>
     </g>
     <g id="text_8">
      <!-- 3.5 -->
      <g transform="translate(397.771875 287.910437) scale(0.1 -0.1)">
       <use xlink:href="#DejaVuSans-33"/>
       <use xlink:href="#DejaVuSans-2e" x="63.623047"/>
       <use xlink:href="#DejaVuSans-35" x="95.410156"/>
      </g>
     </g>
    </g>
    <g id="text_9">
     <!-- t, ps -->
     <g transform="translate(226.16625 301.588562) scale(0.1 -0.1)">
      <defs>
       <path id="DejaVuSans-74" d="M 1172 4494 
L 1172 3500 
L 2356 3500 
L 2356 3053 
L 1172 3053 
L 1172 1153 
Q 1172 725 1289 603 
Q 1406 481 1766 481 
L 2356 481 
L 2356 0 
L 1766 0 
Q 1100 0 847 248 
Q 594 497 594 1153 
L 594 3053 
L 172 3053 
L 172 3500 
L 594 3500 
L 594 4494 
L 1172 4494 
z
" transform="scale(0.015625)"/>
       <path id="DejaVuSans-2c" d="M 750 794 
L 1409 794 
L 1409 256 
L 897 -744 
L 494 -744 
L 750 256 
L 750 794 
z
" transform="scale(0.015625)"/>
       <path id="DejaVuSans-20" transform="scale(0.015625)"/>
       <path id="DejaVuSans-70" d="M 1159 525 
L 1159 -1331 
L 581 -1331 
L 581 3500 
L 1159 3500 
L 1159 2969 
Q 1341 3281 1617 3432 
Q 1894 3584 2278 3584 
Q 2916 3584 3314 3078 
Q 3713 2572 3713 1747 
Q 3713 922 3314 415 
Q 2916 -91 2278 -91 
Q 1894 -91 1617 61 
Q 1341 213 1159 525 
z
M 3116 1747 
Q 3116 2381 2855 2742 
Q 2594 3103 2138 3103 
Q 1681 3103 1420 2742 
Q 1159 2381 1159 1747 
Q 1159 1113 1420 752 
Q 1681 391 2138 391 
Q 2594 391 2855 752 
Q 3116 1113 3116 1747 
z
" transform="scale(0.015625)"/>
       <path id="DejaVuSans-73" d="M 2834 3397 
L 2834 2853 
Q 2591 2978 2328 3040 
Q 2066 3103 1784 3103 
Q 1356 3103 1142 2972 
Q 928 2841 928 2578 
Q 928 2378 1081 2264 
Q 1234 2150 1697 2047 
L 1894 2003 
Q 2506 1872 2764 1633 
Q 3022 1394 3022 966 
Q 3022 478 2636 193 
Q 2250 -91 1575 -91 
Q 1294 -91 989 -36 
Q 684 19 347 128 
L 347 722 
Q 666 556 975 473 
Q 1284 391 1588 391 
Q 1994 391 2212 530 
Q 2431 669 2431 922 
Q 2431 1156 2273 1281 
Q 2116 1406 1581 1522 
L 1381 1569 
Q 847 1681 609 1914 
Q 372 2147 372 2553 
Q 372 3047 722 3315 
Q 1072 3584 1716 3584 
Q 2034 3584 2315 3537 
Q 2597 3491 2834 3397 
z
" transform="scale(0.015625)"/>
      </defs>
      <use xlink:href="#DejaVuSans-74"/>
      <use xlink:href="#DejaVuSans-2c" x="39.208984"/>
      <use xlink:href="#DejaVuSans-20" x="70.996094"/>
      <use xlink:href="#DejaVuSans-70" x="102.783203"/>
      <use xlink:href="#DejaVuSans-73" x="166.259766"/>
     </g>
    </g>
   </g>
   <g id="matplotlib.axis_2">
    <g id="ytick_1">
     <g id="line2d_9">
      <defs>
       <path id="mb7fabee6f6" d="M 0 0 
L -3.5 0 
" style="stroke: #000000; stroke-width: 0.8"/>
      </defs>
      <g>
       <use xlink:href="#mb7fabee6f6" x="58.523438" y="246.7008" style="stroke: #000000; stroke-width: 0.8"/>
      </g>
     </g>
     <g id="text_10">
      <!-- −0.04 -->
      <g transform="translate(20.878125 250.500019) scale(0.1 -0.1)">
       <defs>
        <path id="DejaVuSans-2212" d="M 678 2272 
L 4684 2272 
L 4684 1741 
L 678 1741 
L 678 2272 
z
" transform="scale(0.015625)"/>
        <path id="DejaVuSans-34" d="M 2419 4116 
L 825 1625 
L 2419 1625 
L 2419 4116 
z
M 2253 4666 
L 3047 4666 
L 3047 1625 
L 3713 1625 
L 3713 1100 
L 3047 1100 
L 3047 0 
L 2419 0 
L 2419 1100 
L 313 1100 
L 313 1709 
L 2253 4666 
z
" transform="scale(0.015625)"/>
       </defs>
       <use xlink:href="#DejaVuSans-2212"/>
       <use xlink:href="#DejaVuSans-30" x="83.789062"/>
       <use xlink:href="#DejaVuSans-2e" x="147.412109"/>
       <use xlink:href="#DejaVuSans-30" x="179.199219"/>
       <use xlink:href="#DejaVuSans-34" x="242.822266"/>
      </g>
     </g>
    </g>
    <g id="ytick_2">
     <g id="line2d_10">
      <g>
       <use xlink:href="#mb7fabee6f6" x="58.523438" y="193.4784" style="stroke: #000000; stroke-width: 0.8"/>
      </g>
     </g>
     <g id="text_11">
      <!-- −0.02 -->
      <g transform="translate(20.878125 197.277619) scale(0.1 -0.1)">
       <use xlink:href="#DejaVuSans-2212"/>
       <use xlink:href="#DejaVuSans-30" x="83.789062"/>
       <use xlink:href="#DejaVuSans-2e" x="147.412109"/>
       <use xlink:href="#DejaVuSans-30" x="179.199219"/>
       <use xlink:href="#DejaVuSans-32" x="242.822266"/>
      </g>
     </g>
    </g>
    <g id="ytick_3">
     <g id="line2d_11">
      <g>
       <use xlink:href="#mb7fabee6f6" x="58.523438" y="140.256" style="stroke: #000000; stroke-width: 0.8"/>
      </g>
     </g>
     <g id="text_12">
      <!-- 0.00 -->
      <g transform="translate(29.257813 144.055219) scale(0.1 -0.1)">
       <use xlink:href="#DejaVuSans-30"/>
       <use xlink:href="#DejaVuSans-2e" x="63.623047"/>
       <use xlink:href="#DejaVuSans-30" x="95.410156"/>
       <use xlink:href="#DejaVuSans-30" x="159.033203"/>
      </g>
     </g>
    </g>
    <g id="ytick_4">
     <g id="line2d_12">
      <g>
       <use xlink:href="#mb7fabee6f6" x="58.523438" y="87.0336" style="stroke: #000000; stroke-width: 0.8"/>
      </g>
     </g>
     <g id="text_13">
      <!-- 0.02 -->
      <g transform="translate(29.257813 90.832819) scale(0.1 -0.1)">
       <use xlink:href="#DejaVuSans-30"/>
       <use xlink:href="#DejaVuSans-2e" x="63.623047"/>
       <use xlink:href="#DejaVuSans-30" x="95.410156"/>
       <use xlink:href="#DejaVuSans-32" x="159.033203"/>
      </g>
     </g>
    </g>
    <g id="ytick_5">
     <g id="line2d_13">
      <g>
       <use xlink:href="#mb7fabee6f6" x="58.523438" y="33.8112" style="stroke: #000000; stroke-width: 0.8"/>
      </g>
     </g>
     <g id="text_14">
      <!-- 0.04 -->
      <g transform="translate(29.257813 37.610419) scale(0.1 -0.1)">
       <use xlink:href="#DejaVuSans-30"/>
       <use xlink:href="#DejaVuSans-2e" x="63.623047"/>
       <use xlink:href="#DejaVuSans-30" x="95.410156"/>
       <use xlink:href="#DejaVuSans-34" x="159.033203"/>
      </g>
     </g>
    </g>
    <g id="text_15">
     <!-- n, mol -->
     <g transform="translate(14.798438 155.921625) rotate(-90) scale(0.1 -0.1)">
      <defs>
       <path id="DejaVuSans-6e" d="M 3513 2113 
L 3513 0 
L 2938 0 
L 2938 2094 
Q 2938 2591 2744 2837 
Q 2550 3084 2163 3084 
Q 1697 3084 1428 2787 
Q 1159 2491 1159 1978 
L 1159 0 
L 581 0 
L 581 3500 
L 1159 3500 
L 1159 2956 
Q 1366 3272 1645 3428 
Q 1925 3584 2291 3584 
Q 2894 3584 3203 3211 
Q 3513 2838 3513 2113 
z
" transform="scale(0.015625)"/>
       <path id="DejaVuSans-6d" d="M 3328 2828 
Q 3544 3216 3844 3400 
Q 4144 3584 4550 3584 
Q 5097 3584 5394 3201 
Q 5691 2819 5691 2113 
L 5691 0 
L 5113 0 
L 5113 2094 
Q 5113 2597 4934 2840 
Q 4756 3084 4391 3084 
Q 3944 3084 3684 2787 
Q 3425 2491 3425 1978 
L 3425 0 
L 2847 0 
L 2847 2094 
Q 2847 2600 2669 2842 
Q 2491 3084 2119 3084 
Q 1678 3084 1418 2786 
Q 1159 2488 1159 1978 
L 1159 0 
L 581 0 
L 581 3500 
L 1159 3500 
L 1159 2956 
Q 1356 3278 1631 3431 
Q 1906 3584 2284 3584 
Q 2666 3584 2933 3390 
Q 3200 3197 3328 2828 
z
" transform="scale(0.015625)"/>
       <path id="DejaVuSans-6f" d="M 1959 3097 
Q 1497 3097 1228 2736 
Q 959 2375 959 1747 
Q 959 1119 1226 758 
Q 1494 397 1959 397 
Q 2419 397 2687 759 
Q 2956 1122 2956 1747 
Q 2956 2369 2687 2733 
Q 2419 3097 1959 3097 
z
M 1959 3584 
Q 2709 3584 3137 3096 
Q 3566 2609 3566 1747 
Q 3566 888 3137 398 
Q 2709 -91 1959 -91 
Q 1206 -91 779 398 
Q 353 888 353 1747 
Q 353 2609 779 3096 
Q 1206 3584 1959 3584 
z
" transform="scale(0.015625)"/>
       <path id="DejaVuSans-6c" d="M 603 4863 
L 1178 4863 
L 1178 0 
L 603 0 
L 603 4863 
z
" transform="scale(0.015625)"/>
      </defs>
      <use xlink:href="#DejaVuSans-6e"/>
      <use xlink:href="#DejaVuSans-2c" x="63.378906"/>
      <use xlink:href="#DejaVuSans-20" x="95.166016"/>
      <use xlink:href="#DejaVuSans-6d" x="126.953125"/>
      <use xlink:href="#DejaVuSans-6f" x="224.365234"/>
      <use xlink:href="#DejaVuSans-6c" x="285.546875"/>
     </g>
    </g>
   </g>
   <g id="patch_3">
    <path d="M 58.523438 273.312 
L 58.523438 7.2 
" style="fill: none; stroke: #000000; stroke-width: 0.8; stroke-linejoin: miter; stroke-linecap: square"/>
   </g>
   <g id="patch_4">
    <path d="M 415.643438 273.312 
L 415.643438 7.2 
" style="fill: none; stroke: #000000; stroke-width: 0.8; stroke-linejoin: miter; stroke-linecap: square"/>
   </g>
   <g id="patch_5">
    <path d="M 58.523438 273.312 
L 415.643438 273.312 
" style="fill: none; stroke: #000000; stroke-width: 0.8; stroke-linejoin: miter; stroke-linecap: square"/>
   </g>
   <g id="patch_6">
    <path d="M 58.523438 7.2 
L 415.643438 7.2 
" style="fill: none; stroke: #000000; stroke-width: 0.8; stroke-linejoin: miter; stroke-linecap: square"/>
   </g>
  </g>
 </g>
 <defs>
  <clipPath id="p6bd5e2fb4a">
   <rect x="58.523438" y="7.2" width="357.12" height="266.112"/>
  </clipPath>
 </defs>
</svg>
